<?xml version="1.0" standalone="no"?>
<!DOCTYPE svg PUBLIC "-//W3C//DTD SVG 1.1//EN" "http://www.w3.org/Graphics/SVG/1.1/DTD/svg11.dtd" >
<svg xmlns="http://www.w3.org/2000/svg">
<metadata></metadata>
<defs>
<font id="breuertextmedium" horiz-adv-x="1155" >
<font-face units-per-em="2048" ascent="1638" descent="-410" />
<missing-glyph horiz-adv-x="430" />
<glyph horiz-adv-x="0" />
<glyph unicode="&#xd;" horiz-adv-x="430" />
<glyph unicode=" "  horiz-adv-x="430" />
<glyph unicode="&#x09;" horiz-adv-x="430" />
<glyph unicode="&#xa0;" horiz-adv-x="430" />
<glyph unicode="!" horiz-adv-x="534" d="M123 1331h289l-64 -925h-164zM143 0v246h246v-246h-246z" />
<glyph unicode="&#x22;" horiz-adv-x="684" d="M82 1331h229l-59 -512h-113zM373 1331h229l-59 -512h-113z" />
<glyph unicode="#" horiz-adv-x="1148" d="M72 330l12 135h199l34 403h-198l12 136h199l28 327h154l-29 -327h240l29 327h155l-28 -327h198l-12 -136h-199l-35 -403h199l-12 -135h-199l-28 -330h-156l29 330h-240l-29 -330h-153l28 330h-198zM436 465h240l35 403h-240z" />
<glyph unicode="$" horiz-adv-x="1056" d="M102 475h222q0 -41 8 -69.5t30.5 -47t62.5 -26.5t101 -8q66 0 107 8t63.5 24.5t29.5 40t7 56.5q0 35 -9 60.5t-35.5 42.5t-73 28.5t-121.5 17.5q-111 8 -183.5 28.5t-115.5 56.5t-60.5 88t-17.5 124q0 141 84 216t239 89v168h178v-168q168 -16 242 -93t74 -241h-221 q0 31 -6.5 59.5t-27 49t-58 33t-99.5 12.5q-96 0 -140 -33t-44 -94q0 -66 39 -99.5t158 -41.5q127 -10 208.5 -30.5t129 -55.5t64.5 -88.5t17 -128.5q0 -55 -9 -108.5t-43 -95.5t-101.5 -70.5t-182.5 -37.5v-182h-178v182q-98 8 -163.5 34t-104.5 68t-54.5 100t-15.5 132z " />
<glyph unicode="%" horiz-adv-x="1316" d="M82 1057q0 168 66.5 232.5t209.5 64.5q141 0 209 -64.5t68 -232.5q0 -84 -16.5 -141.5t-51.5 -92.5t-87 -49t-122 -14q-72 0 -124 14t-85.5 49t-50 92.5t-16.5 141.5zM162 0l835 1331h158l-838 -1331h-155zM229 1073q0 -59 6.5 -96t20.5 -58.5t40 -29.5t62 -8 q70 0 99.5 34.5t29.5 141.5q0 106 -29.5 141t-99.5 35t-99.5 -33t-29.5 -127zM682 272q0 168 66.5 232.5t209.5 64.5q141 0 209 -64.5t68 -232.5q0 -84 -16.5 -141t-51 -91t-87 -48.5t-122.5 -14.5q-72 0 -124 14.5t-85.5 48.5t-50 91t-16.5 141zM829 289q0 -59 6.5 -96 t20.5 -58.5t40 -30t62 -8.5q70 0 99.5 35t29.5 141t-29.5 141.5t-99.5 35.5t-99.5 -33t-29.5 -127z" />
<glyph unicode="&#x26;" horiz-adv-x="1204" d="M63 360q20 121 95 201t176 121q-72 41 -110 119t-19 182q33 184 157.5 277.5t327.5 93.5q117 0 194 -22.5t120 -68.5t53 -119t-8 -171h-222q18 100 -23.5 146t-146.5 46q-98 0 -156.5 -44t-76.5 -148q-16 -98 18.5 -151.5t118.5 -53.5h635l-33 -184h-151l-45 -254 q-16 -86 22.5 -116t122.5 -30l-31 -184q-102 0 -167.5 24.5t-100.5 94.5q-53 -59 -147.5 -100.5t-214.5 -41.5q-227 0 -324.5 91.5t-63.5 291.5zM285 272.5q8 -41.5 33.5 -66t66.5 -34.5t94 -10q129 0 192.5 57t84.5 172l35 193h-277q-78 0 -143.5 -53.5t-83.5 -157.5 q-10 -59 -2 -100.5z" />
<glyph unicode="'" horiz-adv-x="393" d="M82 1331h229l-59 -512h-113z" />
<glyph unicode="(" horiz-adv-x="655" d="M102 584q0 238 79 450.5t227 378.5h165q-131 -158 -209.5 -369.5t-78.5 -459.5t78.5 -460t209.5 -370h-165q-147 166 -226.5 379t-79.5 451z" />
<glyph unicode=")" horiz-adv-x="655" d="M82 -246q131 158 210 370t79 460t-79 459.5t-210 369.5h166q147 -166 226 -379t79 -450q0 -238 -79 -451t-226 -379h-166z" />
<glyph unicode="*" horiz-adv-x="1054" d="M156 946l120 246l299 -199l-18 379h258l-153 -379l368 199l35 -246l-391 -35l248 -256l-236 -149l-90 356l-217 -356l-182 149l338 256z" />
<glyph unicode="+" horiz-adv-x="1044" d="M102 481v164h338v338h164v-338h338v-164h-338v-340h-164v340h-338z" />
<glyph unicode="," horiz-adv-x="450" d="M102 -205v451h246l-102 -451h-144z" />
<glyph unicode="-" horiz-adv-x="716" d="M102 479v185h512v-185h-512z" />
<glyph unicode="." horiz-adv-x="450" d="M102 0v246h246v-246h-246z" />
<glyph unicode="/" horiz-adv-x="651" d="M61 -82l347 1495h182l-346 -1495h-183z" />
<glyph unicode="0" horiz-adv-x="1142" d="M102 446v441q0 127 29 216t87 144.5t146.5 81t206.5 25.5q119 0 207 -25.5t146.5 -81t87 -144.5t28.5 -216v-441q0 -254 -115.5 -361.5t-353.5 -107.5t-353.5 108t-115.5 361zM328 438q0 -82 14 -134t44 -81.5t76 -41t109 -11.5t109.5 11.5t76 41t44 81.5t14.5 134v455 q0 82 -14.5 134t-44 82t-75.5 41t-110 11q-63 0 -109 -11t-76 -41t-44 -82t-14 -134v-455z" />
<glyph unicode="1" horiz-adv-x="741" d="M102 1139v110l295 82h140v-1331h-226v1139h-209z" />
<glyph unicode="2" horiz-adv-x="1099" d="M102 0v129q0 135 49.5 223t124 149.5t161.5 105.5t162 89t124 99.5t49 138.5q0 115 -46 171t-173 56t-175 -56t-48 -171h-226q0 201 107.5 310.5t341.5 109.5q129 0 215 -30t137 -83t72.5 -129t21.5 -170q0 -119 -49 -196.5t-122.5 -133t-159.5 -96.5t-160 -85 t-123 -99.5t-49 -138.5h682v-193h-916z" />
<glyph unicode="3" horiz-adv-x="1140" d="M92 397h225q0 -115 54.5 -171t189.5 -56t191.5 50t56.5 165q0 57 -17.5 96t-46 61.5t-66.5 32t-79 9.5h-145v184h135q92 0 142 46t50 147q0 96 -52 148t-175 52q-127 0 -179 -56t-52 -171h-226q0 201 109.5 310.5t347.5 109.5q123 0 209 -28t140 -79t79 -123.5t25 -165.5 q0 -98 -56.5 -167.5t-148.5 -104.5q111 -35 173 -108.5t62 -200.5q0 -94 -22.5 -168t-77.5 -125t-147.5 -79t-229.5 -28q-129 0 -219 28t-145.5 81t-80 131t-24.5 180z" />
<glyph unicode="4" horiz-adv-x="1146" d="M61 291v174l572 866h289v-856h163v-184h-163v-291h-226v291h-635zM272 475h424v651z" />
<glyph unicode="5" horiz-adv-x="1142" d="M102 397h226q0 -115 57 -171t184 -56t186.5 61.5t59.5 208.5t-58.5 207t-178.5 60q-57 0 -116 -27t-93 -55h-232l62 706h778v-192h-586l-29 -361q61 39 133 62.5t144 23.5q92 0 167 -20.5t127 -68.5t79.5 -130t27.5 -205q0 -113 -25.5 -198.5t-80.5 -144t-145.5 -89.5 t-219.5 -31q-246 0 -356.5 108t-110.5 312z" />
<glyph unicode="6" horiz-adv-x="1136" d="M102 442v451q0 236 110 348.5t345 112.5q242 0 347.5 -98.5t105.5 -294.5h-226q0 104 -50 152t-177 48q-119 0 -174 -57t-55 -209v-174q63 39 137 59.5t168 20.5q217 0 309 -98.5t92 -284.5q0 -98 -23.5 -179t-77.5 -139.5t-142.5 -90.5t-219.5 -32q-135 0 -225 33 t-144.5 92.5t-77 145.5t-22.5 194zM328 442q0 -76 11 -128t39 -83.5t74 -46t113 -14.5q141 0 192.5 58.5t51.5 181.5t-48 180t-183 57q-72 0 -135.5 -21.5t-114.5 -58.5v-125z" />
<glyph unicode="7" horiz-adv-x="966" d="M51 1139v192h864v-168l-450 -1163h-238l449 1139h-625z" />
<glyph unicode="8" horiz-adv-x="1142" d="M82 354q0 137 64.5 215t168.5 113q-94 37 -147 109.5t-53 189.5q0 205 116.5 289t339.5 84q221 0 339 -84t118 -289q0 -117 -54 -189.5t-147 -109.5q104 -35 169 -112.5t65 -215.5q0 -205 -119 -291t-371 -86t-370.5 86.5t-118.5 290.5zM311 375q0 -113 62.5 -159 t197.5 -46t197.5 46t62.5 159q0 117 -60 165t-200 48q-139 0 -199.5 -48t-60.5 -165zM340 963q0 -63 14.5 -103.5t44 -64t72.5 -31.5t100 -8t100.5 8t72 31.5t44 63.5t15.5 104q0 117 -55.5 157.5t-176.5 40.5t-176 -41t-55 -157z" />
<glyph unicode="9" horiz-adv-x="1136" d="M102 913q0 98 24 179.5t78 139.5t142 90t219 32q135 0 225.5 -33t144.5 -92.5t76.5 -146.5t22.5 -193v-451q0 -236 -109.5 -348.5t-344.5 -112.5q-242 0 -347.5 98.5t-105.5 295.5h225q0 -104 50.5 -152.5t177.5 -48.5q119 0 174 57.5t55 208.5v172q-66 -37 -139.5 -57.5 t-165.5 -20.5q-109 0 -185.5 25t-125 74t-70 120.5t-21.5 163.5zM328 922q0 -123 48 -180.5t183 -57.5q72 0 135.5 20.5t114.5 57.5v127q0 76 -11.5 127t-39 84t-73.5 47t-114 14q-141 0 -192 -58.5t-51 -180.5z" />
<glyph unicode=":" horiz-adv-x="450" d="M102 0v246h246v-246h-246zM102 614v246h246v-246h-246z" />
<glyph unicode=";" horiz-adv-x="450" d="M102 -205v451h246l-102 -451h-144zM102 614v246h246v-246h-246z" />
<glyph unicode="&#x3c;" horiz-adv-x="720" d="M82 666l373 747h184l-377 -747l377 -748h-184z" />
<glyph unicode="=" horiz-adv-x="1044" d="M102 276v164h840v-164h-840zM102 686v164h840v-164h-840z" />
<glyph unicode="&#x3e;" horiz-adv-x="720" d="M82 -82l377 748l-377 747h184l373 -747l-373 -748h-184z" />
<glyph unicode="?" horiz-adv-x="1095" d="M102 956q0 195 104.5 296.5t332.5 101.5q233 0 343.5 -96.5t110.5 -301.5q0 -106 -24.5 -181t-70.5 -124t-113.5 -74.5t-155.5 -33.5l-15 -142h-143l-31 308q84 0 145.5 7t101.5 32.5t58.5 74.5t18.5 133q0 113 -57.5 161t-161.5 48q-102 0 -159.5 -47t-57.5 -162h-226z M420 0v246h246v-246h-246z" />
<glyph unicode="@" horiz-adv-x="1585" d="M100 348l54 299q23 131 82 235.5t154 177.5t228.5 111.5t305.5 38.5q170 0 288.5 -38.5t189.5 -111.5t92.5 -177.5t-1.5 -235.5l-53 -299q-23 -131 -81.5 -235.5t-154.5 -177t-229 -111.5t-303 -39q-336 0 -476.5 150.5t-95.5 412.5zM258 356q-74 -424 440 -424t588 424 l51 283q74 424 -440 424t-588 -424zM446 354q18 104 97.5 152.5t193.5 54.5l228 12l12 72q10 66 -20.5 92.5t-116.5 26.5q-78 0 -119 -29.5t-53 -101.5h-144q14 76 45 126t76 79.5t100.5 41t116.5 11.5q150 0 216.5 -53.5t41.5 -192.5l-86 -491h-104l-6 59 q-59 -35 -121 -55.5t-127 -20.5q-125 0 -187.5 53t-42.5 164zM594 360q-21 -94 108 -94q61 0 118 20.5t102 47.5l24 131l-217 -16q-61 -4 -94 -22.5t-41 -66.5z" />
<glyph unicode="A" horiz-adv-x="1085" d="M31 0l368 1331h285l371 -1331h-234l-73 289h-412l-72 -289h-233zM381 473h321l-157 653h-4z" />
<glyph unicode="B" horiz-adv-x="1136" d="M133 0v1331h449q231 0 331.5 -83t100.5 -261q0 -113 -48 -188.5t-126 -108.5q113 -37 164 -116.5t51 -204.5q0 -184 -103.5 -276.5t-337.5 -92.5h-481zM358 193h248q111 0 163 43t52 151q0 113 -58 155t-157 42h-248v-391zM358 768h240q98 0 144 45t46 141 q0 98 -49 141.5t-153 43.5h-228v-371z" />
<glyph unicode="C" horiz-adv-x="1116" d="M102 455v422q0 258 113 367.5t354 109.5q238 0 346.5 -100.5t108.5 -325.5h-225q0 123 -53.5 178t-176.5 55q-127 0 -184 -56t-57 -206v-467q0 -150 57 -206t184 -56q123 0 176.5 52t53.5 181h225q0 -225 -108.5 -325.5t-346.5 -100.5q-121 0 -209 27t-145 83t-85 147.5 t-28 220.5z" />
<glyph unicode="D" horiz-adv-x="1161" d="M133 0v1331h428q123 0 215 -19.5t155.5 -71.5t95.5 -144t32 -238v-383q0 -145 -32 -237.5t-95.5 -145.5t-155.5 -72.5t-215 -19.5h-428zM358 193h199q76 0 129 14t86 46t47.5 83t14.5 125v420q0 88 -18.5 140t-53.5 77.5t-86 33t-119 7.5h-199v-946z" />
<glyph unicode="E" horiz-adv-x="1024" d="M133 0v1331h789v-192h-564v-371h492v-184h-492v-391h564v-193h-789z" />
<glyph unicode="F" horiz-adv-x="944" d="M133 0v1331h750v-192h-525v-371h453v-184h-453v-584h-225z" />
<glyph unicode="G" horiz-adv-x="1157" d="M102 455v422q0 258 113 367.5t354 109.5q238 0 346.5 -100.5t108.5 -325.5h-225q0 123 -53.5 178t-176.5 55q-127 0 -184 -56t-57 -206v-467q0 -78 15 -128t46 -79.5t78 -42t113 -12.5q127 0 183 50t56 183v181h-241v184h466v-768h-112l-37 104q-59 -63 -134 -95 t-192 -32q-121 0 -209 27t-145 83t-85 147.5t-28 220.5z" />
<glyph unicode="H" horiz-adv-x="1171" d="M133 0v1331h225v-563h455v563h225v-1331h-225v584h-455v-584h-225z" />
<glyph unicode="I" horiz-adv-x="491" d="M133 0v1331h225v-1331h-225z" />
<glyph unicode="J" horiz-adv-x="735" d="M61 0v193q35 -10 83.5 -16.5t93.5 -6.5q74 0 106.5 33t32.5 106v830h-223v192h448v-1024q0 -82 -13.5 -143.5t-52 -103.5t-106.5 -62.5t-176 -20.5q-53 0 -99 6.5t-94 16.5z" />
<glyph unicode="K" horiz-adv-x="1046" d="M133 0v1331h225v-565l394 565h264l-473 -645l483 -686h-260q-78 115 -137.5 202t-102.5 149.5t-72.5 104.5t-47.5 68q-43 61 -48 62v-586h-225z" />
<glyph unicode="L" horiz-adv-x="854" d="M133 0v1331h225v-1138h445v-193h-670z" />
<glyph unicode="M" horiz-adv-x="1482" d="M133 0v1331h320l286 -1020h4l287 1020h320v-1331h-222v737l13 365l-314 -1102h-172l-313 1102l12 -365v-737h-221z" />
<glyph unicode="N" horiz-adv-x="1185" d="M133 0v1331h283l430 -1063l-10 305v758h217v-1331h-283l-430 1063l10 -301v-762h-217z" />
<glyph unicode="O" d="M102 440v451q0 125 28 213t86 143.5t148.5 81t213.5 25.5t213 -25.5t148 -81t86 -143.5t28 -213v-451q0 -125 -28 -213t-86 -143t-148.5 -81t-212.5 -26q-123 0 -213.5 26t-148.5 81t-86 143t-28 213zM328 438q0 -154 61.5 -211t188.5 -57t188 57.5t61 210.5v455 q0 154 -61 211t-188 57t-188.5 -57t-61.5 -211v-455z" />
<glyph unicode="P" horiz-adv-x="1122" d="M133 0v1331h442q117 0 205 -17.5t145.5 -65.5t86 -131t28.5 -212q0 -121 -27.5 -201.5t-85 -130t-143.5 -70t-204 -20.5h-222v-483h-225zM358 668h222q61 0 105 10t71.5 35.5t40 71.5t12.5 118t-12.5 118t-40 71.5t-71.5 36t-105 10.5h-222v-471z" />
<glyph unicode="Q" d="M102 440v451q0 125 28 213t86 143.5t148.5 81t213.5 25.5t213 -25.5t148 -81t86 -143.5t28 -213v-451q0 -223 -90.5 -331.5t-288.5 -126.5q8 -53 38.5 -69.5t82.5 -16.5h114l-47 -113h-133q-100 0 -166.5 44t-81.5 155q-199 18 -289 125.5t-90 332.5zM328 438 q0 -154 61.5 -211t188.5 -57t188 57.5t61 210.5v455q0 154 -61 211t-188 57t-188.5 -57t-61.5 -211v-455z" />
<glyph unicode="R" horiz-adv-x="1140" d="M133 0v1331h438q117 0 205 -17.5t146.5 -65.5t88 -131t29.5 -212q0 -166 -53 -257t-164 -130l246 -518h-248l-223 485h-240v-485h-225zM358 670h217q61 0 106.5 9t73 35.5t41 71.5t13.5 117t-13.5 118t-41 71.5t-72.5 36t-107 10.5h-217v-469z" />
<glyph unicode="S" horiz-adv-x="1134" d="M82 379h225q0 -117 57.5 -163t188.5 -46q135 0 192.5 46t57.5 163q0 47 -11.5 82t-43 59.5t-89 42t-151.5 31.5q-104 16 -182 44t-128.5 74t-75 111.5t-24.5 157.5q0 174 109.5 273.5t343.5 99.5q233 0 343 -87t110 -298h-226q0 104 -51 148t-174 44q-117 0 -173 -42 t-56 -140q0 -51 10 -88t41 -62.5t84 -42t139 -28.5q129 -18 213 -48t133 -75t68.5 -107.5t19.5 -148.5q0 -109 -30.5 -185.5t-91 -125t-150.5 -70t-207 -21.5q-115 0 -203 20.5t-147.5 69t-90 125t-30.5 187.5z" />
<glyph unicode="T" horiz-adv-x="937" d="M41 1139v192h856v-192h-315v-1139h-226v1139h-315z" />
<glyph unicode="U" horiz-adv-x="1167" d="M123 422v909h225v-917q0 -135 59.5 -189.5t176.5 -54.5t176 54.5t59 189.5v917h225v-909q0 -127 -29.5 -213t-88 -137.5t-144.5 -73t-198 -21.5q-113 0 -199 21.5t-144.5 73t-88 137.5t-29.5 213z" />
<glyph unicode="V" horiz-adv-x="1085" d="M31 1331h233l277 -1106h4l276 1106h234l-371 -1331h-285z" />
<glyph unicode="W" horiz-adv-x="1675" d="M61 1331h230l198 -1106h5l198 1106h291l199 -1106h4l198 1106h230l-273 -1331h-309l-194 1106l-195 -1106h-309z" />
<glyph unicode="X" horiz-adv-x="1030" d="M20 0l371 684l-358 647h254l227 -467h2l227 467h254l-358 -647l371 -684h-252l-242 502h-2l-242 -502h-252z" />
<glyph unicode="Y" horiz-adv-x="1052" d="M31 1331h245l248 -604h4l248 604h246l-383 -827v-504h-225v504z" />
<glyph unicode="Z" horiz-adv-x="1040" d="M92 0v172l582 967h-561v192h825v-174l-584 -964h604v-193h-866z" />
<glyph unicode="[" horiz-adv-x="622" d="M143 -246v1659h377v-123h-213v-1413h213v-123h-377z" />
<glyph unicode="\" horiz-adv-x="651" d="M61 1413h183l346 -1495h-182z" />
<glyph unicode="]" horiz-adv-x="622" d="M102 -123h213v1413h-213v123h377v-1659h-377v123z" />
<glyph unicode="a" horiz-adv-x="1056" d="M82 270q0 281 336 305l305 21v104q0 78 -38 120t-155 42q-111 0 -151.5 -43t-40.5 -121h-221q0 184 102.5 266.5t310.5 82.5q227 0 320.5 -83t93.5 -264v-700h-151l-45 88q-51 -41 -126 -76t-173 -35q-195 0 -281 79t-86 214zM305 287q0 -57 38 -91t120 -34 q88 0 147.5 22.5t112.5 67.5v203l-283 -35q-72 -10 -103.5 -43t-31.5 -90z" />
<glyph unicode="b" horiz-adv-x="1101" d="M123 0v1372h221v-420q66 45 136.5 70t148.5 25q86 0 156.5 -17.5t119.5 -67t77 -136.5t28 -226v-176q0 -139 -28 -226t-77 -136.5t-119.5 -67t-156.5 -17.5q-88 0 -164 29t-146 82l-45 -88h-151zM344 252q53 -47 117.5 -68.5t132.5 -21.5q96 0 145 59.5t49 212.5v156 q0 80 -12 132t-36.5 83t-61.5 44t-84 13q-68 0 -132.5 -21.5t-117.5 -68.5v-520z" />
<glyph unicode="c" horiz-adv-x="1052" d="M92 459v106q0 139 27.5 232.5t84 148.5t140.5 78t197 23q102 0 181 -19.5t132 -63.5t80 -116t27 -178h-222q-4 113 -48 152.5t-150 39.5q-66 0 -109 -13t-69.5 -46t-38 -91.5t-11.5 -146.5v-106q0 -90 11.5 -147.5t38 -90.5t69.5 -46t109 -13q106 0 150 39t48 153h222 q0 -106 -27 -178t-80 -116t-132 -63.5t-181 -19.5q-115 0 -199 23t-139.5 78t-83 148t-27.5 233z" />
<glyph unicode="d" horiz-adv-x="1101" d="M92 424v176q0 139 27.5 226t77 136.5t120 67t156.5 17.5q78 0 148.5 -25t136.5 -70v420h221v-1372h-152l-45 88q-70 -53 -145.5 -82t-163.5 -29q-86 0 -156.5 17.5t-120 67t-77 136.5t-27.5 226zM313 434q0 -154 49.5 -213t145.5 -59q68 0 132.5 21.5t117.5 68.5v520 q-53 47 -118 68.5t-132 21.5q-47 0 -84 -13t-61.5 -44t-37 -83t-12.5 -132v-156z" />
<glyph unicode="e" horiz-adv-x="1046" d="M92 459v106q0 139 29 231.5t84 147.5t138 79t192 24q102 0 182 -23t135 -78t84 -147t29 -234v-131h-652q0 -78 10.5 -129t36 -84t67.5 -46t108 -13q61 0 112 2t96 6t87 10t85 15v-181q-80 -16 -169 -26.5t-197 -10.5q-113 0 -199 21.5t-143 76t-86 147.5t-29 237z M313 590h430q0 70 -5 122t-26.5 84.5t-63.5 49t-113 16.5q-70 0 -113 -15.5t-67.5 -47t-33 -83.5t-8.5 -126z" />
<glyph unicode="f" horiz-adv-x="684" d="M51 840v153l146 31v92q0 150 64.5 219.5t199.5 69.5q53 0 97 -6t75 -17v-178q-23 4 -50.5 10.5t-68.5 6.5q-53 0 -74.5 -27t-21.5 -74v-96h174v-184h-174v-840h-221v840h-146z" />
<glyph unicode="g" horiz-adv-x="1101" d="M92 446v154q0 139 27.5 226t77 136.5t120 67t156.5 17.5q88 0 164 -29t145 -82l45 88h152v-1022q0 -193 -104.5 -282t-323.5 -89q-72 0 -161 9.5t-163 29.5v191q80 -23 161 -34t161 -11q111 0 160 39t49 147v94q-66 -45 -136.5 -70.5t-148.5 -25.5q-86 0 -156.5 17.5 t-120 66.5t-77 136t-27.5 226zM313 457q0 -154 49.5 -213.5t145.5 -59.5q68 0 132.5 21.5t117.5 68.5v498q-53 47 -118 68.5t-132 21.5q-47 0 -84 -13t-61.5 -44t-37 -83t-12.5 -132v-133z" />
<glyph unicode="h" horiz-adv-x="1087" d="M123 0v1372h221v-420q78 51 150.5 73t162.5 22q178 0 248 -87.5t70 -283.5v-676h-221v676q0 111 -43 148.5t-131 37.5q-53 0 -119 -21.5t-117 -68.5v-772h-221z" />
<glyph unicode="i" horiz-adv-x="466" d="M123 0v1024h221v-1024h-221zM123 1151v221h221v-221h-221z" />
<glyph unicode="j" horiz-adv-x="466" d="M-92 -162q23 -4 50.5 -10t68.5 -6q53 0 74.5 26.5t21.5 73.5v1102h221v-1104q0 -145 -59.5 -217t-204.5 -72q-53 0 -97 6.5t-75 16.5v184zM123 1151v221h221v-221h-221z" />
<glyph unicode="k" horiz-adv-x="976" d="M123 0v1372h221v-762h4l324 414h260l-397 -479q104 -137 210.5 -273.5t210.5 -271.5h-268l-340 471h-4v-471h-221z" />
<glyph unicode="l" horiz-adv-x="466" d="M123 0v1372h221v-1372h-221z" />
<glyph unicode="m" horiz-adv-x="1603" d="M123 0v1024h151l45 -88q74 53 143.5 82t155.5 29q98 0 155.5 -28t100.5 -83q72 47 148 79t166 32q88 0 145.5 -21.5t90 -66t45 -115t12.5 -168.5v-676h-221v676q0 111 -32 148.5t-114 37.5q-47 0 -100 -23.5t-103 -66.5v-772h-221v676q0 111 -31.5 148.5t-113.5 37.5 q-41 0 -97.5 -23.5t-103.5 -66.5v-772h-221z" />
<glyph unicode="n" horiz-adv-x="1087" d="M123 0v1024h151l45 -88q82 57 159 84t179 27q178 0 248 -87.5t70 -283.5v-676h-221v676q0 111 -43 148.5t-131 37.5q-55 0 -119 -21.5t-117 -68.5v-772h-221z" />
<glyph unicode="o" horiz-adv-x="1056" d="M82 459v106q0 137 27.5 229.5t83 148.5t139.5 80t196 24q113 0 197 -24t139.5 -80t83 -148.5t27.5 -229.5v-106q0 -137 -26.5 -229.5t-82 -148.5t-139.5 -80t-199 -24t-198.5 24t-139 80t-82 148.5t-26.5 229.5zM303 459q0 -90 11.5 -147.5t37 -90.5t68.5 -46t108 -13 q63 0 107.5 13t70 46t37 90.5t11.5 147.5v106q0 88 -11.5 146.5t-37 91.5t-69.5 46t-108 13q-66 0 -108.5 -13t-68 -46t-37 -91.5t-11.5 -146.5v-106z" />
<glyph unicode="p" horiz-adv-x="1101" d="M123 -348v1372h151l45 -88q70 53 147 82t163 29t156.5 -17.5t119.5 -67t77 -136.5t28 -226v-176q0 -139 -28 -226t-77 -136.5t-119.5 -67t-156.5 -17.5q-78 0 -148.5 25t-136.5 70v-420h-221zM344 252q53 -47 117.5 -68.5t132.5 -21.5q47 0 84 13t61.5 44t36.5 83t12 132 v156q0 154 -49 213t-145 59q-68 0 -132.5 -21.5t-117.5 -68.5v-520z" />
<glyph unicode="q" horiz-adv-x="1101" d="M92 424v176q0 139 27.5 226t77 136.5t120 67t156.5 17.5t163 -29t146 -82l45 88h152v-1372h-221v420q-66 -45 -136.5 -70t-148.5 -25q-86 0 -156.5 17.5t-120 67t-77 136.5t-27.5 226zM313 434q0 -80 12.5 -132t37 -83t61.5 -44t84 -13q68 0 132.5 21.5t117.5 68.5v520 q-53 47 -118 68.5t-132 21.5q-96 0 -145.5 -59.5t-49.5 -212.5v-156z" />
<glyph unicode="r" horiz-adv-x="673" d="M123 0v1024h151l45 -88q66 53 136.5 82t156.5 29v-197q-166 0 -268 -90v-760h-221z" />
<glyph unicode="s" horiz-adv-x="1015" d="M82 313h219q0 -41 8 -69.5t32 -47t63.5 -26.5t101.5 -8q66 0 106.5 8t63 24.5t30 40t7.5 56.5q0 35 -8.5 60.5t-35 43t-73.5 28.5t-123 17q-111 8 -183.5 30t-115.5 57.5t-60.5 88t-17.5 121.5q0 160 105.5 235t300.5 75q221 0 316 -77t95 -261h-221q0 31 -6 59.5 t-26.5 49t-58.5 32.5t-99 12q-104 0 -145.5 -30.5t-41.5 -96.5t40 -99.5t159 -41.5q127 -10 209 -30.5t129 -55.5t64.5 -88t17.5 -129q0 -61 -11.5 -117.5t-54.5 -99.5t-129 -70t-233 -27q-125 0 -207 21.5t-130 64.5t-67.5 105.5t-19.5 144.5z" />
<glyph unicode="t" horiz-adv-x="704" d="M41 840v153l145 31v240l222 47v-287h215v-184h-215v-576q0 -47 21.5 -74.5t74.5 -27.5q41 0 68.5 6t50.5 10v-178q-31 -10 -80 -16.5t-92 -6.5q-145 0 -205 72t-60 217v574h-145z" />
<glyph unicode="u" horiz-adv-x="1097" d="M123 348v676h221v-676q0 -111 43 -148.5t131 -37.5q55 0 118.5 21.5t117.5 68.5v772h221v-1024h-152l-45 88q-82 -57 -158.5 -84t-179.5 -27q-178 0 -247.5 87.5t-69.5 283.5z" />
<glyph unicode="v" horiz-adv-x="978" d="M20 1024h238l229 -799h5l229 799h237l-346 -1024h-245z" />
<glyph unicode="w" horiz-adv-x="1511" d="M51 1024h230l161 -813h2l187 813h250l186 -815h2l162 815h229l-256 -1024h-266l-182 807l-183 -807h-266z" />
<glyph unicode="x" horiz-adv-x="972" d="M20 0l347 522l-330 502h252l196 -334l199 334h252l-330 -502l346 -522h-256l-209 352h-2l-209 -352h-256z" />
<glyph unicode="y" horiz-adv-x="1001" d="M31 1024h237l238 -762h4l233 762h238l-408 -1151q-25 -68 -53 -114t-71 -74.5t-101.5 -41t-140.5 -12.5q-29 0 -65 5.5t-60 15.5v184q29 -10 61.5 -15t63.5 -5q37 0 62.5 6t45 21.5t33.5 40t29 59.5l22 59z" />
<glyph unicode="z" horiz-adv-x="978" d="M82 0v152l522 688h-502v184h783v-154l-523 -686h545v-184h-825z" />
<glyph unicode="{" horiz-adv-x="765" d="M82 520v125h119q47 0 67.5 20.5t20.5 69.5v439q0 135 61.5 187t200.5 52h113v-123h-113q-53 0 -75.5 -26.5t-22.5 -75.5v-365q0 -96 -16.5 -151.5t-80.5 -87.5q53 -29 75 -77t22 -124v-403q0 -53 22.5 -78t75.5 -25h113v-123h-113q-70 0 -119 11.5t-81 39t-47 73.5 t-15 116v436q0 51 -20.5 70.5t-67.5 19.5h-119z" />
<glyph unicode="|" horiz-adv-x="450" d="M143 -246v1659h144v-1659h-144z" />
<glyph unicode="}" horiz-adv-x="765" d="M102 -123h113q53 0 75.5 24.5t22.5 78.5v403q0 76 21.5 124t75.5 77q-33 16 -51.5 37.5t-29 50t-13.5 65.5t-3 86v365q0 49 -22.5 75.5t-75.5 26.5h-113v123h113q139 0 200.5 -52t61.5 -187v-439q0 -49 20.5 -69.5t67.5 -20.5h119v-125h-119q-47 0 -67.5 -19.5 t-20.5 -70.5v-436q0 -70 -15.5 -116t-47 -73.5t-80.5 -39t-119 -11.5h-113v123z" />
<glyph unicode="&#xa1;" horiz-adv-x="534" d="M-14 -307l225 925h164l-101 -925h-288zM199 778l43 246h245l-43 -246h-245z" />
<glyph unicode="&#xa2;" horiz-adv-x="1073" d="M102 612v107q0 125 22.5 212t68 143t114 85t158.5 37v176h178v-176q162 -16 245 -101t83 -272h-221q-4 113 -48.5 153t-150.5 40q-66 0 -109 -13.5t-69.5 -46t-37.5 -91t-11 -146.5v-107q0 -90 11 -147t37.5 -90t69.5 -46.5t109 -13.5q106 0 150 39t49 154h221 q0 -188 -83 -272t-245 -101v-176h-178v174q-92 8 -160.5 37t-114 85t-67 143t-21.5 214z" />
<glyph unicode="&#xa3;" horiz-adv-x="1150" d="M102 0v193q109 0 161 49t52 170q0 33 -11 74.5t-23 84.5h-179v146h138q-18 66 -38 128t-20 138q0 98 29 169t82 115t126 65.5t163 21.5q113 0 189.5 -19.5t124.5 -62.5t69.5 -114t21.5 -175h-225q0 96 -41 137t-137 41q-98 0 -137 -42t-39 -136q0 -74 15 -137.5 t32 -128.5h239v-146h-215q10 -37 16.5 -71.5t6.5 -69.5q0 -86 -21.5 -141.5t-72.5 -95.5h282q72 0 113 31.5t41 129.5h225q0 -94 -17.5 -160.5t-56.5 -109.5t-102.5 -63.5t-157.5 -20.5h-633z" />
<glyph unicode="&#xa4;" horiz-adv-x="1232" d="M68 143l151 176q-27 53 -38 126t-11 167v107q0 178 49 287l-151 178l118 100l133 -156q53 39 127 55.5t170 16.5q94 0 168 -16.5t129 -55.5l134 156l116 -100l-151 -176q25 -53 38 -125t13 -164v-107q0 -188 -51 -293l151 -174l-121 -102l-133 154q-53 -35 -125.5 -50.5 t-167.5 -15.5q-96 0 -168.5 15.5t-125.5 52.5l-134 -156zM391 612q0 -90 11.5 -147t37 -90t68.5 -46.5t108 -13.5q63 0 107.5 13.5t70 46.5t37 90t11.5 147v107q0 88 -11.5 146.5t-37 91t-69.5 46t-108 13.5q-66 0 -108.5 -13.5t-68 -46t-37 -91t-11.5 -146.5v-107z" />
<glyph unicode="&#xa5;" horiz-adv-x="1105" d="M57 1331h252l242 -602h4l242 602h252l-383 -825h262v-109h-262v-137h262v-108h-262v-152h-226v152h-262v108h262v137h-262v109h262z" />
<glyph unicode="&#xa6;" horiz-adv-x="450" d="M143 -246v697h144v-697h-144zM143 717v696h144v-696h-144z" />
<glyph unicode="&#xa7;" d="M27.5 -145.5q-11.5 69.5 5.5 165.5h225q-18 -104 30 -148t183 -44q131 0 189.5 41t74.5 127q8 45 1 75.5t-34.5 52t-79 36t-130.5 24.5q-131 16 -212 43t-122 68t-50.5 98.5t5.5 136.5q12 72 53 128.5t104 97.5q-96 80 -65 254q29 162 156.5 253t363.5 91 q135 0 221 -21.5t133 -66.5t58.5 -115t-4.5 -166h-226q18 104 -29 148.5t-182 44.5q-131 0 -190.5 -41t-75.5 -127q-8 -45 0 -76t36 -52.5t78 -36t130 -24.5q131 -16 212 -42.5t123 -67.5t50 -98.5t-6 -137.5q-12 -72 -53.5 -129t-102.5 -98q94 -78 64 -252 q-29 -162 -156 -253t-363 -91q-135 0 -222 21.5t-134 66.5t-58.5 114.5zM336 477q6 -33 34.5 -57.5t84 -42t147.5 -29.5q82 -12 152 -31q29 25 48 59t25 77q8 43 2 75.5t-34.5 57t-84 42t-147.5 29.5q-43 6 -80 12.5t-69 16.5q-61 -51 -76 -133q-8 -43 -2 -76z" />
<glyph unicode="&#xa9;" horiz-adv-x="1544" d="M111 516l53 299q23 131 81 235.5t153.5 177t228.5 111.5t305 39q170 0 289.5 -39t189.5 -111.5t92.5 -177t-0.5 -235.5l-53 -299q-23 -131 -82 -235.5t-155.5 -177t-229.5 -111.5t-303 -39q-336 0 -476.5 150.5t-92.5 412.5zM268 524q-76 -424 439 -424q514 0 589 424 l50 283q74 424 -441 424q-514 0 -588 -424zM455.5 457.5q-11.5 60.5 5.5 148.5l20 115q31 174 125 244.5t258 70.5q174 0 230.5 -67.5t31.5 -204.5h-149q12 68 -16.5 100.5t-120.5 32.5t-141.5 -35t-67.5 -141l-21 -115q-18 -98 14.5 -138t131.5 -40q92 0 133 34t53 101h150 q-23 -133 -102 -202.5t-257 -69.5q-80 0 -138 16.5t-93 53t-46.5 97z" />
<glyph unicode="&#xaa;" horiz-adv-x="886" d="M129 733q37 223 311 244l260 18l15 82q14 80 -29 104.5t-121 24.5q-88 0 -127 -35.5t-49 -95.5h-176q27 147 120 213t259 66q104 0 167.5 -17.5t97.5 -52.5t40 -86t-6 -121l-98 -561h-123l-21 70q-59 -43 -133 -65.5t-137 -22.5q-156 0 -213 63.5t-37 171.5zM309 745 q-10 -47 16.5 -73.5t92.5 -26.5q70 0 124 19.5t111 64.5l27 152l-244 -29q-111 -12 -127 -107z" />
<glyph unicode="&#xab;" horiz-adv-x="1089" d="M111 512l366 389h199l-369 -389l232 -389h-199zM498 512l366 389h199l-369 -389l232 -389h-199z" />
<glyph unicode="&#xac;" horiz-adv-x="1044" d="M102 657v164h840v-534h-164v370h-676z" />
<glyph unicode="&#xad;" horiz-adv-x="716" d="M102 479v185h512v-185h-512z" />
<glyph unicode="&#xae;" horiz-adv-x="1544" d="M111 516l53 299q23 131 81 235.5t153.5 177t228.5 111.5t305 39q170 0 289.5 -39t189.5 -111.5t92.5 -177t-0.5 -235.5l-53 -299q-23 -131 -82 -235.5t-155.5 -177t-229.5 -111.5t-303 -39q-336 0 -476.5 150.5t-92.5 412.5zM268 524q-76 -424 439 -424q514 0 589 424 l50 283q74 424 -441 424q-514 0 -588 -424zM459 299l129 733h327q143 0 194.5 -51t29.5 -180q-16 -96 -59.5 -143.5t-96.5 -75.5l88 -283h-164l-80 254h-174l-45 -254h-149zM678 688h178q61 0 90 31t37 76q10 49 -10.5 75.5t-83.5 26.5h-174z" />
<glyph unicode="&#xaf;" horiz-adv-x="757" d="M102 1155v156h553v-156h-553z" />
<glyph unicode="&#xb0;" horiz-adv-x="798" d="M82 1028q0 94 19.5 157.5t58.5 100.5t99 52.5t140 15.5t140.5 -15.5t99.5 -52.5t58.5 -100.5t19.5 -157.5q0 -96 -19.5 -158.5t-58.5 -99.5t-99.5 -52.5t-140.5 -15.5t-140 15.5t-99 52.5t-58.5 99.5t-19.5 158.5zM252 1040q0 -59 8 -97t25.5 -59.5t45 -28.5t68.5 -7 q78 0 112 32.5t34 137.5v10q0 109 -34 144.5t-112 35.5t-112.5 -34t-34.5 -134z" />
<glyph unicode="&#xb1;" horiz-adv-x="1044" d="M102 0v164h840v-164h-840zM102 627v164h338v337h164v-337h338v-164h-338v-340h-164v340h-338z" />
<glyph unicode="&#xb4;" horiz-adv-x="481" d="M92 1126l72 246h225l-170 -246h-127z" />
<glyph unicode="&#xb5;" horiz-adv-x="1097" d="M123 -348v1372h221v-772q51 -47 116.5 -68.5t119.5 -21.5q88 0 131 38t43 148v676h221v-676q0 -197 -69.5 -284t-248.5 -87q-90 0 -162.5 21.5t-150.5 73.5v-420h-221z" />
<glyph unicode="&#xb6;" horiz-adv-x="1460" d="M158 823q27 145 77 242.5t124.5 157t174 84t224.5 24.5h659l-299 -1696h-172l273 1541h-144l-272 -1541h-172l123 693h-176q-262 0 -363.5 117.5t-56.5 377.5z" />
<glyph unicode="&#xb7;" horiz-adv-x="450" d="M117 549l43 246h246l-44 -246h-245z" />
<glyph unicode="&#xba;" horiz-adv-x="876" d="M143.5 698.5q-8.5 73.5 10.5 184.5l16 86q18 111 53 184.5t87 117.5t123 63.5t161 19.5t153.5 -19.5t100.5 -63.5t45 -118t-10 -184l-17 -86q-18 -111 -53 -184.5t-87 -117.5t-121.5 -63.5t-162.5 -19.5q-92 0 -155.5 19.5t-99 63.5t-44 117.5zM318.5 765 q0.5 -46 17 -72.5t49.5 -37t84 -10.5t88 10.5t62.5 37t42 72.5t28.5 118l17 86q12 72 11 118t-17.5 72.5t-49.5 36.5t-84 10t-88 -10t-62.5 -36.5t-42 -73t-28.5 -117.5l-16 -86q-12 -72 -11.5 -118z" />
<glyph unicode="&#xbb;" horiz-adv-x="1089" d="M41 123l371 389l-234 389h199l231 -389l-368 -389h-199zM428 123l371 389l-234 389h199l231 -389l-368 -389h-199z" />
<glyph unicode="&#xbf;" horiz-adv-x="1095" d="M31 68q39 213 149.5 305t288.5 108l39 142h143l-22 -308q-84 0 -146.5 -7t-106.5 -32.5t-73 -74.5t-43 -133q-20 -113 29 -161t153 -48q102 0 168 47t86 162h226q-35 -195 -157 -296.5t-349 -101.5q-233 0 -326.5 96.5t-58.5 301.5zM485 778l43 246h246l-43 -246h-246z " />
<glyph unicode="&#xc0;" horiz-adv-x="1085" d="M31 0l368 1331h285l371 -1331h-234l-73 289h-412l-72 -289h-233zM352 1679h226l71 -245h-127zM381 473h321l-157 653h-4z" />
<glyph unicode="&#xc1;" horiz-adv-x="1085" d="M31 0l368 1331h285l371 -1331h-234l-73 289h-412l-72 -289h-233zM381 473h321l-157 653h-4zM492 1434l71 245h225l-170 -245h-126z" />
<glyph unicode="&#xc2;" horiz-adv-x="1085" d="M31 0l368 1331h285l371 -1331h-234l-73 289h-412l-72 -289h-233zM309 1434l121 245h225l121 -245h-131l-102 127l-103 -127h-131zM381 473h321l-157 653h-4z" />
<glyph unicode="&#xc4;" horiz-adv-x="1085" d="M31 0l368 1331h285l371 -1331h-234l-73 289h-412l-72 -289h-233zM285 1446v192h192v-192h-192zM381 473h321l-157 653h-4zM608 1446v192h193v-192h-193z" />
<glyph unicode="&#xc5;" horiz-adv-x="1085" d="M31 0l368 1331h285l371 -1331h-234l-73 289h-412l-72 -289h-233zM326 1585q0 182 217 182q215 0 215 -182q0 -184 -215 -184q-217 0 -217 184zM381 473h321l-157 653h-4zM453 1585q0 -82 90 -82t90 82q0 80 -90 80t-90 -80z" />
<glyph unicode="&#xc6;" horiz-adv-x="1720" d="M41 0l688 1331h909v-192h-563v-371h492v-184h-492v-391h563v-193h-788v289h-432l-144 -289h-233zM512 473h338v666h2z" />
<glyph unicode="&#xc7;" horiz-adv-x="1116" d="M102 455v422q0 258 113 367.5t354 109.5q238 0 346.5 -100.5t108.5 -325.5h-225q0 123 -53.5 178t-176.5 55q-127 0 -184 -56t-57 -206v-467q0 -150 57 -206t184 -56q123 0 176.5 52t53.5 181h225q0 -217 -99.5 -316t-316.5 -107l-20 -74q59 -10 98 -42t39 -102 q0 -86 -54.5 -117.5t-156.5 -31.5h-119v88h117q51 0 68.5 17.5t17.5 43.5q0 29 -17.5 45.5t-68.5 16.5h-41l47 156q-217 10 -316.5 120.5t-99.5 354.5z" />
<glyph unicode="&#xc8;" horiz-adv-x="1024" d="M133 0v1331h789v-192h-564v-371h492v-184h-492v-391h564v-193h-789zM358 1679h226l71 -245h-127z" />
<glyph unicode="&#xc9;" horiz-adv-x="1024" d="M133 0v1331h789v-192h-564v-371h492v-184h-492v-391h564v-193h-789zM457 1434l71 245h226l-170 -245h-127z" />
<glyph unicode="&#xca;" horiz-adv-x="1024" d="M133 0v1331h789v-192h-564v-371h492v-184h-492v-391h564v-193h-789zM301 1434l121 245h225l121 -245h-131l-102 127l-103 -127h-131z" />
<glyph unicode="&#xcb;" horiz-adv-x="1024" d="M133 0v1331h789v-192h-564v-371h492v-184h-492v-391h564v-193h-789zM274 1446v192h193v-192h-193zM598 1446v192h193v-192h-193z" />
<glyph unicode="&#xcc;" horiz-adv-x="471" d="M88 1679h225l72 -245h-127zM123 0v1331h225v-1331h-225z" />
<glyph unicode="&#xcd;" horiz-adv-x="471" d="M123 0v1331h225v-1331h-225zM182 1434l72 245h225l-170 -245h-127z" />
<glyph unicode="&#xce;" horiz-adv-x="471" d="M4 1434l121 245h225l121 -245h-131l-102 127l-103 -127h-131zM123 0v1331h225v-1331h-225z" />
<glyph unicode="&#xcf;" horiz-adv-x="471" d="M-20 1446v192h192v-192h-192zM123 0v1331h225v-1331h-225zM303 1446v192h193v-192h-193z" />
<glyph unicode="&#xd0;" horiz-adv-x="1150" d="M20 598v156h103v577h428q123 0 215 -19.5t155.5 -71.5t95.5 -144t32 -238v-383q0 -145 -32 -237.5t-95.5 -145.5t-155.5 -72.5t-215 -19.5h-428v598h-103zM348 193h199q76 0 129 14t86 46t47 83t14 125v420q0 88 -18.5 140t-53 77.5t-86 33t-118.5 7.5h-199v-385h225 v-156h-225v-405z" />
<glyph unicode="&#xd1;" horiz-adv-x="1165" d="M123 0v1331h283l430 -1063l-11 305v758h217v-1331h-282l-430 1063l10 -301v-762h-217zM270 1430q0 123 40 174t134 51q49 0 82 -14.5t58.5 -32t51.5 -31.5t62 -14q37 0 55.5 17t18.5 58h121q0 -123 -40 -174t-134 -51q-49 0 -82 14.5t-59.5 32t-52 31.5t-62.5 14 q-70 0 -70 -75h-123z" />
<glyph unicode="&#xd2;" d="M102 440v451q0 125 28 213t86 143.5t148.5 81t213.5 25.5t213 -25.5t148 -81t86 -143.5t28 -213v-451q0 -125 -28 -213t-86 -143t-148.5 -81t-212.5 -26q-123 0 -213.5 26t-148.5 81t-86 143t-28 213zM328 438q0 -154 61.5 -211t188.5 -57t188 57.5t61 210.5v455 q0 154 -61 211t-188 57t-188.5 -57t-61.5 -211v-455zM389 1679h225l72 -245h-127z" />
<glyph unicode="&#xd3;" d="M102 440v451q0 125 28 213t86 143.5t148.5 81t213.5 25.5t213 -25.5t148 -81t86 -143.5t28 -213v-451q0 -125 -28 -213t-86 -143t-148.5 -81t-212.5 -26q-123 0 -213.5 26t-148.5 81t-86 143t-28 213zM328 438q0 -154 61.5 -211t188.5 -57t188 57.5t61 210.5v455 q0 154 -61 211t-188 57t-188.5 -57t-61.5 -211v-455zM539 1434l71 245h226l-170 -245h-127z" />
<glyph unicode="&#xd4;" d="M102 440v451q0 125 28 213t86 143.5t148.5 81t213.5 25.5t213 -25.5t148 -81t86 -143.5t28 -213v-451q0 -125 -28 -213t-86 -143t-148.5 -81t-212.5 -26q-123 0 -213.5 26t-148.5 81t-86 143t-28 213zM328 438q0 -154 61.5 -211t188.5 -57t188 57.5t61 210.5v455 q0 154 -61 211t-188 57t-188.5 -57t-61.5 -211v-455zM344 1434l121 245h225l121 -245h-131l-102 127l-103 -127h-131z" />
<glyph unicode="&#xd5;" d="M102 440v451q0 125 28 213t86 143.5t148.5 81t213.5 25.5t213 -25.5t148 -81t86 -143.5t28 -213v-451q0 -125 -28 -213t-86 -143t-148.5 -81t-212.5 -26q-123 0 -213.5 26t-148.5 81t-86 143t-28 213zM266 1430q0 123 40 174t134 51q49 0 82 -14.5t58.5 -32t51 -31.5 t62.5 -14t55.5 17t18.5 58h121q0 -123 -40 -174t-134 -51q-49 0 -82 14.5t-59.5 32t-52 31.5t-62.5 14q-70 0 -70 -75h-123zM328 438q0 -154 61.5 -211t188.5 -57t188 57.5t61 210.5v455q0 154 -61 211t-188 57t-188.5 -57t-61.5 -211v-455z" />
<glyph unicode="&#xd6;" d="M102 440v451q0 125 28 213t86 143.5t148.5 81t213.5 25.5t213 -25.5t148 -81t86 -143.5t28 -213v-451q0 -125 -28 -213t-86 -143t-148.5 -81t-212.5 -26q-123 0 -213.5 26t-148.5 81t-86 143t-28 213zM319 1446v192h193v-192h-193zM328 438q0 -154 61.5 -211t188.5 -57 t188 57.5t61 210.5v455q0 154 -61 211t-188 57t-188.5 -57t-61.5 -211v-455zM643 1446v192h193v-192h-193z" />
<glyph unicode="&#xd7;" horiz-adv-x="944" d="M102 309l252 254l-252 252l115 117l254 -254l254 254l115 -117l-254 -252l256 -256l-117 -117l-254 256l-254 -253z" />
<glyph unicode="&#xd8;" d="M72 -41l104 172q-74 106 -74 309v451q0 125 28 213t86 143.5t148.5 81t213.5 25.5q186 0 296 -62l50 80h159l-104 -174q74 -109 74 -307v-451q0 -125 -28 -213t-86 -143t-148.5 -81t-212.5 -26q-188 0 -299 62l-48 -80h-159zM328 410.5q0 -13.5 2 -25.5l432 721 q-57 55 -184 55t-188.5 -57t-61.5 -211v-455v-27.5zM391 225q31 -31 77 -43t110 -12q127 0 188 57.5t61 210.5v455q0 14 -1 26.5t-1 24.5z" />
<glyph unicode="&#xd9;" horiz-adv-x="1167" d="M123 422v909h225v-917q0 -135 59.5 -189.5t176.5 -54.5t176 54.5t59 189.5v917h225v-909q0 -127 -29.5 -213t-88 -137.5t-144.5 -73t-198 -21.5q-113 0 -199 21.5t-144.5 73t-88 137.5t-29.5 213zM434 1679h225l72 -245h-127z" />
<glyph unicode="&#xda;" horiz-adv-x="1167" d="M123 422v909h225v-917q0 -135 59.5 -189.5t176.5 -54.5t176 54.5t59 189.5v917h225v-909q0 -127 -29.5 -213t-88 -137.5t-144.5 -73t-198 -21.5q-113 0 -199 21.5t-144.5 73t-88 137.5t-29.5 213zM528 1434l72 245h225l-170 -245h-127z" />
<glyph unicode="&#xdb;" horiz-adv-x="1167" d="M123 422v909h225v-917q0 -135 59.5 -189.5t176.5 -54.5t176 54.5t59 189.5v917h225v-909q0 -127 -29.5 -213t-88 -137.5t-144.5 -73t-198 -21.5q-113 0 -199 21.5t-144.5 73t-88 137.5t-29.5 213zM350 1434l121 245h225l121 -245h-131l-102 127l-103 -127h-131z" />
<glyph unicode="&#xdc;" horiz-adv-x="1167" d="M123 422v909h225v-917q0 -135 59.5 -189.5t176.5 -54.5t176 54.5t59 189.5v917h225v-909q0 -127 -29.5 -213t-88 -137.5t-144.5 -73t-198 -21.5q-113 0 -199 21.5t-144.5 73t-88 137.5t-29.5 213zM326 1446v192h192v-192h-192zM649 1446v192h193v-192h-193z" />
<glyph unicode="&#xdd;" horiz-adv-x="1052" d="M31 1331h245l248 -604h4l248 604h246l-383 -827v-504h-225v504zM477 1434l72 245h225l-170 -245h-127z" />
<glyph unicode="&#xde;" horiz-adv-x="1112" d="M123 0v1331h225v-233h217q117 0 205 -18.5t145.5 -67.5t86 -132t28.5 -212q0 -125 -28.5 -207t-86 -131t-145.5 -68.5t-205 -19.5h-217v-242h-225zM348 434h221q61 0 105.5 9.5t72 36t40 72.5t12.5 118t-12.5 118t-40 71.5t-71.5 35.5t-106 10h-221v-471z" />
<glyph unicode="&#xdf;" horiz-adv-x="1128" d="M123 0v1028q0 193 98 279t303 86q215 0 308.5 -87t93.5 -259q0 -119 -52.5 -190t-138.5 -99q74 -12 132.5 -37t98.5 -69t60.5 -109.5t20.5 -159.5q0 -117 -31 -194.5t-87.5 -125t-135 -67t-175.5 -19.5q-51 0 -101 6.5t-95 16.5v184q47 -14 96 -20t94 -6q121 0 167 52 t46 173q0 80 -12 131t-41 81t-75 42t-113 12h-119v185h61q61 0 97 15t53.5 42t23 62.5t5.5 74.5q0 100 -43.5 140t-137.5 40q-106 0 -143 -47t-37 -133v-1028h-221z" />
<glyph unicode="&#xe0;" horiz-adv-x="1036" d="M72 270q0 281 336 305l305 21v104q0 78 -38 120t-155 42q-111 0 -151.5 -43t-40.5 -121h-222q0 184 102.5 266.5t311.5 82.5q227 0 320.5 -83t93.5 -264v-700h-152l-45 88q-51 -41 -126 -76t-173 -35q-195 0 -280.5 79t-85.5 214zM295 287q0 -57 38 -91t120 -34 q88 0 147 22.5t113 67.5v203l-283 -35q-72 -10 -103.5 -43t-31.5 -90zM317 1372h226l71 -246h-127z" />
<glyph unicode="&#xe1;" horiz-adv-x="1036" d="M72 270q0 281 336 305l305 21v104q0 78 -38 120t-155 42q-111 0 -151.5 -43t-40.5 -121h-222q0 184 102.5 266.5t311.5 82.5q227 0 320.5 -83t93.5 -264v-700h-152l-45 88q-51 -41 -126 -76t-173 -35q-195 0 -280.5 79t-85.5 214zM295 287q0 -57 38 -91t120 -34 q88 0 147 22.5t113 67.5v203l-283 -35q-72 -10 -103.5 -43t-31.5 -90zM469 1126l72 246h225l-170 -246h-127z" />
<glyph unicode="&#xe2;" horiz-adv-x="1036" d="M72 270q0 281 336 305l305 21v104q0 78 -38 120t-155 42q-111 0 -151.5 -43t-40.5 -121h-222q0 184 102.5 266.5t311.5 82.5q227 0 320.5 -83t93.5 -264v-700h-152l-45 88q-51 -41 -126 -76t-173 -35q-195 0 -280.5 79t-85.5 214zM285 1126l121 246h225l121 -246h-131 l-103 127l-102 -127h-131zM295 287q0 -57 38 -91t120 -34q88 0 147 22.5t113 67.5v203l-283 -35q-72 -10 -103.5 -43t-31.5 -90z" />
<glyph unicode="&#xe4;" horiz-adv-x="1036" d="M72 270q0 281 336 305l305 21v104q0 78 -38 120t-155 42q-111 0 -151.5 -43t-40.5 -121h-222q0 184 102.5 266.5t311.5 82.5q227 0 320.5 -83t93.5 -264v-700h-152l-45 88q-51 -41 -126 -76t-173 -35q-195 0 -280.5 79t-85.5 214zM274 1139v192h193v-192h-193zM295 287 q0 -57 38 -91t120 -34q88 0 147 22.5t113 67.5v203l-283 -35q-72 -10 -103.5 -43t-31.5 -90zM598 1139v192h193v-192h-193z" />
<glyph unicode="&#xe5;" horiz-adv-x="1036" d="M72 270q0 281 336 305l305 21v104q0 78 -38 120t-155 42q-111 0 -151.5 -43t-40.5 -121h-222q0 184 102.5 266.5t311.5 82.5q227 0 320.5 -83t93.5 -264v-700h-152l-45 88q-51 -41 -126 -76t-173 -35q-195 0 -280.5 79t-85.5 214zM295 287q0 -57 38 -91t120 -34 q88 0 147 22.5t113 67.5v203l-283 -35q-72 -10 -103.5 -43t-31.5 -90zM301 1278q0 182 217 182q215 0 215 -182q0 -184 -215 -184q-217 0 -217 184zM428 1278q0 -82 90 -82t90 82q0 80 -90 80t-90 -80z" />
<glyph unicode="&#xe6;" horiz-adv-x="1677" d="M82 281q0 309 348 309h293v110q0 78 -38 120t-155 42q-111 0 -151.5 -43t-40.5 -121h-221q0 184 102.5 266.5t310.5 82.5q129 0 205 -27t115 -82q47 59 125 84t190 25q102 0 182 -23t135.5 -78t84 -147t28.5 -234v-131h-651q0 -78 10.5 -129t36 -84t67.5 -46t107 -13 q61 0 112.5 2t96.5 6t87 10t85 15v-181q-80 -16 -169 -26.5t-197 -10.5q-129 0 -214 28t-132 101q-49 -74 -139.5 -101.5t-235.5 -27.5q-102 0 -173 23t-117 62.5t-66.5 95t-20.5 123.5zM305 291q0 -66 37 -97.5t129 -31.5q80 0 129 13t77 46t37 84t9 129h-266 q-72 0 -112 -33.5t-40 -109.5zM944 590h430q0 70 -5 122t-26.5 84.5t-63.5 49t-114 16.5q-70 0 -112.5 -15.5t-67 -47t-33 -83.5t-8.5 -126z" />
<glyph unicode="&#xe7;" horiz-adv-x="1052" d="M92 459v106q0 139 27.5 232.5t84 148.5t140.5 78t197 23q102 0 181 -19.5t132 -63.5t80 -116t27 -178h-222q-4 113 -48 152.5t-150 39.5q-66 0 -109 -13t-69.5 -46t-38 -91.5t-11.5 -146.5v-106q0 -90 11.5 -147.5t38 -90.5t69.5 -46t109 -13q106 0 150 39t48 153h222 q0 -102 -25 -172.5t-74 -114.5t-121.5 -64.5t-167.5 -22.5l-20 -74q59 -10 98 -42t39 -102q0 -86 -54 -117.5t-157 -31.5h-119v88h117q51 0 68.5 17.5t17.5 43.5q0 29 -17.5 45.5t-68.5 16.5h-41l47 156q-100 6 -173.5 32.5t-122 82t-72 144.5t-23.5 220z" />
<glyph unicode="&#xe8;" horiz-adv-x="1046" d="M92 459v106q0 139 29 231.5t84 147.5t138 79t192 24q102 0 182 -23t135 -78t84 -147t29 -234v-131h-652q0 -78 10.5 -129t36 -84t67.5 -46t108 -13q61 0 112 2t96 6t87 10t85 15v-181q-80 -16 -169 -26.5t-197 -10.5q-113 0 -199 21.5t-143 76t-86 147.5t-29 237z M313 590h430q0 70 -5 122t-26.5 84.5t-63.5 49t-113 16.5q-70 0 -113 -15.5t-67.5 -47t-33 -83.5t-8.5 -126zM334 1372h225l72 -246h-127z" />
<glyph unicode="&#xe9;" horiz-adv-x="1046" d="M92 459v106q0 139 29 231.5t84 147.5t138 79t192 24q102 0 182 -23t135 -78t84 -147t29 -234v-131h-652q0 -78 10.5 -129t36 -84t67.5 -46t108 -13q61 0 112 2t96 6t87 10t85 15v-181q-80 -16 -169 -26.5t-197 -10.5q-113 0 -199 21.5t-143 76t-86 147.5t-29 237z M313 590h430q0 70 -5 122t-26.5 84.5t-63.5 49t-113 16.5q-70 0 -113 -15.5t-67.5 -47t-33 -83.5t-8.5 -126zM475 1126l72 246h225l-170 -246h-127z" />
<glyph unicode="&#xea;" horiz-adv-x="1046" d="M92 459v106q0 139 29 231.5t84 147.5t138 79t192 24q102 0 182 -23t135 -78t84 -147t29 -234v-131h-652q0 -78 10.5 -129t36 -84t67.5 -46t108 -13q61 0 112 2t96 6t87 10t85 15v-181q-80 -16 -169 -26.5t-197 -10.5q-113 0 -199 21.5t-143 76t-86 147.5t-29 237z M313 590h430q0 70 -5 122t-26.5 84.5t-63.5 49t-113 16.5q-70 0 -113 -15.5t-67.5 -47t-33 -83.5t-8.5 -126zM319 1126l121 246h226l120 -246h-131l-102 127l-102 -127h-132z" />
<glyph unicode="&#xeb;" horiz-adv-x="1046" d="M92 459v106q0 139 29 231.5t84 147.5t138 79t192 24q102 0 182 -23t135 -78t84 -147t29 -234v-131h-652q0 -78 10.5 -129t36 -84t67.5 -46t108 -13q61 0 112 2t96 6t87 10t85 15v-181q-80 -16 -169 -26.5t-197 -10.5q-113 0 -199 21.5t-143 76t-86 147.5t-29 237z M289 1139v192h192v-192h-192zM313 590h430q0 70 -5 122t-26.5 84.5t-63.5 49t-113 16.5q-70 0 -113 -15.5t-67.5 -47t-33 -83.5t-8.5 -126zM612 1139v192h193v-192h-193z" />
<glyph unicode="&#xec;" horiz-adv-x="466" d="M45 1372h225l72 -246h-127zM123 0v1024h221v-1024h-221z" />
<glyph unicode="&#xed;" horiz-adv-x="466" d="M123 0v1024h221v-1024h-221zM168 1126l72 246h225l-170 -246h-127z" />
<glyph unicode="&#xee;" horiz-adv-x="466" d="M2 1126l121 246h225l121 -246h-131l-102 127l-103 -127h-131zM123 0v1024h221v-1024h-221z" />
<glyph unicode="&#xef;" horiz-adv-x="466" d="M-8 1118v195h201v-195h-201zM123 0v1024h221v-1024h-221zM276 1118v195h201v-195h-201z" />
<glyph unicode="&#xf0;" horiz-adv-x="1101" d="M92 449q0 96 21.5 174.5t67.5 134t119 86t175 30.5q164 0 283 -75v170q0 82 -19 135l-116 -111l-76 80l123 117q-45 23 -127 22q-45 0 -89 -9t-85 -25v186q37 14 83 23.5t93 9.5q174 0 278 -62l119 113l76 -80l-113 -108q74 -102 74 -287v-529q0 -104 -21.5 -190 t-74 -146.5t-138.5 -94t-213 -33.5q-123 0 -206.5 32.5t-136 93t-75 147.5t-22.5 196zM313 440q0 -72 10.5 -123t36 -84.5t68.5 -49t111 -15.5q129 0 174 68.5t45 216.5v190q-95 70 -232 70q-63 0 -104 -20.5t-65.5 -56.5t-34 -86t-9.5 -110z" />
<glyph unicode="&#xf1;" horiz-adv-x="1097" d="M123 0v1024h151l45 -88q82 57 159 84t179 27q178 0 248 -87.5t70 -283.5v-676h-221v676q0 111 -43 148.5t-131 37.5q-55 0 -119 -21.5t-117 -68.5v-772h-221zM260 1122q0 123 40 174.5t134 51.5q49 0 82 -14.5t58.5 -32t51 -32t62.5 -14.5t55.5 17.5t18.5 58.5h121 q0 -123 -40 -174t-134 -51q-49 0 -82 14.5t-59.5 31.5t-52.5 31.5t-62 14.5q-70 0 -70 -76h-123z" />
<glyph unicode="&#xf2;" horiz-adv-x="1056" d="M82 459v106q0 137 27.5 229.5t83 148.5t139.5 80t196 24q113 0 197 -24t139.5 -80t83 -148.5t27.5 -229.5v-106q0 -137 -26.5 -229.5t-82 -148.5t-139.5 -80t-199 -24t-198.5 24t-139 80t-82 148.5t-26.5 229.5zM303 459q0 -90 11.5 -147.5t37 -90.5t68.5 -46t108 -13 q63 0 107.5 13t70 46t37 90.5t11.5 147.5v106q0 88 -11.5 146.5t-37 91.5t-69.5 46t-108 13q-66 0 -108.5 -13t-68 -46t-37 -91.5t-11.5 -146.5v-106zM319 1372h226l71 -246h-127z" />
<glyph unicode="&#xf3;" horiz-adv-x="1056" d="M82 459v106q0 137 27.5 229.5t83 148.5t139.5 80t196 24q113 0 197 -24t139.5 -80t83 -148.5t27.5 -229.5v-106q0 -137 -26.5 -229.5t-82 -148.5t-139.5 -80t-199 -24t-198.5 24t-139 80t-82 148.5t-26.5 229.5zM303 459q0 -90 11.5 -147.5t37 -90.5t68.5 -46t108 -13 q63 0 107.5 13t70 46t37 90.5t11.5 147.5v106q0 88 -11.5 146.5t-37 91.5t-69.5 46t-108 13q-66 0 -108.5 -13t-68 -46t-37 -91.5t-11.5 -146.5v-106zM483 1126l72 246h225l-170 -246h-127z" />
<glyph unicode="&#xf4;" horiz-adv-x="1056" d="M82 459v106q0 137 27.5 229.5t83 148.5t139.5 80t196 24q113 0 197 -24t139.5 -80t83 -148.5t27.5 -229.5v-106q0 -137 -26.5 -229.5t-82 -148.5t-139.5 -80t-199 -24t-198.5 24t-139 80t-82 148.5t-26.5 229.5zM295 1126l121 246h225l121 -246h-131l-103 127l-102 -127 h-131zM303 459q0 -90 11.5 -147.5t37 -90.5t68.5 -46t108 -13q63 0 107.5 13t70 46t37 90.5t11.5 147.5v106q0 88 -11.5 146.5t-37 91.5t-69.5 46t-108 13q-66 0 -108.5 -13t-68 -46t-37 -91.5t-11.5 -146.5v-106z" />
<glyph unicode="&#xf5;" horiz-adv-x="1056" d="M82 459v106q0 137 27.5 229.5t83 148.5t139.5 80t196 24q113 0 197 -24t139.5 -80t83 -148.5t27.5 -229.5v-106q0 -137 -26.5 -229.5t-82 -148.5t-139.5 -80t-199 -24t-198.5 24t-139 80t-82 148.5t-26.5 229.5zM217 1122q0 123 40 174.5t134 51.5q49 0 82 -14.5 t58.5 -32t51 -32t62.5 -14.5t55.5 17.5t18.5 58.5h121q0 -123 -40 -174t-134 -51q-49 0 -82 14.5t-59.5 31.5t-52.5 31.5t-62 14.5q-70 0 -70 -76h-123zM303 459q0 -90 11.5 -147.5t37 -90.5t68.5 -46t108 -13q63 0 107.5 13t70 46t37 90.5t11.5 147.5v106q0 88 -11.5 146.5 t-37 91.5t-69.5 46t-108 13q-66 0 -108.5 -13t-68 -46t-37 -91.5t-11.5 -146.5v-106z" />
<glyph unicode="&#xf6;" horiz-adv-x="1056" d="M82 459v106q0 137 27.5 229.5t83 148.5t139.5 80t196 24q113 0 197 -24t139.5 -80t83 -148.5t27.5 -229.5v-106q0 -137 -26.5 -229.5t-82 -148.5t-139.5 -80t-199 -24t-198.5 24t-139 80t-82 148.5t-26.5 229.5zM270 1139v192h193v-192h-193zM303 459q0 -90 11.5 -147.5 t37 -90.5t68.5 -46t108 -13q63 0 107.5 13t70 46t37 90.5t11.5 147.5v106q0 88 -11.5 146.5t-37 91.5t-69.5 46t-108 13q-66 0 -108.5 -13t-68 -46t-37 -91.5t-11.5 -146.5v-106zM594 1139v192h192v-192h-192z" />
<glyph unicode="&#xf7;" horiz-adv-x="1044" d="M102 481v164h840v-164h-840zM422 152v188h201v-188h-201zM422 784v191h201v-191h-201z" />
<glyph unicode="&#xf8;" horiz-adv-x="1056" d="M82 459v106q0 137 27.5 229.5t83 148.5t139.5 80t196 24q147 0 242 -41l39 59h156l-88 -137q49 -57 73.5 -145.5t24.5 -217.5v-106q0 -137 -26.5 -229.5t-82 -148.5t-139.5 -80t-199 -24q-147 0 -243 39l-37 -57h-156l86 133q-96 111 -96 367zM303 459q0 -47 2 -86 t10 -70l347 535q-25 14 -58 19t-76 5q-66 0 -108.5 -13t-68 -46t-37 -91.5t-11.5 -146.5v-106zM393 184q47 -23 135 -22q63 0 107.5 13t70 46t37 90.5t11.5 147.5v106q0 94 -13 154z" />
<glyph unicode="&#xf9;" horiz-adv-x="1097" d="M123 348v676h221v-676q0 -111 43 -148.5t131 -37.5q55 0 118.5 21.5t117.5 68.5v772h221v-1024h-152l-45 88q-82 -57 -158.5 -84t-179.5 -27q-178 0 -247.5 87.5t-69.5 283.5zM399 1372h226l71 -246h-127z" />
<glyph unicode="&#xfa;" horiz-adv-x="1097" d="M123 348v676h221v-676q0 -111 43 -148.5t131 -37.5q55 0 118.5 21.5t117.5 68.5v772h221v-1024h-152l-45 88q-82 -57 -158.5 -84t-179.5 -27q-178 0 -247.5 87.5t-69.5 283.5zM496 1126l71 246h226l-170 -246h-127z" />
<glyph unicode="&#xfb;" horiz-adv-x="1097" d="M123 348v676h221v-676q0 -111 43 -148.5t131 -37.5q55 0 118.5 21.5t117.5 68.5v772h221v-1024h-152l-45 88q-82 -57 -158.5 -84t-179.5 -27q-178 0 -247.5 87.5t-69.5 283.5zM315 1126l121 246h226l120 -246h-131l-102 127l-103 -127h-131z" />
<glyph unicode="&#xfc;" horiz-adv-x="1097" d="M123 348v676h221v-676q0 -111 43 -148.5t131 -37.5q55 0 118.5 21.5t117.5 68.5v772h221v-1024h-152l-45 88q-82 -57 -158.5 -84t-179.5 -27q-178 0 -247.5 87.5t-69.5 283.5zM291 1139v192h192v-192h-192zM614 1139v192h193v-192h-193z" />
<glyph unicode="&#xfd;" horiz-adv-x="1032" d="M41 1024h238l237 -762h4l234 762h237l-407 -1151q-25 -68 -53.5 -114t-71.5 -74.5t-101.5 -41t-140.5 -12.5q-29 0 -64.5 5.5t-60.5 15.5v184q29 -10 61.5 -15t63.5 -5q37 0 62.5 6t45 21.5t34 40t28.5 59.5l23 59zM465 1126l72 246h225l-170 -246h-127z" />
<glyph unicode="&#xfe;" horiz-adv-x="1101" d="M123 -348v1720h221v-420q66 45 136.5 70t148.5 25q86 0 156.5 -17.5t119.5 -67t77 -136.5t28 -226v-176q0 -139 -28 -226t-77 -136.5t-119.5 -67t-156.5 -17.5q-78 0 -148.5 25t-136.5 70v-420h-221zM344 252q53 -47 117.5 -68.5t132.5 -21.5q47 0 84 13t61.5 44t36.5 83 t12 132v156q0 80 -12 132t-36.5 83t-61.5 44t-84 13q-68 0 -132.5 -21.5t-117.5 -68.5v-520z" />
<glyph unicode="&#xff;" horiz-adv-x="1032" d="M41 1024h238l237 -762h4l234 762h237l-407 -1151q-25 -68 -53.5 -114t-71.5 -74.5t-101.5 -41t-140.5 -12.5q-29 0 -64.5 5.5t-60.5 15.5v184q29 -10 61.5 -15t63.5 -5q37 0 62.5 6t45 21.5t34 40t28.5 59.5l23 59zM258 1139v192h193v-192h-193zM582 1139v192h192v-192 h-192z" />
<glyph unicode="&#x152;" horiz-adv-x="1710" d="M102 463v405q0 125 28 213t86 143.5t148.5 81t213.5 25.5h1038v-192h-563v-371h491v-184h-491v-391h563v-193h-1038q-123 0 -213.5 25.5t-148.5 81t-86 143.5t-28 213zM328 461q0 -154 61.5 -211t188.5 -57h249v946h-249q-127 0 -188.5 -57.5t-61.5 -211.5v-409z" />
<glyph unicode="&#x153;" horiz-adv-x="1708" d="M82 459v106q0 137 27.5 229.5t83 148.5t139.5 80t196 24q119 0 201 -27t135 -90q51 66 133 91.5t199 25.5q102 0 182 -23t135.5 -78t84 -147t28.5 -234v-139h-651q0 -72 10 -122t36 -82t67.5 -46t107.5 -14q61 0 112.5 2t96.5 6t87 10t85 15v-181q-80 -16 -169 -26.5 t-198 -10.5q-123 0 -207.5 24t-138.5 89q-51 -61 -134 -87t-202 -26q-115 0 -198.5 24t-139 80t-82 148.5t-26.5 229.5zM303 459q0 -90 11.5 -147.5t37 -90.5t68.5 -46t108 -13q63 0 107.5 13t70 46t37 90.5t11.5 147.5v106q0 88 -11.5 146.5t-37 91.5t-69.5 46t-108 13 q-66 0 -108.5 -13t-68 -46t-37 -91.5t-11.5 -146.5v-106zM975 598h430q0 66 -6 116t-27.5 82.5t-63.5 49t-112 16.5q-68 0 -111 -15.5t-67.5 -48t-33.5 -81.5t-9 -119z" />
<glyph unicode="&#x178;" horiz-adv-x="1052" d="M31 1331h245l248 -604h4l248 604h246l-383 -827v-504h-225v504zM268 1446v192h193v-192h-193zM592 1446v192h192v-192h-192z" />
<glyph unicode="&#x2c6;" horiz-adv-x="645" d="M90 1126l121 246h225l121 -246h-131l-102 127l-103 -127h-131z" />
<glyph unicode="&#x2dc;" horiz-adv-x="819" d="M98 1122q0 123 40 174.5t134 51.5q49 0 82 -14.5t58.5 -32t51 -32t62.5 -14.5t55.5 17.5t18.5 58.5h121q0 -123 -40 -174t-134 -51q-49 0 -82 14.5t-59.5 31.5t-52 31.5t-62.5 14.5q-70 0 -70 -76h-123z" />
<glyph unicode="&#x2000;" horiz-adv-x="883" />
<glyph unicode="&#x2001;" horiz-adv-x="1767" />
<glyph unicode="&#x2002;" horiz-adv-x="883" />
<glyph unicode="&#x2003;" horiz-adv-x="1767" />
<glyph unicode="&#x2004;" horiz-adv-x="589" />
<glyph unicode="&#x2005;" horiz-adv-x="441" />
<glyph unicode="&#x2006;" horiz-adv-x="294" />
<glyph unicode="&#x2007;" horiz-adv-x="294" />
<glyph unicode="&#x2008;" horiz-adv-x="220" />
<glyph unicode="&#x2009;" horiz-adv-x="353" />
<glyph unicode="&#x200a;" horiz-adv-x="98" />
<glyph unicode="&#x2010;" horiz-adv-x="716" d="M102 479v185h512v-185h-512z" />
<glyph unicode="&#x2011;" horiz-adv-x="716" d="M102 479v185h512v-185h-512z" />
<glyph unicode="&#x2012;" horiz-adv-x="716" d="M102 479v185h512v-185h-512z" />
<glyph unicode="&#x2013;" horiz-adv-x="972" d="M102 479v185h768v-185h-768z" />
<glyph unicode="&#x2014;" horiz-adv-x="1331" d="M102 479v185h1127v-185h-1127z" />
<glyph unicode="&#x2018;" horiz-adv-x="372" d="M61 1331h230v-512h-113z" />
<glyph unicode="&#x2019;" horiz-adv-x="372" d="M82 819v512h229l-116 -512h-113z" />
<glyph unicode="&#x201a;" horiz-adv-x="413" d="M102 256h230l-117 -512h-113v512z" />
<glyph unicode="&#x201c;" horiz-adv-x="704" d="M82 1331h229v-512h-112zM373 1331h229v-512h-113z" />
<glyph unicode="&#x201d;" horiz-adv-x="704" d="M102 819v512h230l-117 -512h-113zM393 819v512h230l-117 -512h-113z" />
<glyph unicode="&#x201e;" horiz-adv-x="704" d="M102 256h230l-117 -512h-113v512zM393 256h230l-117 -512h-113v512z" />
<glyph unicode="&#x2022;" horiz-adv-x="892" d="M109.5 450.5q-9.5 67.5 9.5 172.5l16 86q18 104 51 171.5t82 106.5t119 53.5t162 14.5t156.5 -14.5t101.5 -53.5t46 -106.5t-9 -171.5l-17 -86q-18 -104 -51 -172t-83 -107t-119.5 -53.5t-161.5 -14.5t-157 14.5t-100.5 53.5t-45 106.5z" />
<glyph unicode="&#x202f;" horiz-adv-x="353" />
<glyph unicode="&#x2039;" horiz-adv-x="702" d="M111 512l366 389h199l-369 -389l232 -389h-199z" />
<glyph unicode="&#x203a;" horiz-adv-x="702" d="M41 123l371 389l-234 389h199l231 -389l-368 -389h-199z" />
<glyph unicode="&#x205f;" horiz-adv-x="441" />
<glyph unicode="&#x20ac;" horiz-adv-x="1226" d="M82 492v110h121v125h-121v111h121v39q0 258 112.5 367.5t354.5 109.5q238 0 346 -100.5t108 -325.5h-225q0 123 -53 178t-176 55q-127 0 -184.5 -56t-57.5 -206v-61h350l-18 -111h-332v-125h309l-16 -110h-293v-60q0 -150 57.5 -206t184.5 -56q123 0 176 52t53 181h225 q0 -225 -108.5 -325.5t-345.5 -100.5q-121 0 -209 27t-145.5 83t-85 147.5t-27.5 220.5v37h-121z" />
<glyph unicode="&#x2122;" horiz-adv-x="1144" d="M215 1245l14 86h361l-15 -86h-133l-80 -446h-94l80 446h-133zM563 799l94 532h140l59 -399l199 399h139l-94 -532h-94l73 413l-209 -413h-77l-62 413l-74 -413h-94z" />
<glyph unicode="&#x25fc;" horiz-adv-x="1024" d="M0 0v1024h1024v-1024h-1024z" />
</font>
</defs>
</svg>
