<?xml version="1.0" standalone="no"?>
<!DOCTYPE svg PUBLIC "-//W3C//DTD SVG 1.1//EN" "http://www.w3.org/Graphics/SVG/1.1/DTD/svg11.dtd" >
<svg xmlns="http://www.w3.org/2000/svg">
<metadata></metadata>
<defs>
<font id="breuertextbold" horiz-adv-x="1165" >
<font-face units-per-em="2048" ascent="1638" descent="-410" />
<missing-glyph horiz-adv-x="368" />
<glyph horiz-adv-x="0" />
<glyph unicode="&#xd;" horiz-adv-x="368" />
<glyph unicode=" "  horiz-adv-x="368" />
<glyph unicode="&#x09;" horiz-adv-x="368" />
<glyph unicode="&#xa0;" horiz-adv-x="368" />
<glyph unicode="!" horiz-adv-x="565" d="M113 1331h340l-68 -887h-205zM133 0v299h299v-299h-299z" />
<glyph unicode="&#x22;" horiz-adv-x="757" d="M82 1331h274l-77 -594h-123q-16 147 -37 297t-37 297zM410 1331h274l-78 -594h-123q-16 147 -36.5 297t-36.5 297z" />
<glyph unicode="#" horiz-adv-x="1146" d="M57 319l15 160h192l33 375h-193l15 160h192l27 317h184l-28 -317h217l28 317h187l-29 -317h193l-15 -160h-192l-33 -375h192l-14 -160h-192l-27 -319h-186l26 319h-217l-26 -319h-185l29 319h-193zM446 479h218l32 375h-217z" />
<glyph unicode="$" horiz-adv-x="1046" d="M82 485h283q0 -72 35.5 -96t125.5 -24q86 0 121 23.5t35 72.5q0 33 -7 55.5t-28.5 36.5t-61.5 22.5t-108 14.5q-117 8 -191.5 30.5t-117.5 59.5t-59.5 90t-16.5 123q0 141 83 219t241 94v166h217v-166q170 -16 242.5 -96t72.5 -248h-282q0 20 -2 42t-16.5 40.5 t-45.5 30.5t-86 12q-90 0 -115.5 -29.5t-25.5 -72.5q0 -29 6 -48.5t23.5 -32.5t49 -21.5t83.5 -12.5q137 -12 221 -31.5t130 -55.5t61.5 -89t15.5 -133q0 -53 -8.5 -106.5t-41 -96.5t-99 -73.5t-183.5 -41.5v-184h-217v184q-96 8 -161 34t-102.5 69t-54 102.5t-16.5 136.5z " />
<glyph unicode="%" horiz-adv-x="1335" d="M82 1059q0 168 69.5 232.5t217.5 64.5q147 0 216.5 -64.5t69.5 -232.5q0 -84 -17 -141.5t-53 -92t-89 -49t-127 -14.5t-127.5 14.5t-89 49t-53 92t-17.5 141.5zM139 0l875 1331h182l-874 -1331h-183zM256 1059q0 -94 27 -125t86 -31t85.5 31t26.5 125t-26.5 124.5 t-85.5 30.5t-86 -30.5t-27 -124.5zM680 272q0 168 71 232.5t216 64.5t215.5 -64.5t70.5 -232.5t-69.5 -232.5t-216.5 -64.5t-217 64.5t-70 232.5zM854 272q0 -94 26.5 -124.5t86.5 -30.5q59 0 85.5 30.5t26.5 124.5t-26.5 125t-85.5 31t-86 -30.5t-27 -125.5z" />
<glyph unicode="&#x26;" horiz-adv-x="1245" d="M80 358q0 123 60.5 203t164.5 123q-195 98 -194 297q0 188 105.5 281.5t328.5 93.5q119 0 202.5 -19.5t138 -64.5t79 -120t24.5 -183h-287q0 92 -38.5 122.5t-118.5 30.5q-78 0 -114 -34.5t-36 -120.5q0 -178 148 -179h610v-225h-129v-198q0 -78 36 -105t103 -27v-233 q-100 0 -171.5 21.5t-114.5 89.5q-49 -61 -135.5 -98.5t-192.5 -37.5q-246 0 -357.5 90.5t-111.5 292.5zM369 385q0 -104 49 -140t137 -36q86 0 134 43t48 147v164h-205q-72 0 -117.5 -42t-45.5 -136z" />
<glyph unicode="'" horiz-adv-x="436" d="M82 1331h274l-77 -594h-123q-16 147 -37 297t-37 297z" />
<glyph unicode="(" horiz-adv-x="659" d="M92 584q0 238 80 450.5t227 378.5h199q-131 -158 -209 -369.5t-78 -459.5t78 -460t209 -370h-199q-147 166 -227 379t-80 451z" />
<glyph unicode=")" horiz-adv-x="659" d="M61 -246q131 158 209 370t78 460t-77.5 459.5t-209.5 369.5h199q147 -166 227 -379t80 -450q0 -238 -79.5 -451t-227.5 -379h-199z" />
<glyph unicode="*" horiz-adv-x="1089" d="M82 924l94 290l322 -215l-107 373h307l-106 -373l321 215l95 -290l-387 -15l305 -239l-246 -178l-135 362l-135 -362l-246 178l305 239z" />
<glyph unicode="+" horiz-adv-x="1048" d="M102 463v201h322v323h201v-323h321v-201h-321v-324h-201v324h-322z" />
<glyph unicode="," horiz-adv-x="462" d="M82 -217v516h299l-123 -516h-176z" />
<glyph unicode="-" horiz-adv-x="716" d="M102 446v234h512v-234h-512z" />
<glyph unicode="." horiz-adv-x="462" d="M82 0v299h299v-299h-299z" />
<glyph unicode="/" horiz-adv-x="702" d="M61 -82l355 1495h225l-352 -1495h-228z" />
<glyph unicode="0" horiz-adv-x="1134" d="M82 432v471q0 244 117.5 348.5t367.5 104.5q248 0 367 -104.5t119 -348.5v-471q0 -244 -120 -350.5t-366 -106.5t-365.5 106.5t-119.5 350.5zM369 414q0 -117 40.5 -161t157.5 -44t158 44t41 161v497q0 66 -10.5 107t-34 64.5t-61 31.5t-93.5 8q-55 0 -93 -8t-61.5 -31.5 t-33.5 -64.5t-10 -107v-497z" />
<glyph unicode="1" horiz-adv-x="792" d="M102 1098v127l322 106h184v-1331h-286v1098h-220z" />
<glyph unicode="2" horiz-adv-x="1105" d="M82 0v182q0 141 49 230.5t122 146.5t158 94t157.5 73t121.5 80t49 120q0 94 -37.5 145t-142.5 51q-98 0 -144 -43t-46 -151h-283q0 117 32 198.5t92 133t148 74t201 22.5q135 0 224 -31t143.5 -86t77 -133t22.5 -174q0 -115 -48 -187.5t-119 -123t-154.5 -85 t-154.5 -74.5t-119 -92.5t-48 -136.5h651v-233h-952z" />
<glyph unicode="3" horiz-adv-x="1132" d="M82 401h287q0 -98 49 -145t153 -47q115 0 159 48t44 136q0 61 -20.5 95t-50 51.5t-64.5 20.5t-64 3h-124v225h110q41 0 76 6.5t59.5 24t38 51t13.5 88.5q0 74 -36 119t-147 45q-104 0 -148 -44t-44 -150h-281q0 217 111.5 322.5t361.5 105.5q137 0 227.5 -29t144.5 -81 t75.5 -123.5t21.5 -157.5q0 -207 -207 -281q233 -68 234 -305q0 -90 -19.5 -164t-73 -127t-148.5 -83t-249 -30q-262 0 -375.5 104.5t-113.5 321.5z" />
<glyph unicode="4" horiz-adv-x="1148" d="M51 266v228l533 837h358v-831h145v-234h-145v-266h-287v266h-604zM299 500h356v577z" />
<glyph unicode="5" horiz-adv-x="1103" d="M61 401h287q0 -104 49 -148t154 -44q104 0 149 53t45 187q0 66 -9 108.5t-32.5 68t-60.5 36t-92 10.5q-39 0 -88 -18.5t-74 -41.5h-285l64 719h795v-233h-551l-23 -293q55 29 117.5 46t120.5 17q94 0 168.5 -18.5t127 -65.5t81 -129t28.5 -206q0 -113 -23.5 -201 t-80 -148.5t-148.5 -92.5t-229 -32q-262 0 -376 104.5t-114 321.5z" />
<glyph unicode="6" horiz-adv-x="1126" d="M82 416v512q0 217 113.5 322.5t355.5 105.5q256 0 365.5 -102.5t109.5 -301.5h-287q0 86 -42 128t-146 42q-86 0 -134 -37.5t-48 -148.5v-191q63 37 124.5 53.5t151.5 16.5q221 0 310 -100.5t89 -296.5q0 -94 -21.5 -175t-76.5 -140.5t-148 -93.5t-235 -34 q-145 0 -239.5 35t-147.5 95.5t-73.5 140.5t-20.5 170zM369 430q0 -53 8 -94t29.5 -69.5t57.5 -43t93 -14.5q63 0 103 14.5t61.5 41t29 64.5t7.5 87q0 113 -39 161t-150 48q-63 0 -114.5 -18.5t-85.5 -51.5v-125z" />
<glyph unicode="7" horiz-adv-x="970" d="M41 1098v233h889v-201l-432 -1130h-299l434 1098h-592z" />
<glyph unicode="8" horiz-adv-x="1124" d="M61 352q0 141 68 219t166 113q-98 41 -149.5 113.5t-51.5 189.5q0 197 117 283t352 86q227 0 347 -85t120 -278q0 -117 -50 -191.5t-149 -117.5q47 -18 89.5 -46t74 -68t50 -94t18.5 -124q0 -203 -123 -290t-377 -87t-378 87.5t-124 289.5zM354 383q0 -94 52.5 -134 t156.5 -40t156.5 40t52.5 134q0 59 -15.5 96t-43 57.5t-65.5 27.5t-85 7t-85 -7t-65.5 -27.5t-43 -57.5t-15.5 -96zM377 950q0 -51 15.5 -83.5t41 -52t59 -27t70.5 -7.5t71 7.5t59.5 27t41 52t15.5 83.5q0 98 -44 135t-143 37q-98 0 -142 -36.5t-44 -135.5z" />
<glyph unicode="9" horiz-adv-x="1126" d="M82 920q0 94 21.5 174t77 138t148.5 91t234 33q145 0 238.5 -35t148 -95.5t74.5 -140t20 -170.5v-512q0 -217 -112.5 -322.5t-353.5 -105.5q-133 0 -224.5 25t-149 76t-82 127t-24.5 178h287q0 -86 44 -129t149 -43q86 0 133 38t47 148v197q-33 -18 -62.5 -31.5 t-62.5 -22t-70 -12.5t-82 -4q-221 0 -310 100.5t-89 297.5zM369 915q0 -113 38.5 -157.5t149.5 -44.5q63 0 114.5 18.5t86.5 50.5v119q0 106 -38 163.5t-151 57.5q-63 0 -103 -14t-61.5 -41t-28.5 -64.5t-7 -87.5z" />
<glyph unicode=":" horiz-adv-x="462" d="M82 0v299h299v-299h-299zM82 561v299h299v-299h-299z" />
<glyph unicode=";" horiz-adv-x="462" d="M82 -217v516h299l-123 -516h-176zM82 561v299h299v-299h-299z" />
<glyph unicode="&#x3c;" horiz-adv-x="747" d="M61 666l400 747h225l-405 -747l405 -748h-225z" />
<glyph unicode="=" horiz-adv-x="1048" d="M102 258v201h844v-201h-844zM102 668v200h844v-200h-844z" />
<glyph unicode="&#x3e;" horiz-adv-x="747" d="M61 -82l406 748l-406 747h226l399 -747l-399 -748h-226z" />
<glyph unicode="?" horiz-adv-x="1085" d="M82 950q0 211 107.5 308.5t351.5 97.5q246 0 354.5 -97.5t108.5 -302.5q0 -109 -24 -183.5t-70 -122.5t-111.5 -73.5t-149.5 -35.5l-16 -140h-182l-35 338q98 0 157.5 9.5t91 34t42 66.5t10.5 107q0 51 -13.5 83t-38 49.5t-56 23.5t-68.5 6t-70 -6t-56.5 -24.5t-36.5 -51 t-13 -86.5h-283zM391 0v299h299v-299h-299z" />
<glyph unicode="@" horiz-adv-x="1617" d="M123 348v299q0 135 41 243.5t125 184.5t213 117t307 41q176 0 305 -41t214 -117t126 -184.5t41 -243.5v-299q0 -135 -41 -243.5t-126 -184.5t-214 -117t-305 -41q-174 0 -303 41t-214 117t-127 184.5t-42 243.5zM315 356q0 -211 121 -312t373 -101t373 101t121 312v283 q0 211 -121 312.5t-373 101.5t-373 -101.5t-121 -312.5v-283zM473 346q0 96 58.5 148.5t181.5 62.5l202 14v72q0 49 -25.5 71.5t-84.5 22.5q-63 0 -87 -24.5t-24 -71.5h-192q0 123 72.5 186.5t230.5 63.5q166 0 236.5 -61.5t70.5 -186.5v-489h-143l-33 61q-102 -80 -221 -80 t-180.5 56.5t-61.5 154.5zM672 367q0 -37 23.5 -56.5t58.5 -19.5q47 0 88 15.5t73 43.5v117l-163 -18q-45 -4 -62.5 -26t-17.5 -56z" />
<glyph unicode="A" horiz-adv-x="1099" d="M20 0l347 1331h362l350 -1331h-297l-55 254h-358l-54 -254h-295zM422 483h252l-123 600h-4z" />
<glyph unicode="B" horiz-adv-x="1142" d="M123 0v1331h477q127 0 210 -20.5t131 -62.5t67.5 -106.5t19.5 -154.5q0 -111 -42 -183.5t-107 -107.5q192 -76 192 -318q-1 -88 -25 -158t-77.5 -118.5t-137 -75t-204.5 -26.5h-504zM410 233h208q82 0 123 36t41 128q0 100 -47 133t-123 33h-202v-330zM410 788h180 q82 0 117.5 35t35.5 121q0 74 -34.5 114t-116.5 40h-182v-310z" />
<glyph unicode="C" horiz-adv-x="1122" d="M92 453v426q0 254 120 365.5t359 111.5q248 0 358.5 -105.5t110.5 -339.5h-282q0 113 -44 162t-143 49q-94 0 -143 -45t-49 -155v-512q0 -111 50 -156t142 -45q98 0 142.5 47t44.5 166h282q0 -233 -110.5 -340t-358.5 -107t-363.5 115t-115.5 363z" />
<glyph unicode="D" horiz-adv-x="1171" d="M123 0v1331h455q125 0 219 -18.5t156.5 -70.5t94 -144t31.5 -238v-385q0 -145 -31.5 -238.5t-94 -145.5t-157 -71.5t-218.5 -19.5h-455zM410 233h161q68 0 111 14.5t67.5 43t34 69.5t9.5 95v438q0 74 -14.5 116t-42 61.5t-68.5 23.5t-97 4h-161v-865z" />
<glyph unicode="E" horiz-adv-x="1030" d="M123 0v1331h815v-233h-528v-310h458v-225h-458v-330h528v-233h-815z" />
<glyph unicode="F" horiz-adv-x="958" d="M123 0v1331h774v-233h-487v-310h415v-225h-415v-563h-287z" />
<glyph unicode="G" horiz-adv-x="1167" d="M92 453v424q0 252 122 365.5t357 113.5q248 0 360.5 -105.5t112.5 -339.5h-286q0 104 -44 157.5t-143 53.5q-94 0 -143 -45t-49 -155v-512q0 -117 52 -159t151 -42q98 0 147 47t49 168v139h-211v225h498v-788h-139l-47 88q-59 -57 -132.5 -85t-175.5 -28 q-248 0 -363.5 114t-115.5 364z" />
<glyph unicode="H" horiz-adv-x="1185" d="M123 0v1331h287v-543h366v543h287v-1331h-287v563h-366v-563h-287z" />
<glyph unicode="I" horiz-adv-x="532" d="M123 0v1331h287v-1331h-287z" />
<glyph unicode="J" horiz-adv-x="737" d="M51 0v233q27 -8 74 -16t86 -8q72 0 94.5 27.5t22.5 91.5v770h-195v233h481v-999q0 -88 -11 -154.5t-49 -112t-109.5 -68t-194.5 -22.5q-51 0 -101.5 7.5t-97.5 17.5z" />
<glyph unicode="K" horiz-adv-x="1071" d="M123 0v1331h287v-545l311 545h330l-410 -643l420 -688h-328l-323 565v-565h-287z" />
<glyph unicode="L" horiz-adv-x="856" d="M123 0v1331h287v-1098h405v-233h-692z" />
<glyph unicode="M" horiz-adv-x="1492" d="M123 0v1331h399l221 -944h7l221 944h399v-1331h-278v616l16 408l-252 -1024h-219l-252 1024l16 -410v-614h-278z" />
<glyph unicode="N" horiz-adv-x="1196" d="M123 0v1331h330l360 -928l-10 377v551h270v-1331h-330l-360 928l10 -367v-561h-270z" />
<glyph unicode="O" d="M92 430v471q0 231 116 343t374 112t374.5 -110.5t116.5 -344.5v-471q0 -231 -116.5 -343t-374.5 -112t-374 112t-116 343zM379 422q0 -111 48 -162t155 -51q109 0 156.5 51t47.5 162v487q0 111 -48 162t-156 51q-104 0 -153.5 -50t-49.5 -161v-489z" />
<glyph unicode="P" horiz-adv-x="1126" d="M123 0v1331h457q119 0 208 -17.5t148 -65.5t89 -132t30 -219q0 -127 -29 -210t-87 -132t-147.5 -68.5t-207.5 -19.5h-174v-467h-287zM410 692h170q98 0 143 41t45 162q0 117 -44 160t-142 43h-172v-406z" />
<glyph unicode="Q" d="M92 430v471q0 231 116 343t374 112t374.5 -110.5t116.5 -344.5v-471q0 -199 -86 -311.5t-278 -136.5q12 -47 40.5 -59.5t67.5 -12.5h103l-54 -131h-139q-111 0 -177.5 46t-88.5 157q-195 23 -282 133t-87 315zM379 422q0 -111 48 -162t155 -51q109 0 156.5 51t47.5 162 v487q0 111 -48 162t-156 51q-104 0 -153.5 -50t-49.5 -161v-489z" />
<glyph unicode="R" horiz-adv-x="1146" d="M123 0v1331h457q121 0 211 -17.5t149 -65.5t88 -132t29 -219q0 -166 -53.5 -260t-161.5 -135l243 -502h-307l-213 467h-155v-467h-287zM410 692h170q98 0 143 41t45 162q0 117 -44 160t-142 43h-172v-406z" />
<glyph unicode="S" horiz-adv-x="1140" d="M72 397h286q0 -104 48.5 -146t154.5 -42q111 0 156 41t45 145q0 39 -10.5 65.5t-39 47t-81.5 36t-142 31.5q-98 16 -172.5 44t-126 73t-77 112.5t-25.5 166.5q0 178 113.5 281.5t357.5 103.5q125 0 214 -21.5t146.5 -68.5t83 -122t25.5 -181h-287q0 86 -43 122.5 t-141 36.5t-138 -39t-40 -114q0 -45 10 -77t37 -55.5t74 -39t123 -27.5q125 -20 206.5 -49t131 -72t69 -104.5t19.5 -145.5q0 -119 -34 -199.5t-97.5 -131t-153.5 -72t-203 -21.5q-131 0 -223 24t-151.5 75t-87 131t-27.5 192z" />
<glyph unicode="T" horiz-adv-x="937" d="M31 1098v233h876v-233h-295v-1098h-286v1098h-295z" />
<glyph unicode="U" horiz-adv-x="1177" d="M113 426v905h286v-919q0 -106 43 -153.5t148 -47.5q104 0 146 47t42 154v919h287v-905q0 -129 -30.5 -215t-90 -138.5t-148.5 -74t-206 -21.5t-207 21.5t-149.5 74t-90 138.5t-30.5 215z" />
<glyph unicode="V" horiz-adv-x="1101" d="M20 1331h295l234 -1075h4l233 1075h295l-350 -1331h-360z" />
<glyph unicode="W" horiz-adv-x="1677" d="M51 1331h289l156 -1083h4l166 1083h348l164 -1083h4l157 1083h287l-244 -1331h-387l-155 1079l-156 -1079h-387z" />
<glyph unicode="X" horiz-adv-x="1046" d="M10 0q88 172 177 343t180 343l-349 645h320l184 -444h2l185 444h319l-348 -645q90 -172 179 -343t177 -343h-317q-47 117 -97.5 242t-97.5 241q-51 -117 -100 -241.5t-96 -241.5h-318z" />
<glyph unicode="Y" horiz-adv-x="1081" d="M20 1331h310l209 -583h4l209 583h309l-377 -842v-489h-287v489z" />
<glyph unicode="Z" horiz-adv-x="1038" d="M82 0v203l536 895h-516v233h844v-203l-540 -895h561v-233h-885z" />
<glyph unicode="[" horiz-adv-x="638" d="M123 -246v1659h414v-141h-218v-1376h218v-142h-414z" />
<glyph unicode="\" horiz-adv-x="681" d="M61 1413h205l355 -1495h-207z" />
<glyph unicode="]" horiz-adv-x="638" d="M102 -104h217v1376h-217v141h414v-1659h-414v142z" />
<glyph unicode="a" horiz-adv-x="1075" d="M72 279q0 135 75.5 212.5t258.5 90.5l288 20v90q0 72 -33.5 101.5t-121.5 29.5q-90 0 -123 -31.5t-33 -101.5h-274q0 176 98 267.5t330 91.5q238 0 337 -88.5t99 -268.5v-692h-203l-47 88q-139 -113 -313 -113q-172 0 -255 81.5t-83 222.5zM350 305q0 -53 32 -78.5 t83 -25.5q68 0 125 21.5t104 62.5v159l-233 -26q-111 -12 -111 -113z" />
<glyph unicode="b" horiz-adv-x="1103" d="M113 0v1372h278v-411q76 47 140.5 67.5t125.5 20.5q82 0 149.5 -17.5t115 -63.5t74 -130t26.5 -215v-222q0 -133 -27.5 -216t-76 -130t-115 -63.5t-144.5 -16.5q-61 0 -134.5 24t-162.5 89l-47 -88h-202zM391 287q39 -37 92.5 -61.5t118.5 -24.5q72 0 106.5 35.5 t34.5 146.5v258q0 111 -34.5 146.5t-106.5 35.5q-66 0 -119 -24.5t-92 -61.5v-450z" />
<glyph unicode="c" horiz-adv-x="1058" d="M82 449v126q0 137 28.5 229.5t86 146t143.5 76t201 22.5q104 0 185 -18.5t137.5 -62.5t85 -120t28.5 -193h-275q0 53 -10 86t-30.5 51.5t-51 24.5t-69.5 6q-53 0 -88 -12t-55.5 -39t-29 -70t-8.5 -106v-168q0 -68 9.5 -111t31 -69.5t55 -36.5t85.5 -10q82 0 121.5 32.5 t39.5 135.5h275q0 -115 -29.5 -191t-86 -121t-137.5 -63.5t-183 -18.5q-117 0 -203 22.5t-142.5 78t-85 146.5t-28.5 227z" />
<glyph unicode="d" horiz-adv-x="1103" d="M82 401v222q0 131 26.5 215t73.5 130t115 63.5t149 17.5q61 0 126 -20.5t141 -67.5v411h278v-1372h-203l-47 88q-88 -66 -161.5 -89.5t-135.5 -23.5q-78 0 -144.5 16.5t-114.5 63.5t-75.5 130t-27.5 216zM360 383q0 -111 35 -146.5t107 -35.5q66 0 119 24.5t92 61.5v450 q-39 37 -92.5 61.5t-118.5 24.5q-72 0 -107 -35.5t-35 -146.5v-258z" />
<glyph unicode="e" horiz-adv-x="1052" d="M82 451v124q0 137 28.5 229.5t86 146t143.5 76t201 22.5q109 0 191.5 -21.5t138 -76t83 -145.5t27.5 -233v-153h-621q0 -106 35 -162.5t146 -56.5q70 0 122 2t96 7t85 11t90 15v-224q-88 -16 -185.5 -26.5t-205.5 -10.5q-115 0 -201 21.5t-143.5 76t-87 145.5t-29.5 233z M360 604h347q0 68 -10.5 111t-32 66.5t-53 32.5t-72.5 9q-104 0 -141.5 -49t-37.5 -170z" />
<glyph unicode="f" horiz-adv-x="681" d="M41 799v198l131 27v104q0 82 17.5 137.5t52 88t87 46t122.5 13.5q55 0 105 -6t85 -16v-213q-20 4 -51 7t-60 3q-43 0 -61 -18.5t-18 -67.5v-78h151v-225h-151v-799h-279v799h-131z" />
<glyph unicode="g" horiz-adv-x="1103" d="M82 426v197q0 133 27.5 216t75.5 130t115 63.5t144 16.5q61 0 135 -24t162 -89l47 88h203v-1030q0 -201 -108.5 -284t-341.5 -83q-31 0 -72 2t-86 7.5t-89 12.5t-83 17v230q162 -43 326 -43q92 0 134 31.5t42 109.5v94q-76 -47 -140.5 -67.5t-126.5 -20.5 q-82 0 -149.5 17.5t-114.5 63.5t-73.5 129t-26.5 216zM360 428q0 -115 33 -159t113 -44q57 0 111.5 18.5t95.5 47.5v467q-39 29 -94.5 47t-112.5 18q-80 0 -113 -44t-33 -158v-193z" />
<glyph unicode="h" horiz-adv-x="1095" d="M113 0v1372h278v-416q78 53 146.5 73t150.5 20t139.5 -18.5t94 -60.5t54 -112t17.5 -172v-686h-278v678q0 86 -28 115.5t-101 29.5q-47 0 -100.5 -22.5t-94.5 -63.5v-737h-278z" />
<glyph unicode="i" horiz-adv-x="503" d="M113 0v1024h278v-1024h-278zM113 1114v258h278v-258h-278z" />
<glyph unicode="j" horiz-adv-x="503" d="M-78 -131q20 -4 51 -7t60 -3q43 0 61.5 18.5t18.5 67.5v1079h278v-1106q0 -164 -70.5 -227.5t-207.5 -63.5q-55 0 -105.5 6.5t-85.5 16.5v219zM113 1114v258h278v-258h-278z" />
<glyph unicode="k" horiz-adv-x="1013" d="M113 0v1372h278v-743h4l262 395h320l-344 -475l360 -549h-329l-269 459h-4v-459h-278z" />
<glyph unicode="l" horiz-adv-x="503" d="M113 0v1372h278v-1372h-278z" />
<glyph unicode="m" horiz-adv-x="1583" d="M113 0v1024h196l45 -76q68 47 133.5 74t149.5 27q94 0 149.5 -21.5t102.5 -77.5q61 39 135 69t162 30q86 0 143 -18.5t91 -62.5t47.5 -116t13.5 -178v-674h-279v676q0 90 -25.5 118.5t-89.5 28.5q-29 0 -73.5 -15t-77.5 -38v-770h-279v676q0 90 -25.5 118.5t-88.5 28.5 q-29 0 -74 -15t-78 -38v-770h-278z" />
<glyph unicode="n" horiz-adv-x="1099" d="M113 0v1024h202l47 -88q88 66 162 89.5t164 23.5q82 0 140.5 -18.5t96.5 -60.5t55 -112t17 -172v-686h-278v678q0 86 -27.5 115.5t-101.5 29.5q-47 0 -102.5 -22.5t-96.5 -63.5v-737h-278z" />
<glyph unicode="o" horiz-adv-x="1079" d="M82 449v126q0 137 28.5 228.5t87 146t143.5 77t200 22.5q113 0 197.5 -22.5t142 -77t87 -145.5t29.5 -229v-126q0 -139 -28.5 -230.5t-86 -145t-143.5 -76t-198 -22.5q-115 0 -201 22.5t-143.5 76t-86 144.5t-28.5 231zM360 428q0 -135 41 -181t140 -46q49 0 82.5 10 t55 35.5t31 69.5t9.5 112v168q0 68 -9.5 112t-31 69.5t-55 35.5t-82.5 10q-98 0 -139.5 -46t-41.5 -181v-168z" />
<glyph unicode="p" horiz-adv-x="1103" d="M113 -348v1372h202l47 -88q88 66 162 89.5t135 23.5q78 0 144.5 -16.5t115 -63.5t76 -130t27.5 -216v-222q0 -133 -26.5 -216t-74 -129t-115 -63.5t-149.5 -17.5q-61 0 -125.5 20.5t-140.5 67.5v-411h-278zM391 287q39 -37 92.5 -61.5t118.5 -24.5q72 0 106.5 35.5 t34.5 146.5v258q0 111 -34.5 146.5t-106.5 35.5q-66 0 -119 -24.5t-92 -61.5v-450z" />
<glyph unicode="q" horiz-adv-x="1103" d="M82 401v222q0 133 27.5 216t75.5 130t115 63.5t144 16.5q61 0 135 -24t162 -89l47 88h203v-1372h-278v411q-76 -47 -140.5 -67.5t-126.5 -20.5q-82 0 -149.5 17.5t-114.5 63.5t-73.5 129t-26.5 216zM360 383q0 -111 35 -146.5t107 -35.5q66 0 119 24.5t92 61.5v450 q-39 37 -92.5 61.5t-118.5 24.5q-72 0 -107 -35.5t-35 -146.5v-258z" />
<glyph unicode="r" horiz-adv-x="694" d="M113 0v1024h196l45 -76q66 51 138.5 76t150.5 25v-246q-72 0 -138.5 -20.5t-113.5 -57.5v-725h-278z" />
<glyph unicode="s" horiz-adv-x="1026" d="M72 322h278q0 -72 38 -96.5t128 -24.5q86 0 123 23.5t37 72.5q0 33 -7 55.5t-30 36.5t-63.5 22.5t-108.5 14.5q-117 8 -191.5 30.5t-117.5 59.5t-59.5 90t-16.5 123q0 162 109.5 241t314.5 79q119 0 200.5 -18.5t133 -59.5t74 -107.5t22.5 -165.5h-279q0 20 -3 42 t-17 40.5t-45 30.5t-86 12q-90 0 -118 -29.5t-28 -72.5q0 -55 32 -81t134 -34q137 -12 221 -31.5t130.5 -55.5t61.5 -89t15 -133q0 -59 -10 -116.5t-53 -103.5t-131 -74t-244 -28q-129 0 -215 21.5t-136 64.5t-71.5 107.5t-21.5 153.5z" />
<glyph unicode="t" horiz-adv-x="702" d="M41 799v198l131 27v231l279 56v-287h190v-225h-190v-512q0 -49 18 -67.5t61 -18.5q29 0 60 3t51 7v-211q-35 -10 -85 -17.5t-105 -7.5q-70 0 -122.5 13.5t-87 46.5t-52 88t-17.5 137v539h-131z" />
<glyph unicode="u" horiz-adv-x="1105" d="M113 338v686h278v-678q0 -86 27.5 -115.5t101.5 -29.5q47 0 100.5 22.5t94.5 63.5v737h278v-1024h-202l-48 88q-88 -66 -161.5 -89.5t-163.5 -23.5q-82 0 -139.5 18.5t-94.5 60.5t-54 112t-17 172z" />
<glyph unicode="v" horiz-adv-x="1011" d="M20 1024h299l185 -745h4l184 745h299l-325 -1024h-320z" />
<glyph unicode="w" horiz-adv-x="1523" d="M41 1024h289l129 -752l151 752h305l150 -756h4l125 756h289l-246 -1024h-336l-139 758l-137 -758h-336z" />
<glyph unicode="x" horiz-adv-x="997" d="M20 0l328 518l-317 506h311l156 -299h2l155 299h312l-318 -506l328 -518h-320l-157 309h-2l-158 -309h-320z" />
<glyph unicode="y" horiz-adv-x="1015" d="M20 1024h299l193 -682h4l178 682h301l-383 -1143q-23 -70 -53.5 -118t-75.5 -78.5t-109.5 -44t-154.5 -13.5q-27 0 -72 5.5t-73 15.5v223q31 -10 66.5 -14t68.5 -4q72 0 103.5 25.5t56.5 90.5l12 35z" />
<glyph unicode="z" horiz-adv-x="962" d="M72 0v197l473 602h-453v225h791v-197l-473 -602h491v-225h-829z" />
<glyph unicode="{" horiz-adv-x="786" d="M82 512v143h131q45 0 62.5 18.5t17.5 65.5v420q0 76 16.5 126t50 78t87 39t128.5 11h130v-141h-130q-47 0 -66.5 -21.5t-19.5 -68.5v-373q0 -86 -19.5 -140t-72.5 -85q53 -31 72.5 -85.5t19.5 -140.5v-372q0 -47 19.5 -68.5t66.5 -21.5h130v-142h-130q-76 0 -129 11.5 t-86.5 39t-50 76.5t-16.5 127v420q0 47 -17.5 65.5t-62.5 18.5h-131z" />
<glyph unicode="|" horiz-adv-x="491" d="M143 -246v1659h205v-1659h-205z" />
<glyph unicode="}" horiz-adv-x="786" d="M82 -104h129q47 0 66.5 21.5t19.5 68.5v372q0 86 19.5 140.5t72.5 85.5q-53 31 -72.5 85t-19.5 140v373q0 47 -19.5 68.5t-66.5 21.5h-129v141h129q76 0 129 -11t87 -39t50.5 -78t16.5 -126v-420q0 -47 17 -65.5t62 -18.5h132v-143h-132q-45 0 -62 -18.5t-17 -65.5v-420 q0 -78 -16.5 -127t-50.5 -76.5t-87 -39t-129 -11.5h-129v142z" />
<glyph unicode="&#xa1;" horiz-adv-x="565" d="M113 -307l67 887h205l68 -887h-340zM133 725v299h299v-299h-299z" />
<glyph unicode="&#xa2;" horiz-adv-x="1089" d="M94 602v127q0 123 22.5 208t67.5 140.5t113 83t158 37.5v174h217v-176q78 -10 138 -33.5t102 -69.5t63.5 -116t21.5 -168h-278q0 53 -10.5 86t-31 51.5t-51 24.5t-69.5 6q-53 0 -88 -12.5t-55.5 -39t-28.5 -69.5t-8 -106v-168q0 -68 9 -111t30.5 -69.5t55.5 -37t85 -10.5 q82 0 122 33t40 135h278q0 -98 -22.5 -167.5t-64.5 -114.5t-102 -71t-136 -34v-176h-217v174q-90 8 -158 38t-113 86t-67.5 140t-22.5 205z" />
<glyph unicode="&#xa3;" horiz-adv-x="1150" d="M106 0v233q113 0 162 41t49 150q0 31 -9 68.5t-19 68.5h-183v168h130q-23 53 -42.5 126t-19.5 142q0 178 102.5 268.5t317.5 90.5q106 0 185 -18.5t131.5 -61.5t79 -114.5t26.5 -178.5h-287q0 70 -28.5 104.5t-102.5 34.5q-72 0 -102.5 -32.5t-30.5 -104.5 q0 -70 16.5 -132t26.5 -124h223v-168h-199q4 -27 8.5 -52.5t4.5 -49.5q0 -78 -19.5 -131.5t-64.5 -94.5h207q78 0 106.5 32t28.5 118h287q0 -106 -18.5 -179t-60.5 -118t-109.5 -65.5t-168.5 -20.5h-627z" />
<glyph unicode="&#xa4;" horiz-adv-x="1196" d="M33 150l151 176q-29 53 -39 123.5t-10 162.5v105q0 88 13.5 157.5t37.5 122.5q-41 45 -76.5 90.5t-76.5 90.5l141 118q35 -39 67.5 -78.5t67.5 -78.5q55 35 127 49t162 14q88 0 158.5 -14t130.5 -49q35 39 67.5 78.5t67.5 78.5l137 -118l-151 -177q25 -53 39 -122.5 t14 -161.5v-105q0 -182 -53 -286q39 -41 75.5 -86t75.5 -86q-37 -33 -72.5 -62t-72.5 -61l-133 151q-55 -29 -125 -41t-158 -12q-90 0 -160.5 12.5t-126.5 44.5l-133 -155zM418 612q0 -74 9 -123t29.5 -76.5t55.5 -39t86 -11.5t86 11.5t55.5 39t29.5 77t9 122.5v105 q0 76 -9 124t-29.5 76.5t-55.5 40t-86 11.5t-86 -11.5t-55.5 -40t-29.5 -76.5t-9 -124v-105z" />
<glyph unicode="&#xa5;" horiz-adv-x="1110" d="M35 1331h309l209 -583h4l209 583h309l-364 -815h229v-123h-242v-108h242v-123h-242v-162h-286v162h-242v123h242v108h-242v123h229z" />
<glyph unicode="&#xa6;" horiz-adv-x="491" d="M143 -246v697h205v-697h-205zM143 717v696h205v-696h-205z" />
<glyph unicode="&#xa7;" horiz-adv-x="1167" d="M102 510q0 72 35 132t96 103q-59 41 -89.5 100.5t-30.5 151.5q0 190 115.5 274.5t344.5 84.5q135 0 226.5 -21.5t148 -67.5t80 -122t23.5 -182h-287q0 90 -42 124.5t-147 34.5q-98 0 -137 -34.5t-39 -92.5q0 -35 10.5 -59.5t35 -41.5t67.5 -29.5t109 -22.5 q125 -18 209.5 -43t137 -64t75 -96t22.5 -141q0 -74 -35 -133.5t-96 -102.5q59 -41 90 -101.5t31 -150.5q0 -190 -116 -274t-345 -84q-135 0 -226.5 21.5t-147.5 67.5t-79.5 121t-23.5 183h286q0 -90 42 -125t147 -35q98 0 137 35t39 92q0 35 -10 59.5t-35 42t-68 30 t-108 22.5q-125 18 -210 42.5t-137.5 63.5t-75 96.5t-22.5 141.5zM369 545q0 -39 11 -66.5t41 -48t82 -36t132 -29.5q29 -6 54.5 -11.5t49.5 -11.5q59 49 60 121q0 39 -11.5 66.5t-41 48t-82 36t-132.5 29.5q-29 4 -54 10t-50 13q-59 -49 -59 -121z" />
<glyph unicode="&#xa9;" horiz-adv-x="1617" d="M123 516v299q0 135 41 243.5t125 184.5t213 117t307 41q176 0 305 -41t214 -117t126 -184.5t41 -243.5v-299q0 -135 -41 -243.5t-126 -184.5t-214 -117t-305 -41q-174 0 -303 41t-214 117t-127 184.5t-42 243.5zM315 524q0 -211 121 -312t373 -101t373 101t121 312v283 q0 211 -121 312.5t-373 101.5t-373 -101.5t-121 -312.5v-283zM481 618v91q0 96 20.5 159.5t60.5 101.5t101.5 53t141.5 15q74 0 131 -12t97 -43t60.5 -84t20.5 -135h-194q0 74 -29 95.5t-86 21.5q-74 0 -99.5 -35t-25.5 -123v-119q0 -94 26.5 -126t98.5 -32q57 0 86 23 t29 94h194q0 -80 -21.5 -133t-61.5 -85t-97 -44t-129 -12q-80 0 -141.5 15t-101.5 54t-60.5 101.5t-20.5 158.5z" />
<glyph unicode="&#xaa;" horiz-adv-x="897" d="M57 739q0 109 62.5 170.5t208.5 71.5l231 16v72q0 57 -26.5 82t-98.5 25t-97.5 -26t-25.5 -81h-223q0 141 81 214t265 73q190 0 271 -72t81 -215v-553h-165l-39 70q-113 -90 -250 -90t-206 64t-69 179zM285 760q0 -41 25.5 -62.5t66.5 -21.5q104 0 182 67v129l-186 -22 q-88 -8 -88 -90z" />
<glyph unicode="&#xab;" horiz-adv-x="1091" d="M82 512l266 399h240l-271 -399l271 -399h-240zM504 512l266 399h240l-271 -399l271 -399h-240z" />
<glyph unicode="&#xac;" horiz-adv-x="1030" d="M102 625v200h844v-538h-201v338h-643z" />
<glyph unicode="&#xad;" horiz-adv-x="716" d="M102 446v234h512v-234h-512z" />
<glyph unicode="&#xae;" horiz-adv-x="1617" d="M123 516v299q0 135 41 243.5t125 184.5t213 117t307 41q176 0 305 -41t214 -117t126 -184.5t41 -243.5v-299q0 -135 -41 -243.5t-126 -184.5t-214 -117t-305 -41q-174 0 -303 41t-214 117t-127 184.5t-42 243.5zM315 524q0 -211 121 -312t373 -101t373 101t121 312v283 q0 211 -121 312.5t-373 101.5t-373 -101.5t-121 -312.5v-283zM514 299v733h322q74 0 126 -11t85.5 -38t49 -73t15.5 -115q0 -94 -34 -143.5t-87 -78.5l139 -274h-190l-123 246h-129v-246h-174zM688 696h141q96 0 97 88q0 49 -21.5 68.5t-81.5 19.5h-135v-176z" />
<glyph unicode="&#xaf;" horiz-adv-x="798" d="M82 1155v176h635v-176h-635z" />
<glyph unicode="&#xb0;" horiz-adv-x="774" d="M61 1020q0 94 20.5 158.5t61.5 104.5t101.5 56.5t142.5 16.5q162 0 244 -73t82 -263q0 -96 -20.5 -160.5t-61.5 -104.5t-102.5 -56.5t-141.5 -16.5q-82 0 -142.5 16.5t-101.5 56.5t-61.5 104.5t-20.5 160.5zM260 1020q0 -102 32 -138t95 -36t94 36t31 138t-30.5 138 t-94.5 36q-63 0 -95 -36t-32 -138z" />
<glyph unicode="&#xb1;" horiz-adv-x="1030" d="M102 0v201h844v-201h-844zM102 610v201h322v324h201v-324h321v-201h-321v-323h-201v323h-322z" />
<glyph unicode="&#xb4;" horiz-adv-x="481" d="M82 1126l57 246h260l-147 -246h-170z" />
<glyph unicode="&#xb5;" horiz-adv-x="1105" d="M113 -348v1372h282v-737q41 -41 94.5 -63.5t100.5 -22.5q74 0 101.5 29.5t27.5 115.5v678h282v-686q0 -102 -17 -172t-55 -112t-96.5 -60.5t-140.5 -18.5t-150.5 19.5t-146.5 73.5v-416h-282z" />
<glyph unicode="&#xb6;" horiz-adv-x="1538" d="M123 825q0 143 32.5 240.5t97 157t160 84t220.5 24.5h659v-1704h-196v1516h-144v-1516h-196v703h-127q-260 0 -383 119.5t-123 375.5z" />
<glyph unicode="&#xb7;" horiz-adv-x="434" d="M72 522v293h290v-293h-290z" />
<glyph unicode="&#xba;" horiz-adv-x="909" d="M84 874v103q0 111 23.5 183.5t70.5 115.5t115.5 61.5t161.5 18.5q90 0 158.5 -18.5t115.5 -61.5t70.5 -116t23.5 -183v-103q0 -111 -23.5 -183.5t-69.5 -116.5t-115.5 -61t-159.5 -17q-92 0 -162 17t-116 61t-69.5 117t-23.5 183zM309 858q0 -53 8.5 -89t25.5 -56.5 t45 -28.5t67 -8t65.5 8t44 28.5t24.5 56.5t7 89v135q0 106 -32 144.5t-109 38.5q-78 0 -112 -38t-34 -145v-135z" />
<glyph unicode="&#xbb;" horiz-adv-x="1091" d="M82 113l270 399l-270 399h240l266 -399l-266 -399h-240zM504 113l270 399l-270 399h239l267 -399l-267 -399h-239z" />
<glyph unicode="&#xbf;" horiz-adv-x="1085" d="M82 68q0 109 23.5 183.5t69.5 122.5t111.5 73.5t149.5 35.5l17 140h182l35 -338q-98 0 -157.5 -9.5t-91.5 -34t-42 -66.5t-10 -107q0 -51 13 -83t37.5 -49.5t56.5 -23.5t69 -6t69.5 6t56 24.5t37 51t13.5 86.5h283q0 -211 -108 -308.5t-351 -97.5q-246 0 -354.5 97.5 t-108.5 302.5zM395 725v299h299v-299h-299z" />
<glyph unicode="&#xc0;" horiz-adv-x="1099" d="M20 0l347 1331h362l350 -1331h-297l-55 254h-358l-54 -254h-295zM344 1679h260l58 -245h-170zM422 483h252l-123 600h-4z" />
<glyph unicode="&#xc1;" horiz-adv-x="1099" d="M20 0l347 1331h362l350 -1331h-297l-55 254h-358l-54 -254h-295zM422 483h252l-123 600h-4zM463 1434l57 245h260l-147 -245h-170z" />
<glyph unicode="&#xc2;" horiz-adv-x="1099" d="M20 0l347 1331h362l350 -1331h-297l-55 254h-358l-54 -254h-295zM289 1434l110 245h301l111 -245h-180l-82 110l-80 -110h-180zM422 483h252l-123 600h-4z" />
<glyph unicode="&#xc4;" horiz-adv-x="1099" d="M20 0l347 1331h362l350 -1331h-297l-55 254h-358l-54 -254h-295zM270 1442v217h217v-217h-217zM422 483h252l-123 600h-4zM610 1442v217h217v-217h-217z" />
<glyph unicode="&#xc5;" horiz-adv-x="1099" d="M20 0l347 1331h362l350 -1331h-297l-55 254h-358l-54 -254h-295zM322 1595q0 96 59 143.5t168 47.5t168 -47t59 -144q0 -96 -59.5 -145t-167.5 -49q-109 0 -168 49t-59 145zM422 483h252l-123 600h-4zM469 1595q0 -75 80 -75t80 75q0 72 -80 72t-80 -72z" />
<glyph unicode="&#xc6;" horiz-adv-x="1683" d="M20 0l619 1331h983v-233h-532v-310h462v-225h-462v-330h532v-233h-819v254h-377l-111 -254h-295zM532 483h271v607h-4z" />
<glyph unicode="&#xc7;" horiz-adv-x="1126" d="M92 453v426q0 254 120 365.5t359 111.5q248 0 358.5 -105.5t110.5 -339.5h-282q0 113 -44 162t-143 49q-94 0 -143 -45t-49 -155v-512q0 -111 50 -156t142 -45q98 0 142.5 47t44.5 166h282q0 -223 -100 -329.5t-324 -115.5l-16 -61q66 -8 107 -41t41 -111 q0 -90 -50.5 -133t-177.5 -43h-141v127h137q43 0 57.5 12.5t14.5 36.5q0 27 -14.5 38.5t-57.5 11.5h-67l49 163q-211 16 -308.5 131t-97.5 345z" />
<glyph unicode="&#xc8;" horiz-adv-x="1030" d="M123 0v1331h815v-233h-528v-310h458v-225h-458v-330h528v-233h-815zM356 1679h260l58 -245h-170z" />
<glyph unicode="&#xc9;" horiz-adv-x="1030" d="M123 0v1331h815v-233h-528v-310h458v-225h-458v-330h528v-233h-815zM453 1434l57 245h260l-147 -245h-170z" />
<glyph unicode="&#xca;" horiz-adv-x="1030" d="M123 0v1331h815v-233h-528v-310h458v-225h-458v-330h528v-233h-815zM287 1434l110 245h301l111 -245h-180l-82 110l-80 -110h-180z" />
<glyph unicode="&#xcb;" horiz-adv-x="1030" d="M123 0v1331h815v-233h-528v-310h458v-225h-458v-330h528v-233h-815zM254 1442v217h217v-217h-217zM594 1442v217h217v-217h-217z" />
<glyph unicode="&#xcc;" horiz-adv-x="532" d="M80 1679h260l57 -245h-170zM123 0v1331h287v-1331h-287z" />
<glyph unicode="&#xcd;" horiz-adv-x="532" d="M123 0v1331h287v-1331h-287zM178 1434l58 245h260l-148 -245h-170z" />
<glyph unicode="&#xce;" horiz-adv-x="532" d="M6 1434l111 245h301l110 -245h-180l-82 110l-80 -110h-180zM123 0v1331h287v-1331h-287z" />
<glyph unicode="&#xcf;" horiz-adv-x="532" d="M-12 1442v217h217v-217h-217zM123 0v1331h287v-1331h-287zM328 1442v217h217v-217h-217z" />
<glyph unicode="&#xd0;" horiz-adv-x="1171" d="M16 580v190h107v561h455q125 0 219 -18.5t156.5 -70.5t94 -144t31.5 -238v-385q0 -145 -31.5 -238.5t-94 -145.5t-157 -71.5t-218.5 -19.5h-455v580h-107zM410 233h161q68 0 111 14.5t67.5 43t34 69.5t9.5 95v438q0 74 -14.5 116t-42 61.5t-68.5 23.5t-97 4h-161v-328 h184v-190h-184v-347z" />
<glyph unicode="&#xd1;" horiz-adv-x="1196" d="M123 0v1331h330l360 -928l-10 377v551h270v-1331h-330l-360 928l10 -367v-561h-270zM264 1458q0 141 47 193.5t146 52.5q53 0 87 -14.5t61.5 -33t55 -32.5t66.5 -14q29 0 47.5 16t18.5 53h159q0 -141 -47 -193t-145 -52q-53 0 -87 14t-61.5 32.5t-55.5 33t-67 14.5 q-29 0 -47 -16.5t-18 -53.5h-160z" />
<glyph unicode="&#xd2;" d="M92 430v471q0 231 116 343t374 112t374.5 -110.5t116.5 -344.5v-471q0 -231 -116.5 -343t-374.5 -112t-374 112t-116 343zM379 422q0 -111 48 -162t155 -51q109 0 156.5 51t47.5 162v487q0 111 -48 162t-156 51q-104 0 -153.5 -50t-49.5 -161v-489zM424 1679h260l57 -245 h-170z" />
<glyph unicode="&#xd3;" d="M92 430v471q0 231 116 343t374 112t374.5 -110.5t116.5 -344.5v-471q0 -231 -116.5 -343t-374.5 -112t-374 112t-116 343zM379 422q0 -111 48 -162t155 -51q109 0 156.5 51t47.5 162v487q0 111 -48 162t-156 51q-104 0 -153.5 -50t-49.5 -161v-489zM496 1434l57 245h260 l-147 -245h-170z" />
<glyph unicode="&#xd4;" d="M92 430v471q0 231 116 343t374 112t374.5 -110.5t116.5 -344.5v-471q0 -231 -116.5 -343t-374.5 -112t-374 112t-116 343zM322 1434l110 245h301l111 -245h-180l-82 110l-80 -110h-180zM379 422q0 -111 48 -162t155 -51q109 0 156.5 51t47.5 162v487q0 111 -48 162 t-156 51q-104 0 -153.5 -50t-49.5 -161v-489z" />
<glyph unicode="&#xd5;" d="M92 430v471q0 231 116 343t374 112t374.5 -110.5t116.5 -344.5v-471q0 -231 -116.5 -343t-374.5 -112t-374 112t-116 343zM248 1458q0 141 47 193.5t145 52.5q53 0 87 -14.5t61.5 -33t55.5 -32.5t67 -14q29 0 47 16t18 53h160q0 -141 -47 -193t-146 -52q-53 0 -86.5 14 t-61.5 32.5t-55.5 33t-66.5 14.5q-29 0 -47 -16.5t-18 -53.5h-160zM379 422q0 -111 48 -162t155 -51q109 0 156.5 51t47.5 162v487q0 111 -48 162t-156 51q-104 0 -153.5 -50t-49.5 -161v-489z" />
<glyph unicode="&#xd6;" d="M92 430v471q0 231 116 343t374 112t374.5 -110.5t116.5 -344.5v-471q0 -231 -116.5 -343t-374.5 -112t-374 112t-116 343zM303 1442v217h217v-217h-217zM379 422q0 -111 48 -162t155 -51q109 0 156.5 51t47.5 162v487q0 111 -48 162t-156 51q-104 0 -153.5 -50 t-49.5 -161v-489zM643 1442v217h217v-217h-217z" />
<glyph unicode="&#xd7;" horiz-adv-x="946" d="M102 334l230 227l-230 230l142 141l229 -227l227 227l142 -144l-228 -227l230 -227l-142 -144l-229 230l-229 -230z" />
<glyph unicode="&#xd8;" d="M68 -41l102 170q-78 104 -78 301v471q0 231 116 343t374 112q186 0 299 -58l45 74h172l-105 -170q80 -111 80 -301v-471q0 -231 -116.5 -343t-374.5 -112q-184 0 -297 56l-43 -72h-174zM379 471l362 596q-49 55 -159 55q-104 0 -153.5 -50t-49.5 -161v-440zM424 262 q47 -53 158 -53q109 0 156.5 51t47.5 162v436z" />
<glyph unicode="&#xd9;" horiz-adv-x="1177" d="M113 426v905h286v-919q0 -106 43 -153.5t148 -47.5q104 0 146 47t42 154v919h287v-905q0 -129 -30.5 -215t-90 -138.5t-148.5 -74t-206 -21.5t-207 21.5t-149.5 74t-90 138.5t-30.5 215zM430 1679h260l58 -245h-170z" />
<glyph unicode="&#xda;" horiz-adv-x="1177" d="M113 426v905h286v-919q0 -106 43 -153.5t148 -47.5q104 0 146 47t42 154v919h287v-905q0 -129 -30.5 -215t-90 -138.5t-148.5 -74t-206 -21.5t-207 21.5t-149.5 74t-90 138.5t-30.5 215zM510 1434l57 245h260l-147 -245h-170z" />
<glyph unicode="&#xdb;" horiz-adv-x="1177" d="M113 426v905h286v-919q0 -106 43 -153.5t148 -47.5q104 0 146 47t42 154v919h287v-905q0 -129 -30.5 -215t-90 -138.5t-148.5 -74t-206 -21.5t-207 21.5t-149.5 74t-90 138.5t-30.5 215zM328 1434l110 245h301l111 -245h-180l-82 110l-80 -110h-180z" />
<glyph unicode="&#xdc;" horiz-adv-x="1177" d="M113 426v905h286v-919q0 -106 43 -153.5t148 -47.5q104 0 146 47t42 154v919h287v-905q0 -129 -30.5 -215t-90 -138.5t-148.5 -74t-206 -21.5t-207 21.5t-149.5 74t-90 138.5t-30.5 215zM309 1442v217h217v-217h-217zM649 1442v217h217v-217h-217z" />
<glyph unicode="&#xdd;" horiz-adv-x="1081" d="M20 1331h310l209 -583h4l209 583h309l-377 -842v-489h-287v489zM463 1434l57 245h260l-147 -245h-170z" />
<glyph unicode="&#xde;" horiz-adv-x="1112" d="M102 0v1331h287v-227h176q119 0 208 -19.5t148.5 -68.5t89 -135t29.5 -219q0 -123 -29.5 -206t-89 -134.5t-148.5 -73t-208 -21.5h-176v-227h-287zM389 469h182q98 0 137.5 40t39.5 157q0 145 -25 237q-41 -31 -78 -36t-74 -5h-182v-393z" />
<glyph unicode="&#xdf;" horiz-adv-x="1128" d="M117 0v999q0 209 103.5 301.5t303.5 92.5q221 0 318.5 -88t97.5 -258q0 -121 -58.5 -192t-138.5 -95q158 -29 238 -116t80 -261q0 -98 -20.5 -174t-66.5 -128t-122 -79t-188 -27q-47 0 -97.5 7.5t-91.5 17.5v223q39 -10 72 -16t80 -6q76 0 115.5 44t39.5 148 q0 66 -11 110t-37.5 71.5t-71 39t-111.5 11.5h-39v233h12q72 0 108 33t36 129q0 72 -31 107.5t-109 35.5t-105.5 -39t-27.5 -106v-1018h-278z" />
<glyph unicode="&#xe0;" horiz-adv-x="1075" d="M72 279q0 135 75.5 212.5t258.5 90.5l288 20v90q0 72 -33.5 101.5t-121.5 29.5q-90 0 -123 -31.5t-33 -101.5h-274q0 176 98 267.5t330 91.5q238 0 337 -88.5t99 -268.5v-692h-203l-47 88q-139 -113 -313 -113q-172 0 -255 81.5t-83 222.5zM350 305q0 -53 32 -78.5 t83 -25.5q68 0 125 21.5t104 62.5v159l-233 -26q-111 -12 -111 -113zM360 1372h261l57 -246h-170z" />
<glyph unicode="&#xe1;" horiz-adv-x="1075" d="M72 279q0 135 75.5 212.5t258.5 90.5l288 20v90q0 72 -33.5 101.5t-121.5 29.5q-90 0 -123 -31.5t-33 -101.5h-274q0 176 98 267.5t330 91.5q238 0 337 -88.5t99 -268.5v-692h-203l-47 88q-139 -113 -313 -113q-172 0 -255 81.5t-83 222.5zM350 305q0 -53 32 -78.5 t83 -25.5q68 0 125 21.5t104 62.5v159l-233 -26q-111 -12 -111 -113zM453 1126l57 246h260l-147 -246h-170z" />
<glyph unicode="&#xe2;" horiz-adv-x="1075" d="M72 279q0 135 75.5 212.5t258.5 90.5l288 20v90q0 72 -33.5 101.5t-121.5 29.5q-90 0 -123 -31.5t-33 -101.5h-274q0 176 98 267.5t330 91.5q238 0 337 -88.5t99 -268.5v-692h-203l-47 88q-139 -113 -313 -113q-172 0 -255 81.5t-83 222.5zM276 1126l111 246h301 l111 -246h-181l-81 111l-80 -111h-181zM350 305q0 -53 32 -78.5t83 -25.5q68 0 125 21.5t104 62.5v159l-233 -26q-111 -12 -111 -113z" />
<glyph unicode="&#xe4;" horiz-adv-x="1075" d="M72 279q0 135 75.5 212.5t258.5 90.5l288 20v90q0 72 -33.5 101.5t-121.5 29.5q-90 0 -123 -31.5t-33 -101.5h-274q0 176 98 267.5t330 91.5q238 0 337 -88.5t99 -268.5v-692h-203l-47 88q-139 -113 -313 -113q-172 0 -255 81.5t-83 222.5zM258 1135v217h217v-217h-217z M350 305q0 -53 32 -78.5t83 -25.5q68 0 125 21.5t104 62.5v159l-233 -26q-111 -12 -111 -113zM598 1135v217h217v-217h-217z" />
<glyph unicode="&#xe5;" horiz-adv-x="1075" d="M72 279q0 135 75.5 212.5t258.5 90.5l288 20v90q0 72 -33.5 101.5t-121.5 29.5q-90 0 -123 -31.5t-33 -101.5h-274q0 176 98 267.5t330 91.5q238 0 337 -88.5t99 -268.5v-692h-203l-47 88q-139 -113 -313 -113q-172 0 -255 81.5t-83 222.5zM311 1288q0 96 59.5 143.5 t168.5 47.5t168 -47.5t59 -143.5t-59.5 -145t-167.5 -49q-109 0 -168.5 49t-59.5 145zM350 305q0 -53 32 -78.5t83 -25.5q68 0 125 21.5t104 62.5v159l-233 -26q-111 -12 -111 -113zM459 1288q0 -76 80 -76t79 76q0 72 -79 72q-80 0 -80 -72z" />
<glyph unicode="&#xe6;" horiz-adv-x="1675" d="M76 289q0 164 90 239.5t272 75.5h260v88q0 72 -33.5 101.5t-121.5 29.5q-90 0 -123 -31.5t-33 -101.5h-274q0 176 98 267.5t330 91.5q109 0 183.5 -18.5t123.5 -55.5q53 41 129 57.5t178 16.5q109 0 192 -21.5t138 -76t82.5 -145.5t27.5 -233v-153h-620 q0 -106 34.5 -162.5t145.5 -56.5q70 0 122 2t96 7t85 11t90 15v-224q-88 -16 -185 -26.5t-206 -10.5q-111 0 -189.5 19.5t-133.5 66.5q-57 -47 -141.5 -66.5t-203.5 -19.5q-113 0 -191.5 20.5t-127.5 60.5t-71.5 98.5t-22.5 134.5zM354 305q0 -104 131 -104q74 0 116 13 t63.5 41t27.5 67.5t6 93.5h-233q-57 0 -84 -32t-27 -79zM975 604h346q0 70 -10.5 113t-30.5 66.5t-52 31.5t-75 8q-104 0 -141 -49t-37 -170z" />
<glyph unicode="&#xe7;" horiz-adv-x="1058" d="M82 449v126q0 137 28.5 229.5t86 146t143.5 76t201 22.5q104 0 185 -18.5t137.5 -62.5t85 -120t28.5 -193h-275q0 53 -10 86t-30.5 51.5t-51 24.5t-69.5 6q-53 0 -88 -12t-55.5 -39t-29 -70t-8.5 -106v-168q0 -68 9.5 -111t31 -69.5t55 -36.5t85.5 -10q82 0 121.5 32.5 t39.5 135.5h275q0 -109 -26.5 -182.5t-78 -118.5t-125 -66.5t-165.5 -24.5l-17 -61q66 -8 107 -41t41 -111q0 -90 -50.5 -133t-177.5 -43h-141v127h137q43 0 57.5 12.5t14.5 36.5q0 27 -14.5 38.5t-57.5 11.5h-67l49 163q-96 6 -168 35t-119 84.5t-70.5 141.5t-23.5 211z " />
<glyph unicode="&#xe8;" horiz-adv-x="1052" d="M82 451v124q0 137 28.5 229.5t86 146t143.5 76t201 22.5q109 0 191.5 -21.5t138 -76t83 -145.5t27.5 -233v-153h-621q0 -106 35 -162.5t146 -56.5q70 0 122 2t96 7t85 11t90 15v-224q-88 -16 -185.5 -26.5t-205.5 -10.5q-115 0 -201 21.5t-143.5 76t-87 145.5t-29.5 233z M360 604h347q0 68 -10.5 111t-32 66.5t-53 32.5t-72.5 9q-104 0 -141.5 -49t-37.5 -170zM367 1372h260l57 -246h-170z" />
<glyph unicode="&#xe9;" horiz-adv-x="1052" d="M82 451v124q0 137 28.5 229.5t86 146t143.5 76t201 22.5q109 0 191.5 -21.5t138 -76t83 -145.5t27.5 -233v-153h-621q0 -106 35 -162.5t146 -56.5q70 0 122 2t96 7t85 11t90 15v-224q-88 -16 -185.5 -26.5t-205.5 -10.5q-115 0 -201 21.5t-143.5 76t-87 145.5t-29.5 233z M360 604h347q0 68 -10.5 111t-32 66.5t-53 32.5t-72.5 9q-104 0 -141.5 -49t-37.5 -170zM465 1126l57 246h260l-147 -246h-170z" />
<glyph unicode="&#xea;" horiz-adv-x="1052" d="M82 451v124q0 137 28.5 229.5t86 146t143.5 76t201 22.5q109 0 191.5 -21.5t138 -76t83 -145.5t27.5 -233v-153h-621q0 -106 35 -162.5t146 -56.5q70 0 122 2t96 7t85 11t90 15v-224q-88 -16 -185.5 -26.5t-205.5 -10.5q-115 0 -201 21.5t-143.5 76t-87 145.5t-29.5 233z M289 1126l110 246h301l111 -246h-180l-82 111l-80 -111h-180zM360 604h347q0 68 -10.5 111t-32 66.5t-53 32.5t-72.5 9q-104 0 -141.5 -49t-37.5 -170z" />
<glyph unicode="&#xeb;" horiz-adv-x="1052" d="M82 451v124q0 137 28.5 229.5t86 146t143.5 76t201 22.5q109 0 191.5 -21.5t138 -76t83 -145.5t27.5 -233v-153h-621q0 -106 35 -162.5t146 -56.5q70 0 122 2t96 7t85 11t90 15v-224q-88 -16 -185.5 -26.5t-205.5 -10.5q-115 0 -201 21.5t-143.5 76t-87 145.5t-29.5 233z M268 1135v217h217v-217h-217zM360 604h347q0 68 -10.5 111t-32 66.5t-53 32.5t-72.5 9q-104 0 -141.5 -49t-37.5 -170zM608 1135v217h217v-217h-217z" />
<glyph unicode="&#xec;" horiz-adv-x="503" d="M94 1372h260l58 -246h-170zM113 0v1024h278v-1024h-278z" />
<glyph unicode="&#xed;" horiz-adv-x="503" d="M113 0v1024h278v-1024h-278zM170 1126l57 246h260l-147 -246h-170z" />
<glyph unicode="&#xee;" horiz-adv-x="503" d="M-6 1126l110 246h302l110 -246h-180l-82 111l-80 -111h-180zM113 0v1024h278v-1024h-278z" />
<glyph unicode="&#xef;" horiz-adv-x="503" d="M-25 1135v217h218v-217h-218zM113 0v1024h278v-1024h-278zM315 1135v217h217v-217h-217z" />
<glyph unicode="&#xf0;" horiz-adv-x="1107" d="M82 446q0 100 19.5 182.5t65.5 140.5t120.5 90t183.5 32q82 0 142.5 -15.5t113.5 -39.5v161q0 47 -8 74l-94 -90l-76 80l100 96q-43 18 -119 19q-35 0 -64.5 -3.5t-57.5 -7.5v219q23 6 58.5 11.5t70.5 5.5q104 0 179 -14.5t130 -43.5l98 93l76 -80l-88 -84 q74 -94 74 -293v-571q0 -90 -19.5 -168t-72 -136.5t-141.5 -91t-226 -32.5q-139 0 -229.5 30.5t-142.5 90t-72.5 146.5t-20.5 199zM360 453q0 -125 36 -186.5t153 -61.5q98 0 138 47t40 164v223q-35 29 -82 47.5t-104 18.5q-104 0 -142.5 -58.5t-38.5 -193.5z" />
<glyph unicode="&#xf1;" horiz-adv-x="1099" d="M113 0v1024h202l47 -88q88 66 162 89.5t164 23.5q82 0 140.5 -18.5t96.5 -60.5t55 -112t17 -172v-686h-278v678q0 86 -27.5 115.5t-101.5 29.5q-47 0 -102.5 -22.5t-96.5 -63.5v-737h-278zM213 1151q0 141 47 193.5t146 52.5q53 0 86.5 -14.5t61.5 -33t55.5 -32.5 t66.5 -14q29 0 47 16t18 53h160q0 -141 -47 -193.5t-145 -52.5q-53 0 -87 14.5t-62 33t-55.5 33t-66.5 14.5q-29 0 -47 -16.5t-18 -53.5h-160z" />
<glyph unicode="&#xf2;" horiz-adv-x="1079" d="M82 449v126q0 137 28.5 228.5t87 146t143.5 77t200 22.5q113 0 197.5 -22.5t142 -77t87 -145.5t29.5 -229v-126q0 -139 -28.5 -230.5t-86 -145t-143.5 -76t-198 -22.5q-115 0 -201 22.5t-143.5 76t-86 144.5t-28.5 231zM342 1372h260l57 -246h-170zM360 428 q0 -135 41 -181t140 -46q49 0 82.5 10t55 35.5t31 69.5t9.5 112v168q0 68 -9.5 112t-31 69.5t-55 35.5t-82.5 10q-98 0 -139.5 -46t-41.5 -181v-168z" />
<glyph unicode="&#xf3;" horiz-adv-x="1079" d="M82 449v126q0 137 28.5 228.5t87 146t143.5 77t200 22.5q113 0 197.5 -22.5t142 -77t87 -145.5t29.5 -229v-126q0 -139 -28.5 -230.5t-86 -145t-143.5 -76t-198 -22.5q-115 0 -201 22.5t-143.5 76t-86 144.5t-28.5 231zM360 428q0 -135 41 -181t140 -46q49 0 82.5 10 t55 35.5t31 69.5t9.5 112v168q0 68 -9.5 112t-31 69.5t-55 35.5t-82.5 10q-98 0 -139.5 -46t-41.5 -181v-168zM457 1126l57 246h260l-147 -246h-170z" />
<glyph unicode="&#xf4;" horiz-adv-x="1079" d="M82 449v126q0 137 28.5 228.5t87 146t143.5 77t200 22.5q113 0 197.5 -22.5t142 -77t87 -145.5t29.5 -229v-126q0 -139 -28.5 -230.5t-86 -145t-143.5 -76t-198 -22.5q-115 0 -201 22.5t-143.5 76t-86 144.5t-28.5 231zM279 1126l110 246h301l111 -246h-180l-82 111 l-80 -111h-180zM360 428q0 -135 41 -181t140 -46q49 0 82.5 10t55 35.5t31 69.5t9.5 112v168q0 68 -9.5 112t-31 69.5t-55 35.5t-82.5 10q-98 0 -139.5 -46t-41.5 -181v-168z" />
<glyph unicode="&#xf5;" horiz-adv-x="1079" d="M82 449v126q0 137 28.5 228.5t87 146t143.5 77t200 22.5q113 0 197.5 -22.5t142 -77t87 -145.5t29.5 -229v-126q0 -139 -28.5 -230.5t-86 -145t-143.5 -76t-198 -22.5q-115 0 -201 22.5t-143.5 76t-86 144.5t-28.5 231zM195 1151q0 141 47 193.5t145 52.5q53 0 87 -14.5 t61.5 -33t55 -32.5t66.5 -14q29 0 47.5 16t18.5 53h160q0 -141 -47.5 -193.5t-145.5 -52.5q-53 0 -87 14.5t-61.5 33t-55 33t-66.5 14.5q-29 0 -47.5 -16.5t-18.5 -53.5h-159zM360 428q0 -135 41 -181t140 -46q49 0 82.5 10t55 35.5t31 69.5t9.5 112v168q0 68 -9.5 112 t-31 69.5t-55 35.5t-82.5 10q-98 0 -139.5 -46t-41.5 -181v-168z" />
<glyph unicode="&#xf6;" horiz-adv-x="1079" d="M82 449v126q0 137 28.5 228.5t87 146t143.5 77t200 22.5q113 0 197.5 -22.5t142 -77t87 -145.5t29.5 -229v-126q0 -139 -28.5 -230.5t-86 -145t-143.5 -76t-198 -22.5q-115 0 -201 22.5t-143.5 76t-86 144.5t-28.5 231zM260 1135v217h217v-217h-217zM360 428 q0 -135 41 -181t140 -46q49 0 82.5 10t55 35.5t31 69.5t9.5 112v168q0 68 -9.5 112t-31 69.5t-55 35.5t-82.5 10q-98 0 -139.5 -46t-41.5 -181v-168zM600 1135v217h217v-217h-217z" />
<glyph unicode="&#xf7;" horiz-adv-x="1048" d="M102 463v201h844v-201h-844zM414 135v221h221v-221h-221zM414 770v221h221v-221h-221z" />
<glyph unicode="&#xf8;" horiz-adv-x="1079" d="M82 449v126q0 137 29.5 228.5t88 146t144.5 77t201 22.5q76 0 139.5 -10.5t114.5 -32.5l41 59h155l-90 -133q49 -55 75 -142.5t26 -214.5v-126q0 -139 -30 -230.5t-87.5 -145t-144.5 -76t-199 -22.5q-162 0 -258 41l-39 -57h-156l88 131q-49 55 -73.5 142t-24.5 217z M365 395.5q0 -16.5 2 -30.5l292 434q-39 25 -114 24q-98 0 -139 -46t-41 -181v-168v-32.5zM428 225q20 -14 49 -19t68 -5q49 0 83 10t55.5 35.5t30.5 69.5t9 112v168v31.5t-2 31.5z" />
<glyph unicode="&#xf9;" horiz-adv-x="1105" d="M113 338v686h278v-678q0 -86 27.5 -115.5t101.5 -29.5q47 0 100.5 22.5t94.5 63.5v737h278v-1024h-202l-48 88q-88 -66 -161.5 -89.5t-163.5 -23.5q-82 0 -139.5 18.5t-94.5 60.5t-54 112t-17 172zM393 1372h260l58 -246h-170z" />
<glyph unicode="&#xfa;" horiz-adv-x="1105" d="M113 338v686h278v-678q0 -86 27.5 -115.5t101.5 -29.5q47 0 100.5 22.5t94.5 63.5v737h278v-1024h-202l-48 88q-88 -66 -161.5 -89.5t-163.5 -23.5q-82 0 -139.5 18.5t-94.5 60.5t-54 112t-17 172zM467 1126l57 246h260l-147 -246h-170z" />
<glyph unicode="&#xfb;" horiz-adv-x="1105" d="M113 338v686h278v-678q0 -86 27.5 -115.5t101.5 -29.5q47 0 100.5 22.5t94.5 63.5v737h278v-1024h-202l-48 88q-88 -66 -161.5 -89.5t-163.5 -23.5q-82 0 -139.5 18.5t-94.5 60.5t-54 112t-17 172zM291 1126l110 246h301l111 -246h-180l-82 111l-80 -111h-180z" />
<glyph unicode="&#xfc;" horiz-adv-x="1105" d="M113 338v686h278v-678q0 -86 27.5 -115.5t101.5 -29.5q47 0 100.5 22.5t94.5 63.5v737h278v-1024h-202l-48 88q-88 -66 -161.5 -89.5t-163.5 -23.5q-82 0 -139.5 18.5t-94.5 60.5t-54 112t-17 172zM274 1135v217h218v-217h-218zM614 1135v217h217v-217h-217z" />
<glyph unicode="&#xfd;" horiz-adv-x="1015" d="M20 1024h299l193 -682h4l178 682h301l-383 -1143q-23 -70 -53.5 -118t-75.5 -78.5t-109.5 -44t-154.5 -13.5q-27 0 -72 5.5t-73 15.5v223q31 -10 66.5 -14t68.5 -4q72 0 103.5 25.5t56.5 90.5l12 35zM442 1126l58 246h260l-148 -246h-170z" />
<glyph unicode="&#xfe;" horiz-adv-x="1103" d="M113 -348v1720h278v-411q76 47 140.5 67.5t125.5 20.5q82 0 149.5 -17.5t115 -63.5t74 -130t26.5 -215v-222q0 -133 -26.5 -216t-74 -129t-115 -63.5t-149.5 -17.5q-61 0 -125.5 20.5t-140.5 67.5v-411h-278zM391 287q39 -37 92.5 -61.5t118.5 -24.5q72 0 106.5 35.5 t34.5 146.5v258q0 111 -34.5 146.5t-106.5 35.5q-66 0 -119 -24.5t-92 -61.5v-450z" />
<glyph unicode="&#xff;" horiz-adv-x="1015" d="M20 1024h299l193 -682h4l178 682h301l-383 -1143q-23 -70 -53.5 -118t-75.5 -78.5t-109.5 -44t-154.5 -13.5q-27 0 -72 5.5t-73 15.5v223q31 -10 66.5 -14t68.5 -4q72 0 103.5 25.5t56.5 90.5l12 35zM229 1135v217h217v-217h-217zM569 1135v217h217v-217h-217z" />
<glyph unicode="&#x152;" horiz-adv-x="1652" d="M92 455v422q0 231 116 342.5t374 111.5h979v-233h-508v-310h438v-225h-438v-330h508v-233h-979q-258 0 -374 111.5t-116 343.5zM379 446q0 -111 48 -162t155 -51h184v865h-184q-104 0 -153.5 -50.5t-49.5 -160.5v-441z" />
<glyph unicode="&#x153;" horiz-adv-x="1689" d="M82 449v126q0 137 28.5 228.5t86 146t143.5 77t201 22.5q106 0 184 -19.5t131 -66.5q55 47 133 66.5t189 19.5q109 0 191.5 -21.5t138 -76t83 -145.5t27.5 -233v-153h-621q0 -106 35 -162.5t146 -56.5q70 0 122 2t96 7t85 11t90 15v-224q-88 -16 -185.5 -26.5 t-205.5 -10.5q-109 0 -188 19.5t-134 66.5q-53 -47 -132 -66.5t-185 -19.5q-117 0 -203 22.5t-142.5 76t-85 144.5t-28.5 231zM360 428q0 -135 41 -181t140 -46q49 0 82.5 10t55 35.5t31 69.5t9.5 112v168q0 68 -9.5 112t-31 69.5t-55 35.5t-82.5 10q-98 0 -139.5 -46 t-41.5 -181v-168zM997 604h346q0 68 -10 111t-31.5 66.5t-53 32.5t-72.5 9q-104 0 -141.5 -49t-37.5 -170z" />
<glyph unicode="&#x178;" horiz-adv-x="1081" d="M20 1331h310l209 -583h4l209 583h309l-377 -842v-489h-287v489zM262 1442v217h217v-217h-217zM602 1442v217h217v-217h-217z" />
<glyph unicode="&#x2c6;" horiz-adv-x="686" d="M82 1126l111 246h301l110 -246h-180l-82 111l-80 -111h-180z" />
<glyph unicode="&#x2dc;" horiz-adv-x="851" d="M82 1151q0 141 47 193.5t145 52.5q53 0 87 -14.5t62 -33t55.5 -32.5t66.5 -14q29 0 47 16t18 53h160q0 -141 -47 -193.5t-145 -52.5q-53 0 -87 14.5t-62 33t-55.5 33t-66.5 14.5q-29 0 -47 -16.5t-18 -53.5h-160z" />
<glyph unicode="&#x2000;" horiz-adv-x="893" />
<glyph unicode="&#x2001;" horiz-adv-x="1786" />
<glyph unicode="&#x2002;" horiz-adv-x="893" />
<glyph unicode="&#x2003;" horiz-adv-x="1786" />
<glyph unicode="&#x2004;" horiz-adv-x="595" />
<glyph unicode="&#x2005;" horiz-adv-x="446" />
<glyph unicode="&#x2006;" horiz-adv-x="297" />
<glyph unicode="&#x2007;" horiz-adv-x="297" />
<glyph unicode="&#x2008;" horiz-adv-x="223" />
<glyph unicode="&#x2009;" horiz-adv-x="357" />
<glyph unicode="&#x200a;" horiz-adv-x="99" />
<glyph unicode="&#x2010;" horiz-adv-x="716" d="M102 446v234h512v-234h-512z" />
<glyph unicode="&#x2011;" horiz-adv-x="716" d="M102 446v234h512v-234h-512z" />
<glyph unicode="&#x2012;" horiz-adv-x="716" d="M102 446v234h512v-234h-512z" />
<glyph unicode="&#x2013;" horiz-adv-x="972" d="M102 446v234h768v-234h-768z" />
<glyph unicode="&#x2014;" horiz-adv-x="1249" d="M82 446v234h1085v-234h-1085z" />
<glyph unicode="&#x2018;" horiz-adv-x="397" d="M41 1331h274v-532h-143z" />
<glyph unicode="&#x2019;" horiz-adv-x="397" d="M82 799v532h274l-131 -532h-143z" />
<glyph unicode="&#x201a;" horiz-adv-x="415" d="M102 -225v532h275l-131 -532h-144z" />
<glyph unicode="&#x201c;" horiz-adv-x="733" d="M41 1331h274v-532h-143zM377 1331h274v-532h-143z" />
<glyph unicode="&#x201d;" horiz-adv-x="733" d="M82 799v532h274l-131 -532h-143zM418 799v532h274l-131 -532h-143z" />
<glyph unicode="&#x201e;" horiz-adv-x="733" d="M82 -225v532h274l-131 -532h-143zM418 -225v532h274l-131 -532h-143z" />
<glyph unicode="&#x2022;" horiz-adv-x="882" d="M68 623v86q0 111 21.5 182.5t67.5 112t116.5 56t168.5 15.5t169 -15.5t117 -56t67.5 -112.5t21.5 -182v-86q0 -111 -21.5 -182.5t-67.5 -112.5t-116.5 -56.5t-169.5 -15.5q-98 0 -168.5 15.5t-116.5 56.5t-67.5 112.5t-21.5 182.5z" />
<glyph unicode="&#x202f;" horiz-adv-x="357" />
<glyph unicode="&#x2039;" horiz-adv-x="669" d="M82 512l266 399h240l-271 -399l271 -399h-240z" />
<glyph unicode="&#x203a;" horiz-adv-x="669" d="M82 113l270 399l-270 399h240l266 -399l-266 -399h-240z" />
<glyph unicode="&#x205f;" horiz-adv-x="446" />
<glyph unicode="&#x20ac;" horiz-adv-x="1228" d="M76 487v123h108v109h-108v123h108v37q0 254 120 365.5t360 111.5q248 0 358.5 -105.5t110.5 -339.5h-283q0 113 -44 162t-142 49q-94 0 -143.5 -45t-49.5 -155v-80h279l-21 -123h-258v-109h242l-21 -123h-221v-77q0 -111 50.5 -156t142.5 -45q98 0 142 47t44 166h283 q0 -233 -111 -340t-358 -107q-248 0 -364 115t-116 363v34h-108z" />
<glyph unicode="&#x2122;" horiz-adv-x="1118" d="M66 1229v102h362v-102h-127v-441h-108v441h-127zM489 788v543h162l113 -364l110 364h162v-543h-108v381l-123 -381h-84l-121 381v-381h-111z" />
<glyph unicode="&#x25fc;" horiz-adv-x="1024" d="M0 0v1024h1024v-1024h-1024z" />
</font>
</defs>
</svg>
