<?xml version="1.0" standalone="no"?>
<!DOCTYPE svg PUBLIC "-//W3C//DTD SVG 1.1//EN" "http://www.w3.org/Graphics/SVG/1.1/DTD/svg11.dtd" >
<svg xmlns="http://www.w3.org/2000/svg">
<metadata></metadata>
<defs>
<font id="breuertextregular" horiz-adv-x="450" >
<font-face units-per-em="2048" ascent="1638" descent="-410" />
<missing-glyph horiz-adv-x="500" />
<glyph horiz-adv-x="0" />
<glyph unicode="&#xd;" />
<glyph unicode=" " />
<glyph unicode="!" horiz-adv-x="493" d="M133 1331h227l-57 -928h-113zM147 0v184h199v-184h-199z" />
<glyph unicode="&#x22;" horiz-adv-x="610" d="M82 1331h184l-41 -430h-102zM336 1331h184l-41 -430h-102z" />
<glyph unicode="#" horiz-adv-x="1150" d="M86 340l10 111h205l37 432h-205l10 110h205l31 338h123l-29 -338h262l29 338h125l-29 -338h205l-10 -110h-205l-37 -432h205l-10 -111h-205l-31 -340h-125l31 340h-262l-31 -340h-123l29 340h-205zM426 451h262l37 432h-262z" />
<glyph unicode="$" horiz-adv-x="1071" d="M123 457h160q0 -49 11 -84t39.5 -57.5t76 -33t120.5 -10.5q84 0 135.5 12.5t79 34t35.5 53t8 70.5q0 41 -11 71t-41.5 50.5t-83 32.5t-134.5 18q-104 8 -176 29t-117 55.5t-64.5 85t-19.5 121.5q0 143 86 214t240 81v172h139v-172q166 -12 242 -87t76 -230h-160 q0 45 -10.5 79.5t-37 58t-71.5 36t-113 12.5q-115 0 -173 -38t-58 -128q0 -86 54.5 -123t189.5 -47q121 -10 198.5 -30.5t123.5 -54.5t63.5 -85t17.5 -121q0 -57 -11 -109t-46 -93t-103.5 -69t-181.5 -34v-178h-139v178q-102 6 -169 31t-105.5 65.5t-54 97t-15.5 126.5z" />
<glyph unicode="%" horiz-adv-x="1357" d="M102 1055q0 166 68 231.5t209 65.5t208.5 -65.5t67.5 -231.5q0 -168 -67.5 -232.5t-208.5 -64.5t-209 64.5t-68 232.5zM182 0l860 1331h134l-863 -1331h-131zM223 1063q0 -121 35 -162t121 -41q82 0 119 40t37 155t-37 155.5t-119 40.5q-84 0 -120 -40t-36 -148zM702 274 q0 166 68 231.5t209 65.5t208.5 -65.5t67.5 -231.5q0 -84 -17 -141t-51 -92t-86 -49.5t-122 -14.5q-72 0 -123 14.5t-86 49.5t-51.5 92t-16.5 141zM823 283q0 -121 35 -163t121 -42q82 0 119 39.5t37 156.5q0 115 -37 155t-119 40q-84 0 -120 -39t-36 -147z" />
<glyph unicode="&#x26;" horiz-adv-x="1251" d="M102 358q0 121 61.5 201t153.5 121q-78 39 -127 115.5t-49 187.5q0 188 107.5 278.5t306.5 90.5q221 0 315.5 -88t94.5 -281h-162q0 123 -57.5 176t-190.5 53q-125 0 -188.5 -53t-63.5 -182q0 -111 52.5 -171.5t144.5 -60.5h649v-139h-158v-297q0 -96 45 -134t144 -38 v-137q-104 0 -173 28.5t-108 98.5q-43 -66 -130 -106.5t-228 -40.5q-217 0 -328 92t-111 286zM264 365q0 -135 72 -192.5t205 -57.5q84 0 140 18.5t89 54t46 85t13 110.5v223h-337q-98 0 -163 -62.5t-65 -178.5z" />
<glyph unicode="'" horiz-adv-x="350" d="M82 1331h184l-41 -430h-102z" />
<glyph unicode="(" horiz-adv-x="651" d="M113 584q0 238 77.5 450.5t225.5 378.5h133q-131 -158 -211 -369.5t-80 -459.5t80 -460t211 -370h-133q-147 166 -225 379t-78 451z" />
<glyph unicode=")" horiz-adv-x="651" d="M102 -246q131 158 211 370t80 460t-80 459.5t-211 369.5h134q147 -166 225 -379t78 -450q0 -238 -78 -451t-225 -379h-134z" />
<glyph unicode="*" horiz-adv-x="1091" d="M96 967l68 207q86 -47 178 -100.5t170 -94.5q-20 98 -37.5 196.5t-38.5 196.5h217q-16 -98 -37.5 -201.5t-37.5 -191.5q80 41 171 94t177 101l69 -207l-397 -52l293 -270l-178 -129q-41 90 -84 185.5t-84 177.5q-39 -82 -82 -177.5t-86 -185.5l-176 129l291 270z" />
<glyph unicode="+" horiz-adv-x="1058" d="M113 500v127h352v352h127v-352h354v-127h-354v-357h-127v357h-352z" />
<glyph unicode="," horiz-adv-x="438" d="M123 193h192l-82 -386h-110v386z" />
<glyph unicode="-" horiz-adv-x="716" d="M102 512v135h512v-135h-512z" />
<glyph unicode="." horiz-adv-x="438" d="M123 0v193h192v-193h-192z" />
<glyph unicode="/" horiz-adv-x="677" d="M61 -82l420 1495h135l-421 -1495h-134z" />
<glyph unicode="0" horiz-adv-x="1132" d="M113 463v405q0 133 26.5 225.5t81.5 149.5t140 83t204 26t204 -26t140.5 -84t82 -150.5t26.5 -223.5v-405q0 -133 -26.5 -225.5t-82 -149.5t-140.5 -82.5t-204 -25.5t-204 25.5t-140 82.5t-81.5 149.5t-26.5 225.5zM276 463q0 -98 16.5 -164t51.5 -104.5t89 -55 t132 -16.5q76 0 131.5 16.5t90 55t51 104.5t16.5 164v405q0 98 -16.5 164t-51 105t-90 55t-131.5 16q-78 0 -133 -16t-90 -55t-50.5 -105.5t-15.5 -165.5v-403z" />
<glyph unicode="1" horiz-adv-x="690" d="M102 1188v86l263 57h100v-1331h-164v1188h-199z" />
<glyph unicode="2" horiz-adv-x="1085" d="M113 958q0 197 101 295.5t333 98.5q123 0 206 -26t133 -75t71.5 -119.5t21.5 -162.5q0 -119 -51 -200t-128 -141.5t-166 -107.5t-167 -99t-131 -117.5t-55 -160.5h712v-143h-878v102q0 127 52 214t129 151.5t168 116t168 104.5t129 117.5t52 159.5q0 131 -59.5 188 t-206.5 57q-61 0 -111.5 -11t-86.5 -40t-54.5 -78t-18.5 -123h-163z" />
<glyph unicode="3" horiz-adv-x="1124" d="M109 381h163q0 -139 63.5 -200.5t221.5 -61.5t228.5 58.5t70.5 199.5q0 111 -59.5 171t-165.5 60h-170v135h164q98 0 146 64.5t48 155.5q0 131 -61.5 189t-210.5 58q-145 0 -209 -60t-64 -202h-163q0 403 436 404q231 0 333.5 -98.5t102.5 -292.5q0 -106 -52 -175 t-138 -104q109 -33 169 -104.5t60 -204.5q0 -199 -108.5 -296t-356.5 -97q-242 0 -345 96t-103 305z" />
<glyph unicode="4" horiz-adv-x="1128" d="M74 309v123l610 899h211v-885h162v-137h-162v-309h-164v309h-657zM240 446h491v730z" />
<glyph unicode="5" horiz-adv-x="1128" d="M109 391h163q0 -129 64.5 -200.5t222.5 -71.5q162 0 227.5 74.5t65.5 238.5q0 168 -69.5 234.5t-202.5 66.5q-86 0 -154 -34.5t-111 -69.5h-174q16 176 30.5 350t29.5 352h747v-141h-606l-35 -447q68 51 149 80t167 29q92 0 164.5 -20.5t124 -69.5t78 -130t26.5 -200 q0 -223 -103.5 -337.5t-353.5 -114.5q-125 0 -211 28.5t-139 81.5t-76.5 129t-23.5 172z" />
<glyph unicode="6" horiz-adv-x="1120" d="M113 449v430q0 252 105.5 362.5t334.5 110.5q227 0 326.5 -93.5t101.5 -283.5h-164q0 123 -57.5 178t-206.5 55q-76 0 -128 -15t-85 -53t-48.5 -101.5t-15.5 -159.5v-170q72 41 158 65.5t176 24.5q219 0 311.5 -96.5t92.5 -294.5q0 -205 -103.5 -318t-341.5 -113 q-125 0 -212 27t-141 84t-78.5 146.5t-24.5 214.5zM276 449q0 -98 15.5 -162t49.5 -100.5t89 -51t135 -14.5q156 0 220.5 66.5t64.5 215.5q0 76 -13.5 129.5t-44 86t-84 48t-133.5 15.5q-78 0 -154.5 -24.5t-144.5 -65.5v-143z" />
<glyph unicode="7" horiz-adv-x="972" d="M66 1188v143h839v-127l-469 -1204h-176l469 1188h-663z" />
<glyph unicode="8" horiz-adv-x="1140" d="M92 350q0 133 65.5 214t182.5 116q-104 35 -157.5 114.5t-53.5 196.5q0 98 29.5 167t86 112t138.5 62.5t186 19.5t186.5 -19.5t139.5 -62.5t87 -111.5t30 -167.5q0 -117 -54.5 -196.5t-158.5 -114.5q117 -35 183.5 -116t66.5 -214q0 -199 -115 -284.5t-365 -85.5 t-363.5 86t-113.5 284zM258 362q0 -131 72.5 -187t238.5 -56t240 56t74 187q0 111 -63.5 180.5t-219.5 69.5h-61q-154 0 -217.5 -69.5t-63.5 -180.5zM293 977q0 -125 61.5 -181.5t184.5 -56.5h61q125 0 186.5 57.5t61.5 180.5q0 135 -68 184t-211 49q-141 0 -208.5 -49 t-67.5 -184z" />
<glyph unicode="9" horiz-adv-x="1120" d="M106 924q0 205 103.5 316.5t341.5 111.5q125 0 212 -27t141 -83t79 -145t25 -214v-430q0 -254 -105.5 -365t-335.5 -111q-227 0 -326.5 93.5t-101.5 283.5h164q0 -61 13.5 -105t44 -73t80.5 -43t126 -14t128.5 15.5t85 54t48 102t15.5 160.5v170q-72 -41 -159 -66 t-175 -25q-219 0 -311.5 96.5t-92.5 297.5zM270 928q0 -78 13.5 -131.5t44 -86t84 -48t133.5 -15.5q78 0 154.5 24.5t144.5 65.5v146q0 98 -15.5 161.5t-49.5 100.5t-89 51t-135 14q-156 0 -220.5 -67.5t-64.5 -214.5z" />
<glyph unicode=":" horiz-adv-x="438" d="M123 0v193h192v-193h-192zM123 668v192h192v-192h-192z" />
<glyph unicode=";" horiz-adv-x="438" d="M123 193h192l-82 -386h-110v386zM123 668v192h192v-192h-192z" />
<glyph unicode="&#x3c;" horiz-adv-x="761" d="M102 666l408 706h149l-409 -706l409 -707h-149z" />
<glyph unicode="=" horiz-adv-x="1058" d="M113 295v127h833v-127h-833zM113 705v126h833v-126h-833z" />
<glyph unicode="&#x3e;" horiz-adv-x="761" d="M102 -41l408 707l-408 706h150l407 -706l-407 -707h-150z" />
<glyph unicode="?" horiz-adv-x="1040" d="M96 979q0 178 98.5 275.5t315.5 97.5q233 0 337.5 -96.5t104.5 -299.5q0 -201 -95 -297t-279 -108l-15 -150h-102q-6 70 -12.5 138.5t-14.5 138.5q94 0 162 12t110 44t61 85t19 137q0 137 -63.5 196.5t-208.5 59.5q-131 0 -192.5 -57t-61.5 -176h-164zM414 0v184h198 v-184h-198z" />
<glyph unicode="@" horiz-adv-x="1626" d="M143 356v299q0 131 40 235.5t123 177.5t209 112t298 39q170 0 296 -39t209 -112t124 -177.5t41 -235.5v-299q0 -262 -165 -412.5t-505 -150.5q-336 0 -503 150.5t-167 412.5zM268 365q0 -231 134.5 -343t410.5 -112t410.5 111.5t134.5 343.5v282q0 455 -545 455 t-545 -455v-282zM489 342q0 98 64.5 151.5t181.5 61.5l254 16v86q0 80 -38 113t-140 33q-92 0 -134 -31t-42 -113h-115q0 74 21.5 121t59.5 75t91 39t119 11q154 0 223.5 -54t69.5 -194v-518h-78l-22 72q-55 -43 -115 -65.5t-133 -22.5q-123 0 -195 53t-72 166zM606 346 q0 -121 156 -121q70 0 125 22.5t102 59.5v178l-244 -20q-76 -6 -107.5 -36t-31.5 -83z" />
<glyph unicode="A" horiz-adv-x="1071" d="M41 0l391 1331h207l391 -1331h-170l-92 324h-465l-90 -324h-172zM340 463h391l-192 706h-4z" />
<glyph unicode="B" horiz-adv-x="1122" d="M143 0v1331h432q229 0 326.5 -81t97.5 -263q0 -117 -54 -195.5t-144 -107.5q127 -35 183 -113.5t56 -208.5q0 -195 -104.5 -278.5t-327.5 -83.5h-465zM307 143h297q147 0 207.5 52.5t60.5 177.5t-66.5 179t-195.5 54h-303v-463zM307 745h299q121 0 174.5 59.5t53.5 164.5 q0 121 -59.5 170t-196.5 49h-271v-443z" />
<glyph unicode="C" horiz-adv-x="1116" d="M113 459v413q0 131 25.5 222.5t80.5 148.5t141 83t207 26q223 0 330 -92.5t107 -307.5h-164q0 143 -63.5 199.5t-209.5 56.5q-80 0 -135 -15t-90 -52t-50.5 -99.5t-15.5 -156.5v-439q0 -94 15.5 -156.5t49.5 -99t90 -52t136 -15.5q143 0 208 54t65 200h164 q0 -215 -106.5 -306t-330.5 -91q-119 0 -205 24.5t-141 79.5t-81.5 147.5t-26.5 227.5z" />
<glyph unicode="D" horiz-adv-x="1150" d="M143 0v1331h402q119 0 211 -20.5t154.5 -72.5t95 -145.5t32.5 -236.5v-381q0 -145 -32.5 -237.5t-95 -144.5t-154.5 -72.5t-211 -20.5h-402zM307 143h236q84 0 146.5 14.5t103.5 51.5t61 99.5t20 158.5v401q0 104 -22.5 167t-64.5 96.5t-103 45t-141 11.5h-236v-1045z " />
<glyph unicode="E" horiz-adv-x="1013" d="M143 0v1331h758v-143h-594v-443h520v-139h-520v-463h594v-143h-758z" />
<glyph unicode="F" horiz-adv-x="964" d="M143 0v1331h719v-143h-555v-443h484v-139h-484v-606h-164z" />
<glyph unicode="G" horiz-adv-x="1167" d="M123 457v417q0 129 25.5 220.5t81 148.5t141.5 83t207 26q223 0 329.5 -91.5t106.5 -306.5h-164q0 143 -63.5 198.5t-208.5 55.5q-80 0 -135.5 -15t-90.5 -52t-50 -99.5t-15 -156.5v-439q0 -96 15 -158.5t51 -99t92.5 -51t138.5 -14.5q154 0 220 60.5t66 187.5v235h-272 v139h436v-745h-86l-35 113q-55 -66 -130.5 -99.5t-204.5 -33.5q-119 0 -205 24.5t-141.5 80.5t-82 147.5t-26.5 224.5z" />
<glyph unicode="H" horiz-adv-x="1157" d="M143 0v1331h164v-586h543v586h164v-1331h-164v606h-543v-606h-164z" />
<glyph unicode="I" d="M143 0v1331h164v-1331h-164z" />
<glyph unicode="J" horiz-adv-x="743" d="M82 0v143q41 -10 91 -15t101 -5q86 0 124 32.5t38 127.5v905h-252v143h416v-1048q0 -76 -14.5 -132.5t-50 -94.5t-97 -57t-155.5 -19q-113 0 -201 20z" />
<glyph unicode="K" horiz-adv-x="1019" d="M143 0v1331h164v-590l463 590h199l-523 -647l533 -684h-197q-113 156 -188.5 256t-127.5 165.5t-89 106.5t-70 82v-610h-164z" />
<glyph unicode="L" horiz-adv-x="864" d="M143 0v1331h164v-1188h475v-143h-639z" />
<glyph unicode="M" horiz-adv-x="1468" d="M143 0v1331h240l350 -1104h2l350 1104h240v-1331h-162v1126l-360 -1126h-137l-361 1126v-1126h-162z" />
<glyph unicode="N" horiz-adv-x="1175" d="M143 0v1331h209l516 -1095v1095h164v-1331h-209l-516 1096v-1096h-164z" />
<glyph unicode="O" horiz-adv-x="1144" d="M113 451v430q0 133 27.5 223t84 145.5t143.5 79t205 23.5q119 0 205 -24.5t142.5 -80t84 -145.5t27.5 -221v-430q0 -133 -27.5 -223.5t-84 -145.5t-142.5 -78.5t-205 -23.5t-205.5 23.5t-143 78.5t-84 145t-27.5 224zM276 451q0 -98 17.5 -162t53.5 -100.5t92.5 -51 t133.5 -14.5q76 0 132.5 14.5t92.5 51t53 100t17 162.5v430q0 98 -17 161.5t-53 100.5t-92.5 51t-132.5 14q-78 0 -134 -14t-92 -51t-53.5 -101.5t-17.5 -162.5v-428z" />
<glyph unicode="P" horiz-adv-x="1112" d="M143 0v1331h422q117 0 202 -18.5t141.5 -65.5t84 -128t27.5 -206q0 -115 -26.5 -192.5t-82 -125.5t-140.5 -69.5t-202 -21.5h-262v-504h-164zM307 643h262q78 0 131.5 12.5t87 43t48 83t14.5 131.5q0 86 -16.5 139.5t-50 84t-87 41t-129.5 10.5h-260v-545z" />
<glyph unicode="Q" horiz-adv-x="1144" d="M113 451v430q0 133 27.5 223t84 145.5t143.5 79t205 23.5q119 0 205 -24.5t142.5 -80t84 -145.5t27.5 -221v-430q0 -123 -23.5 -210t-72.5 -142.5t-123 -83t-174 -33.5q4 -59 37 -80t96 -21h127l-41 -94h-127q-45 0 -85 10t-70.5 33t-51 60.5t-22.5 91.5 q-100 6 -173 34.5t-121 84t-71.5 141.5t-23.5 209zM276 451q0 -98 17.5 -162t53.5 -100.5t92.5 -51t133.5 -14.5q76 0 132.5 14.5t92.5 51t53 100t17 162.5v430q0 98 -17 161.5t-53 100.5t-92.5 51t-132.5 14q-78 0 -134 -14t-92 -51t-53.5 -101.5t-17.5 -162.5v-428z" />
<glyph unicode="R" horiz-adv-x="1122" d="M143 0v1331h420q117 0 202 -18.5t142.5 -65.5t85 -128t27.5 -206q0 -166 -57.5 -258t-180.5 -127l258 -528h-178l-241 504h-314v-504h-164zM307 643h260q78 0 131.5 12.5t87 43t49 83t15.5 131.5q0 86 -16.5 139.5t-51 84t-88 41t-129.5 10.5h-258v-545z" />
<glyph unicode="S" horiz-adv-x="1099" d="M92 360h164q0 -141 72.5 -189t218.5 -48q82 0 139 13.5t91 42t49.5 72.5t15.5 107q0 57 -11.5 100.5t-45 74t-96.5 51t-167 34.5q-113 14 -190.5 43t-126.5 73t-71.5 107.5t-22.5 147.5q0 174 105.5 268.5t326.5 94.5t327.5 -85t106.5 -292h-164q0 133 -62.5 183 t-205.5 50q-137 0 -204 -51t-67 -168q0 -55 12.5 -96t46.5 -70.5t91 -48t147 -31.5q133 -16 218 -46.5t133.5 -77t67 -111t18.5 -150.5q0 -201 -110 -289.5t-351 -88.5q-106 0 -191.5 18t-143.5 62t-89 117t-31 183z" />
<glyph unicode="T" horiz-adv-x="937" d="M51 1188v143h836v-143h-336v-1188h-164v1188h-336z" />
<glyph unicode="U" horiz-adv-x="1177" d="M143 414v917h164v-921q0 -162 65.5 -225.5t215.5 -63.5t216 63.5t66 225.5v921h164v-917q0 -127 -28.5 -211t-85 -134.5t-140.5 -71t-192 -20.5q-109 0 -192 20.5t-139 71t-85 134.5t-29 211z" />
<glyph unicode="V" horiz-adv-x="1091" d="M51 1331h172q80 -293 160 -580.5t162 -580.5h4q80 293 159.5 580.5t161.5 580.5h170q-98 -336 -195 -665.5t-196 -665.5h-207z" />
<glyph unicode="W" horiz-adv-x="1673" d="M72 1331h170l233 -1151h4q61 289 125 574.5t125 576.5h213l252 -1151h4q57 289 115.5 574.5t116.5 576.5h172l-297 -1331h-218l-251 1157l-252 -1157h-217z" />
<glyph unicode="X" horiz-adv-x="1054" d="M51 0q98 172 193.5 341t191.5 341l-368 649h188l270 -514h2l271 514h188l-369 -649q96 -172 191.5 -341t194.5 -341h-187l-289 545h-2l-288 -545h-187z" />
<glyph unicode="Y" horiz-adv-x="1044" d="M51 1331h182l287 -649h4l287 649h182l-389 -813v-518h-164v518z" />
<glyph unicode="Z" horiz-adv-x="1024" d="M102 0v121l627 1067h-606v143h799v-125l-627 -1063h647v-143h-840z" />
<glyph unicode="[" horiz-adv-x="636" d="M164 -248v1663h360v-104h-229v-1454h229v-105h-360z" />
<glyph unicode="\" horiz-adv-x="677" d="M61 1413h136l419 -1495h-133z" />
<glyph unicode="]" horiz-adv-x="657" d="M133 -143h229v1454h-229v104h361v-1663h-361v105z" />
<glyph unicode="a" horiz-adv-x="1026" d="M82 270q0 133 80 208t246 85l346 23v123q0 53 -10.5 91t-37 62.5t-72.5 35.5t-116 11q-129 0 -182 -43t-53 -147h-160q0 92 26.5 154.5t76.5 100.5t124 54t168 16q109 0 183.5 -18t121.5 -58t68.5 -103.5t21.5 -155.5v-709h-106l-37 100q-76 -59 -152.5 -91t-177.5 -32 q-176 0 -267 74t-91 219zM244 279q0 -86 53.5 -126t155.5 -40q98 0 165.5 28.5t135.5 87.5v252l-330 -35q-92 -10 -136 -50t-44 -117z" />
<glyph unicode="b" horiz-adv-x="1091" d="M133 0v1372h160v-440q70 49 149.5 80.5t159.5 31.5q90 0 162 -19t122 -69.5t76.5 -140.5t26.5 -231v-146q0 -141 -26.5 -230t-76.5 -140.5t-122 -71t-162 -19.5q-86 0 -170 34t-156 89l-36 -100h-107zM293 236q59 -59 140 -91t149 -32q63 0 110 15t78 53t45 101.5 t14 161.5v136q0 98 -14 161.5t-45 101.5t-78 52t-110 14q-72 0 -151 -31.5t-138 -84.5v-557z" />
<glyph unicode="c" horiz-adv-x="1036" d="M102 457v110q0 141 27 233.5t80 146.5t135 75.5t191 21.5q203 0 301 -76.5t98 -262.5h-160q0 55 -12 94t-40 63.5t-72.5 35.5t-114.5 11q-76 0 -128.5 -14t-84 -53t-46 -104.5t-14.5 -170.5v-110q0 -104 14.5 -171t46 -106t84 -53t128.5 -14q70 0 114.5 11t72.5 35.5 t40 63.5t12 96h160q0 -188 -98.5 -265t-300.5 -77q-111 0 -192 21.5t-135 77t-80 147.5t-26 234z" />
<glyph unicode="d" horiz-adv-x="1091" d="M102 438v146q0 141 27 231t77 140.5t121.5 69.5t161.5 19q80 0 160 -31.5t150 -80.5v440h159v-1372h-106l-37 100q-72 -55 -156 -89t-170 -34q-90 0 -161.5 19.5t-121.5 71t-77 140.5t-27 230zM262 444q0 -98 14.5 -161.5t45 -101.5t76.5 -53t112 -15q68 0 148.5 31.5 t140.5 91.5v557q-59 53 -138 84.5t-151 31.5q-66 0 -112 -14t-76.5 -52t-45 -101.5t-14.5 -161.5v-136z" />
<glyph unicode="e" horiz-adv-x="1036" d="M102 457v110q0 141 27 233.5t81 146.5t134 75.5t186 21.5q104 0 181 -21.5t129.5 -74.5t78 -145t25.5 -234v-118h-682q0 -100 13.5 -166t46 -104t87 -53t134.5 -15q111 0 193.5 11t160.5 28v-136q-72 -16 -160 -26t-196 -10q-111 0 -193 20t-136 73.5t-82 145.5t-28 238z M262 571h522q0 94 -10 159t-37.5 104.5t-77 57t-129.5 17.5q-78 0 -130 -16t-82.5 -56t-43 -104.5t-12.5 -161.5z" />
<glyph unicode="f" horiz-adv-x="647" d="M61 889v108l136 27v123q0 129 61 190.5t184 61.5q49 0 88 -6.5t66 -16.5v-135q-23 6 -54.5 12.5t-72.5 6.5q-61 0 -87 -30t-26 -85v-121h189v-135h-189v-889h-159v889h-136z" />
<glyph unicode="g" horiz-adv-x="1091" d="M102 461v123q0 141 27 231t77 140.5t121.5 69.5t161.5 19q86 0 170 -33.5t156 -86.5l37 100h106v-1026q0 -195 -91 -281t-308 -86q-78 0 -163 9.5t-156 29.5v144q78 -25 157.5 -36t159.5 -11q63 0 108.5 10t75 36.5t44 71.5t14.5 113v115q-70 -49 -150 -81t-160 -32 q-90 0 -161.5 19.5t-121.5 69.5t-77 140t-27 232zM262 465q0 -98 14.5 -161.5t45 -101.5t76.5 -52.5t112 -14.5q72 0 150.5 32t138.5 85v536q-59 59 -140 90t-149 31q-66 0 -112 -15t-76.5 -53t-45 -101.5t-14.5 -159.5v-115z" />
<glyph unicode="h" horiz-adv-x="1099" d="M133 0v1372h160v-442q82 57 158.5 85.5t164.5 28.5q90 0 152.5 -19t102.5 -62t58.5 -113t18.5 -168v-682h-160v682q0 68 -13 112t-38.5 69.5t-66.5 35.5t-97 10q-74 0 -146.5 -26.5t-133.5 -75.5v-807h-160z" />
<glyph unicode="i" horiz-adv-x="425" d="M129 1204v168h168v-168h-168zM133 0v1024h160v-1024h-160z" />
<glyph unicode="j" horiz-adv-x="425" d="M-98 -213q25 -6 56.5 -12t66.5 -6q61 0 84.5 31.5t23.5 90.5v1133h160v-1133q0 -131 -53.5 -195.5t-184.5 -64.5q-45 0 -85 5.5t-68 15.5v135zM129 1204v168h168v-168h-168z" />
<glyph unicode="k" horiz-adv-x="942" d="M133 0v1372h160v-780h4l385 432h197l-445 -483q16 -23 54 -66t85.5 -95t99.5 -109.5t99 -109.5t84 -95t55 -66h-202l-412 483h-4v-483h-160z" />
<glyph unicode="l" horiz-adv-x="425" d="M133 0v1372h160v-1372h-160z" />
<glyph unicode="m" horiz-adv-x="1607" d="M133 0v1024h107l36 -100q80 59 157 89.5t163 30.5q100 0 160.5 -33.5t99.5 -88.5q80 57 159 89.5t171 32.5q88 0 144 -20t89 -61t44.5 -103.5t11.5 -146.5v-713h-160v713q0 113 -38 154.5t-140 41.5q-55 0 -124 -27.5t-130 -74.5v-807h-160v713q0 55 -8 93t-28.5 61.5 t-54.5 32.5t-85 9q-59 0 -126 -26.5t-128 -75.5v-807h-160z" />
<glyph unicode="n" horiz-adv-x="1081" d="M133 0v1024h107l36 -100q78 59 157 89.5t181 30.5q88 0 151.5 -18t103.5 -60t59.5 -112t19.5 -172v-682h-160v682q0 68 -13 112t-38.5 69.5t-66.5 35.5t-97 10q-74 0 -146.5 -26.5t-133.5 -75.5v-807h-160z" />
<glyph unicode="o" horiz-adv-x="1046" d="M92 457v110q0 137 25.5 229.5t78 147.5t134.5 77.5t192 22.5q113 0 194 -22.5t134 -77.5t78.5 -147t25.5 -230v-110q0 -139 -25.5 -231.5t-77.5 -147.5t-134 -78t-195 -23t-194.5 23t-134 78t-77 147t-24.5 232zM252 457q0 -104 13.5 -171t44 -105t82.5 -53t130 -15 t130.5 15t84 53t45 104.5t13.5 171.5v110q0 102 -13.5 169t-45 105t-84 53t-130.5 15t-130 -15t-82.5 -53t-44 -104.5t-13.5 -169.5v-110z" />
<glyph unicode="p" horiz-adv-x="1091" d="M133 -348v1372h107l36 -100q72 53 156 86.5t170 33.5q90 0 162 -19t122 -69.5t76.5 -140.5t26.5 -231v-146q0 -141 -26.5 -230t-76.5 -140.5t-122 -71t-162 -19.5q-80 0 -160 32t-149 81v-438h-160zM293 229q59 -53 138 -84.5t151 -31.5q63 0 110 15t78 52t45 101.5 t14 162.5v136q0 96 -14 159.5t-45 101.5t-78 53t-110 15q-68 0 -149 -30.5t-140 -90.5v-559z" />
<glyph unicode="q" horiz-adv-x="1091" d="M102 438v146q0 141 27 231t77 140.5t120.5 69.5t160.5 19q86 0 171 -33.5t157 -86.5l37 100h106v-1372h-159v438q-70 -49 -150 -81t-162 -32q-90 0 -160.5 19.5t-120.5 71t-77 140.5t-27 230zM262 444q0 -98 14.5 -162.5t45 -101.5t76.5 -52t112 -15q72 0 150.5 31.5 t138.5 84.5v559q-59 59 -140 90t-149 31q-66 0 -112 -15t-76.5 -53t-45 -101.5t-14.5 -159.5v-136z" />
<glyph unicode="r" horiz-adv-x="649" d="M133 0v1024h107l36 -100q66 57 137.5 88.5t164.5 31.5v-147q-96 0 -161 -25.5t-124 -80.5v-791h-160z" />
<glyph unicode="s" horiz-adv-x="1009" d="M92 299h160q0 -49 11 -84t40 -58.5t76 -33.5t121 -10q84 0 135 12t78.5 33.5t36 53.5t8.5 73t-11.5 70.5t-42 50t-83 33t-134.5 18.5q-104 8 -175.5 28.5t-116.5 55t-64.5 85t-19.5 119.5q0 158 104 228.5t287 70.5q207 0 299 -73.5t92 -247.5h-160q0 45 -10 80t-37 58.5 t-72 35.5t-112 12q-115 0 -173.5 -36.5t-58.5 -127.5q0 -86 54.5 -123.5t189.5 -48.5q121 -10 199 -29.5t124 -53t63.5 -83.5t17.5 -122q0 -61 -13.5 -117.5t-56.5 -97.5t-126 -65.5t-222 -24.5q-121 0 -200 21.5t-125 62t-64.5 100t-18.5 135.5z" />
<glyph unicode="t" horiz-adv-x="677" d="M51 889v110l133 25v250l160 26v-276h231v-135h-231v-649q0 -59 25.5 -92t89.5 -33q43 0 75.5 7t61.5 13v-135q-31 -10 -75 -16.5t-91 -6.5q-129 0 -187.5 64.5t-58.5 200.5v647h-133z" />
<glyph unicode="u" horiz-adv-x="1081" d="M133 340v684h160v-684q0 -68 13 -112t39 -69.5t67 -35.5t96 -10q74 0 146.5 27.5t133.5 76.5v807h160v-1024h-106l-37 100q-82 -61 -159 -90.5t-179 -29.5q-88 0 -151.5 18t-103.5 60t-59.5 111t-19.5 171z" />
<glyph unicode="v" horiz-adv-x="1007" d="M51 1024h174l277 -852h4l278 852h172l-362 -1024h-178z" />
<glyph unicode="w" horiz-adv-x="1495" d="M61 1024h168l197 -856h2l221 856h195l223 -856l199 856h168q-68 -258 -133.5 -512t-133.5 -512h-194l-225 866l-228 -866h-194z" />
<glyph unicode="x" horiz-adv-x="1005" d="M51 0l361 526l-338 498h188l240 -373l241 373h189l-338 -498l360 -526h-188l-262 401h-2l-262 -401h-189z" />
<glyph unicode="y" horiz-adv-x="1013" d="M51 1024h174l281 -827h4l281 827h172l-422 -1163q-25 -66 -53.5 -110t-66.5 -70.5t-89 -38t-119 -11.5q-63 0 -115 19v135q51 -18 115 -18q72 0 110.5 29.5t71.5 115.5l33 88z" />
<glyph unicode="z" horiz-adv-x="995" d="M92 0v111l570 778h-549v135h753v-113l-571 -776h598v-135h-801z" />
<glyph unicode="{" horiz-adv-x="806" d="M102 530v105h127q51 0 74 21.5t23 74.5v479q0 121 58 163t183 42h117v-104h-117q-59 0 -84.5 -28t-25.5 -87v-379q0 -49 -2 -86t-12.5 -64.5t-30 -48t-56.5 -34.5q55 -25 78 -68t23 -108v-437q0 -59 25.5 -86.5t84.5 -27.5h117v-105h-117q-63 0 -109 8.5t-75 32t-43 63.5 t-14 101v477q0 53 -22.5 74.5t-74.5 21.5h-127z" />
<glyph unicode="|" d="M164 -246v1659h123v-1659h-123z" />
<glyph unicode="}" horiz-adv-x="806" d="M113 -143h116q59 0 85 27.5t26 86.5v437q0 66 22.5 108.5t77.5 67.5q-37 14 -56 34.5t-29.5 48t-12.5 64.5t-2 86v379q0 59 -25.5 87t-85.5 28h-116v104h116q129 0 185.5 -51t56.5 -174v-459q0 -53 22.5 -74.5t73.5 -21.5h127v-105h-127q-51 0 -73.5 -21.5t-22.5 -74.5 v-457q0 -123 -57.5 -174t-184.5 -51h-116v105z" />
<glyph unicode="&#xa0;" />
<glyph unicode="&#xa1;" horiz-adv-x="493" d="M133 -307l57 928h113l57 -928h-227zM147 838v186h199v-186h-199z" />
<glyph unicode="&#xa2;" horiz-adv-x="1056" d="M113 610v111q0 129 22.5 217t66.5 143.5t112.5 82t160.5 32.5v176h139v-176q168 -12 249 -90t81 -248h-160q-2 55 -13 94t-38.5 63.5t-73.5 36t-114 11.5q-78 0 -129 -14.5t-84 -53.5t-46.5 -104.5t-13.5 -169.5v-111q0 -104 13.5 -170.5t46.5 -105.5t84 -53.5t129 -14.5 q68 0 114 11.5t73.5 36t38.5 63.5t13 96h160q0 -172 -81 -250t-249 -90v-174h-139v174q-92 6 -160.5 33t-113.5 82t-66.5 143t-21.5 219z" />
<glyph unicode="&#xa3;" horiz-adv-x="1150" d="M102 0v143q117 0 168.5 60.5t51.5 187.5q0 43 -12.5 90t-28.5 101h-179v114h142q-23 72 -42.5 141.5t-19.5 151.5q0 193 106.5 278t282.5 85q209 0 300.5 -83t91.5 -278h-164q0 123 -52.5 170t-175.5 47q-121 0 -173 -51t-52 -168q0 -78 17.5 -149.5t37.5 -143.5h256 v-114h-231q14 -47 23.5 -92.5t9.5 -88.5q0 -92 -25.5 -155.5t-83.5 -102.5h363q90 0 131 38t41 136h164q0 -82 -15.5 -141t-52.5 -98t-96.5 -58.5t-147.5 -19.5h-635z" />
<glyph unicode="&#xa4;" horiz-adv-x="1269" d="M102 137l152 176q-49 106 -49 299v109q0 190 47 293l-150 176l97 82l131 -154q53 43 127.5 61.5t177.5 18.5q100 0 176 -18.5t129 -61.5l131 154l96 -82l-151 -176q49 -109 49 -293v-109q0 -193 -49 -299l151 -176l-96 -82l-133 156q-53 -41 -128 -59.5t-175 -18.5 q-102 0 -176 18.5t-127 59.5l-133 -156zM365 612q0 -104 13 -170.5t44 -104.5t83 -53.5t130 -15.5t130 15.5t83 53.5t44 104.5t13 170.5v109q0 102 -13 168.5t-44 104.5t-83 53.5t-130 15.5t-130 -15.5t-83 -53.5t-44 -104.5t-13 -168.5v-109z" />
<glyph unicode="&#xa5;" horiz-adv-x="1101" d="M80 1331h182l287 -649h4l287 649h182l-389 -811v-37h282v-94h-282v-143h282v-94h-282v-152h-164v152h-283v94h283v143h-283v94h283v37z" />
<glyph unicode="&#xa6;" d="M164 -246v697h123v-697h-123zM164 717v696h123v-696h-123z" />
<glyph unicode="&#xa7;" horiz-adv-x="1155" d="M123 532q0 80 38 140.5t103 101.5q-63 41 -92 100.5t-29 147.5q0 154 106.5 242t319.5 88q229 0 332 -84t103 -275h-162q0 127 -64.5 176.5t-206.5 49.5q-141 0 -202.5 -49.5t-61.5 -147.5q0 -49 14.5 -83t47 -57.5t88 -39t139.5 -25.5q129 -16 213 -41.5t134 -66.5 t69.5 -99.5t19.5 -138.5t-39 -141.5t-104 -102.5q66 -39 94.5 -99t28.5 -146q0 -154 -106.5 -242t-319.5 -88q-231 0 -332.5 84t-101.5 274h161q0 -127 64.5 -176t206.5 -49q141 0 202.5 49t61.5 148q0 49 -14.5 82.5t-47 57t-89 39t-138.5 25.5q-129 14 -213 41t-134 68 t-69.5 99.5t-19.5 137.5zM285 543q0 -53 13 -91t49 -65t98.5 -45t160.5 -31q88 -12 160 -30q104 51 104 180q0 51 -13 90t-49 66.5t-98.5 45t-160.5 29.5q-47 6 -86 13.5t-74 17.5q-104 -53 -104 -180z" />
<glyph unicode="&#xa9;" horiz-adv-x="1585" d="M123 516v299q0 131 40 235.5t123 177t209 111.5t298 39q170 0 295.5 -39t208.5 -111.5t124 -177t41 -235.5v-299q0 -262 -164.5 -412.5t-504.5 -150.5q-336 0 -503 150.5t-167 412.5zM248 524q0 -231 134 -342.5t411 -111.5q276 0 410 111.5t134 342.5v283 q0 455 -544 455q-545 0 -545 -455v-283zM463 604v119q0 174 77.5 243.5t241.5 69.5q174 0 241 -66.5t67 -195.5h-121q0 80 -39 115t-148 35q-53 0 -90 -9.5t-60.5 -32t-34.5 -61.5t-11 -98v-119q0 -113 43 -158t153 -45q109 0 148 36t39 114h121q0 -61 -14.5 -110.5 t-50.5 -82t-95.5 -50t-147.5 -17.5q-80 0 -139 16.5t-99 53t-60.5 96t-20.5 147.5z" />
<glyph unicode="&#xaa;" horiz-adv-x="876" d="M92 731q0 104 63.5 165.5t196.5 72.5l279 18v96q0 90 -44 122t-149 32q-102 0 -142 -35t-40 -112h-133q0 147 81 204.5t234 57.5q92 0 154.5 -15.5t100.5 -48.5t54.5 -84t16.5 -121v-569h-90l-31 80q-55 -49 -122.5 -72.5t-141.5 -23.5q-287 0 -287 233zM227 737 q0 -127 160 -127q76 0 133.5 23.5t110.5 71.5v192l-266 -27q-74 -8 -106 -41.5t-32 -91.5z" />
<glyph unicode="&#xab;" horiz-adv-x="1011" d="M123 512l283 369h147l-285 -369l285 -369h-147zM459 512l282 369h148l-285 -369l285 -369h-148z" />
<glyph unicode="&#xac;" horiz-adv-x="1058" d="M113 690v127h833v-528h-127v401h-706z" />
<glyph unicode="&#xad;" horiz-adv-x="716" d="M102 512v135h512v-135h-512z" />
<glyph unicode="&#xae;" horiz-adv-x="1585" d="M123 516v299q0 131 40 235.5t123 177t209 111.5t298 39q170 0 295.5 -39t208.5 -111.5t124 -177t41 -235.5v-299q0 -262 -164.5 -412.5t-504.5 -150.5q-172 0 -299 39t-209 111.5t-122 177t-40 235.5zM248 524q0 -231 134 -342.5t411 -111.5q276 0 410 111.5t134 342.5 v283q0 455 -544 455q-545 0 -545 -455v-283zM518 299v733h324q139 0 197.5 -53t58.5 -172q0 -96 -37 -145.5t-88 -73.5l143 -289h-135l-131 266h-207v-266h-125zM643 676h201q72 0 99.5 37t27.5 90q0 59 -28 89t-93 30h-207v-246z" />
<glyph unicode="&#xaf;" horiz-adv-x="757" d="M143 1167v123h471v-123h-471z" />
<glyph unicode="&#xb0;" horiz-adv-x="839" d="M102 1028q0 94 19.5 156.5t59.5 99.5t99.5 52.5t139.5 15.5t139 -15.5t99 -52.5t59.5 -99.5t19.5 -156.5q0 -96 -19.5 -158.5t-59.5 -99.5t-99 -52.5t-139 -15.5t-139.5 15.5t-99.5 52.5t-59.5 99.5t-19.5 158.5zM233 1034q0 -68 10.5 -109.5t33 -65t58.5 -33t85 -9.5 t84 8.5t57.5 31t32.5 62t10 103.5v6q0 125 -44 168t-140 43q-98 0 -142.5 -41t-44.5 -164z" />
<glyph unicode="&#xb1;" horiz-adv-x="1058" d="M113 0v127h833v-127h-833zM113 641v127h352v354h127v-354h354v-127h-354v-354h-127v354h-352z" />
<glyph unicode="&#xb4;" horiz-adv-x="497" d="M123 1126l67 246h185l-162 -246h-90z" />
<glyph unicode="&#xb5;" horiz-adv-x="1081" d="M133 -348v1372h160v-807q61 -49 134 -75.5t146 -26.5q55 0 96.5 10t67 35.5t38.5 69.5t13 112v682h160v-682q0 -98 -18.5 -168t-58.5 -113t-102 -62t-153 -19q-88 0 -164.5 28.5t-158.5 85.5v-442h-160z" />
<glyph unicode="&#xb6;" horiz-adv-x="1447" d="M109 827q0 143 33.5 240.5t98 156t160 83t217.5 24.5h642v-1687h-138v1564h-153v-1564h-138v694h-217q-258 0 -381.5 115.5t-123.5 373.5z" />
<glyph unicode="&#xb7;" horiz-adv-x="466" d="M133 575v199h201v-199h-201z" />
<glyph unicode="&#xba;" horiz-adv-x="909" d="M111 881v88q0 111 20.5 184.5t62.5 117.5t106.5 62.5t154.5 18.5t155.5 -18.5t107.5 -62.5t62.5 -118t20.5 -184v-88q0 -111 -20.5 -184.5t-62.5 -117.5t-107.5 -62.5t-155.5 -18.5t-156 18.5t-107.5 62.5t-61 117.5t-19.5 184.5zM238 881q0 -84 10 -137.5t35.5 -84 t67.5 -42t104 -11.5q61 0 103 11.5t67.5 42t36 84t10.5 137.5v88q0 82 -10.5 135t-36 84t-67.5 43t-103 12t-103.5 -12t-68 -43t-35.5 -84t-10 -135v-88z" />
<glyph unicode="&#xbb;" horiz-adv-x="1011" d="M123 143l285 369l-285 369h147l283 -369l-283 -369h-147zM459 143l284 369l-284 369h147l283 -369l-283 -369h-147z" />
<glyph unicode="&#xbf;" horiz-adv-x="1058" d="M102 66q0 203 95.5 298t279.5 109l12 150h103q8 -70 14 -138.5t12 -138.5q-94 0 -160.5 -12t-109.5 -44t-62.5 -86t-19.5 -138q0 -135 64.5 -194.5t210.5 -59.5q131 0 191.5 57t60.5 174h163q0 -176 -98 -273.5t-315 -97.5q-233 0 -337 96.5t-104 297.5zM442 838v186h199 v-186h-199z" />
<glyph unicode="&#xc0;" horiz-adv-x="1071" d="M41 0l391 1331h207l391 -1331h-170l-92 324h-465l-90 -324h-172zM332 1679h184l68 -245h-90zM340 463h391l-192 706h-4z" />
<glyph unicode="&#xc1;" horiz-adv-x="1071" d="M41 0l391 1331h207l391 -1331h-170l-92 324h-465l-90 -324h-172zM340 463h391l-192 706h-4zM498 1434l67 245h185l-162 -245h-90z" />
<glyph unicode="&#xc2;" horiz-adv-x="1071" d="M41 0l391 1331h207l391 -1331h-170l-92 324h-465l-90 -324h-172zM313 1434l133 245h177l133 -245h-109l-112 141l-113 -141h-109zM340 463h391l-192 706h-4z" />
<glyph unicode="&#xc4;" horiz-adv-x="1071" d="M41 0l391 1331h207l391 -1331h-170l-92 324h-465l-90 -324h-172zM293 1470v168h168v-168h-168zM340 463h391l-192 706h-4zM608 1470v168h168v-168h-168z" />
<glyph unicode="&#xc5;" horiz-adv-x="1071" d="M41 0l391 1331h207l391 -1331h-170l-92 324h-465l-90 -324h-172zM334 1595q0 86 52 130t151 44q96 0 148 -44t52 -130t-52 -130t-148 -44q-98 0 -150.5 44t-52.5 130zM340 463h391l-192 706h-4zM442 1595q0 -41 21.5 -61.5t73.5 -20.5q49 0 70.5 20.5t21.5 61.5 t-21.5 61.5t-70.5 20.5q-51 0 -73 -20.5t-22 -61.5z" />
<glyph unicode="&#xc6;" horiz-adv-x="1740" d="M41 0l750 1331h847v-143h-594v-443h521v-139h-521v-463h594v-143h-757v324h-488l-180 -324h-172zM471 463h410v725h-4z" />
<glyph unicode="&#xc7;" horiz-adv-x="1116" d="M113 459v413q0 131 25.5 222.5t80.5 148.5t141 83t207 26q223 0 330 -92.5t107 -307.5h-164q0 143 -63.5 199.5t-209.5 56.5q-80 0 -135 -15t-90 -52t-50.5 -99.5t-15.5 -156.5v-439q0 -94 15.5 -156.5t49.5 -99t90 -52t136 -15.5q143 0 208 54t65 200h164 q0 -207 -98.5 -299t-305.5 -98l-20 -74q68 -4 104.5 -37t36.5 -105q0 -84 -50 -120.5t-157 -36.5h-135v98h131q51 0 67.5 15.5t16.5 43.5q0 31 -16.5 45.5t-67.5 14.5h-55l49 158q-102 6 -176 33.5t-122 85t-70.5 144.5t-22.5 214z" />
<glyph unicode="&#xc8;" horiz-adv-x="1003" d="M143 0v1331h758v-143h-594v-443h520v-139h-520v-463h594v-143h-758zM375 1679h184l68 -245h-90z" />
<glyph unicode="&#xc9;" horiz-adv-x="1003" d="M143 0v1331h758v-143h-594v-443h520v-139h-520v-463h594v-143h-758zM475 1434l68 245h184l-162 -245h-90z" />
<glyph unicode="&#xca;" horiz-adv-x="1003" d="M143 0v1331h758v-143h-594v-443h520v-139h-520v-463h594v-143h-758zM307 1434l133 245h176l134 -245h-109l-113 141l-112 -141h-109z" />
<glyph unicode="&#xcb;" horiz-adv-x="1024" d="M143 0v1331h758v-143h-594v-443h520v-139h-520v-463h594v-143h-758zM270 1470v168h168v-168h-168zM586 1470v168h168v-168h-168z" />
<glyph unicode="&#xcc;" d="M100 1679h185l67 -245h-90zM143 0v1331h164v-1331h-164z" />
<glyph unicode="&#xcd;" d="M143 0v1331h164v-1331h-164zM190 1434l68 245h184l-161 -245h-91z" />
<glyph unicode="&#xce;" d="M4 1434l133 245h176l133 -245h-108l-113 141l-112 -141h-109zM143 0v1331h164v-1331h-164z" />
<glyph unicode="&#xcf;" d="M-16 1470v168h168v-168h-168zM143 0v1331h164v-1331h-164zM299 1470v168h168v-168h-168z" />
<glyph unicode="&#xd0;" horiz-adv-x="1161" d="M25 616v121h118v594h402q119 0 211 -20.5t154.5 -72.5t95 -145.5t32.5 -236.5v-381q0 -145 -32.5 -237.5t-95 -144.5t-154.5 -72.5t-211 -20.5h-402v616h-118zM307 143h236q84 0 146.5 14.5t103.5 51.5t61 99.5t20 158.5v401q0 104 -22.5 167t-64.5 96.5t-103 45 t-141 11.5h-236v-451h246v-121h-246v-473z" />
<glyph unicode="&#xd1;" horiz-adv-x="1175" d="M143 0v1331h209l516 -1095v1095h164v-1331h-209l-516 1096v-1096h-164zM297 1446q0 102 37 155.5t127 53.5q45 0 75.5 -16.5t57.5 -37t51.5 -37t56.5 -16.5q45 0 59.5 24.5t14.5 61.5h103q0 -102 -37 -155.5t-127 -53.5q-45 0 -77 16.5t-57.5 37t-50 37t-57.5 16.5 q-45 0 -59.5 -24.5t-14.5 -61.5h-102z" />
<glyph unicode="&#xd2;" horiz-adv-x="1144" d="M113 451v430q0 133 27.5 223t84 145.5t143.5 79t205 23.5q119 0 205 -24.5t142.5 -80t84 -145.5t27.5 -221v-430q0 -133 -27.5 -223.5t-84 -145.5t-142.5 -78.5t-205 -23.5t-205.5 23.5t-143 78.5t-84 145t-27.5 224zM276 451q0 -98 17.5 -162t53.5 -100.5t92.5 -51 t133.5 -14.5q76 0 132.5 14.5t92.5 51t53 100t17 162.5v430q0 98 -17 161.5t-53 100.5t-92.5 51t-132.5 14q-78 0 -134 -14t-92 -51t-53.5 -101.5t-17.5 -162.5v-428zM403 1679h185l67 -245h-90z" />
<glyph unicode="&#xd3;" horiz-adv-x="1144" d="M113 451v430q0 133 27.5 223t84 145.5t143.5 79t205 23.5q119 0 205 -24.5t142.5 -80t84 -145.5t27.5 -221v-430q0 -133 -27.5 -223.5t-84 -145.5t-142.5 -78.5t-205 -23.5t-205.5 23.5t-143 78.5t-84 145t-27.5 224zM276 451q0 -98 17.5 -162t53.5 -100.5t92.5 -51 t133.5 -14.5q76 0 132.5 14.5t92.5 51t53 100t17 162.5v430q0 98 -17 161.5t-53 100.5t-92.5 51t-132.5 14q-78 0 -134 -14t-92 -51t-53.5 -101.5t-17.5 -162.5v-428zM545 1434l67 245h185l-162 -245h-90z" />
<glyph unicode="&#xd4;" horiz-adv-x="1144" d="M113 451v430q0 133 27.5 223t84 145.5t143.5 79t205 23.5q119 0 205 -24.5t142.5 -80t84 -145.5t27.5 -221v-430q0 -133 -27.5 -223.5t-84 -145.5t-142.5 -78.5t-205 -23.5t-205.5 23.5t-143 78.5t-84 145t-27.5 224zM276 451q0 -98 17.5 -162t53.5 -100.5t92.5 -51 t133.5 -14.5q76 0 132.5 14.5t92.5 51t53 100t17 162.5v430q0 98 -17 161.5t-53 100.5t-92.5 51t-132.5 14q-78 0 -134 -14t-92 -51t-53.5 -101.5t-17.5 -162.5v-428zM350 1434l133 245h176l134 -245h-109l-113 141l-112 -141h-109z" />
<glyph unicode="&#xd5;" horiz-adv-x="1144" d="M113 451v430q0 133 27.5 223t84 145.5t143.5 79t205 23.5q119 0 205 -24.5t142.5 -80t84 -145.5t27.5 -221v-430q0 -133 -27.5 -223.5t-84 -145.5t-142.5 -78.5t-205 -23.5t-205.5 23.5t-143 78.5t-84 145t-27.5 224zM276 451q0 -98 17.5 -162t53.5 -100.5t92.5 -51 t133.5 -14.5q76 0 132.5 14.5t92.5 51t53 100t17 162.5v430q0 98 -17 161.5t-53 100.5t-92.5 51t-132.5 14q-78 0 -134 -14t-92 -51t-53.5 -101.5t-17.5 -162.5v-428zM281 1446q0 102 36.5 155.5t126.5 53.5q45 0 76 -16.5t57.5 -37t51 -37t57.5 -16.5q45 0 59.5 24.5 t14.5 61.5h102q0 -102 -37 -155.5t-127 -53.5q-45 0 -76.5 16.5t-57 37t-50.5 37t-57 16.5q-45 0 -59.5 -24.5t-14.5 -61.5h-102z" />
<glyph unicode="&#xd6;" horiz-adv-x="1144" d="M113 451v430q0 133 27.5 223t84 145.5t143.5 79t205 23.5q119 0 205 -24.5t142.5 -80t84 -145.5t27.5 -221v-430q0 -133 -27.5 -223.5t-84 -145.5t-142.5 -78.5t-205 -23.5t-205.5 23.5t-143 78.5t-84 145t-27.5 224zM276 451q0 -98 17.5 -162t53.5 -100.5t92.5 -51 t133.5 -14.5q76 0 132.5 14.5t92.5 51t53 100t17 162.5v430q0 98 -17 161.5t-53 100.5t-92.5 51t-132.5 14q-78 0 -134 -14t-92 -51t-53.5 -101.5t-17.5 -162.5v-428zM330 1470v168h168v-168h-168zM645 1470v168h168v-168h-168z" />
<glyph unicode="&#xd7;" horiz-adv-x="962" d="M113 283l278 280l-278 277l88 90l280 -279l279 279l88 -90l-279 -277l281 -280l-90 -90l-279 280l-280 -280z" />
<glyph unicode="&#xd8;" horiz-adv-x="1144" d="M82 -41l102 172q-72 106 -71 320v430q0 133 27.5 223t84 145.5t143.5 79t205 23.5q92 0 166 -14.5t129 -49.5l50 84h135l-99 -164q78 -109 78 -327v-430q0 -133 -27.5 -223.5t-84 -145.5t-142.5 -78.5t-205 -23.5q-201 0 -307 67l-51 -88h-133zM276 449q0 -82 13 -140 l499 844q-37 33 -90 45t-125 12q-78 0 -134 -14t-92 -52t-53.5 -102.5t-17.5 -162.5v-430zM348 184q35 -37 91.5 -51t133.5 -14q76 0 132.5 14t92.5 52t53 101.5t17 162.5v432q0 88 -16 153z" />
<glyph unicode="&#xd9;" horiz-adv-x="1177" d="M143 414v917h164v-921q0 -162 65.5 -225.5t215.5 -63.5t216 63.5t66 225.5v921h164v-917q0 -127 -28.5 -211t-85 -134.5t-140.5 -71t-192 -20.5q-109 0 -192 20.5t-139 71t-85 134.5t-29 211zM463 1679h184l68 -245h-90z" />
<glyph unicode="&#xda;" horiz-adv-x="1177" d="M143 414v917h164v-921q0 -162 65.5 -225.5t215.5 -63.5t216 63.5t66 225.5v921h164v-917q0 -127 -28.5 -211t-85 -134.5t-140.5 -71t-192 -20.5q-109 0 -192 20.5t-139 71t-85 134.5t-29 211zM532 1434l68 245h184l-161 -245h-91z" />
<glyph unicode="&#xdb;" horiz-adv-x="1177" d="M143 414v917h164v-921q0 -162 65.5 -225.5t215.5 -63.5t216 63.5t66 225.5v921h164v-917q0 -127 -28.5 -211t-85 -134.5t-140.5 -71t-192 -20.5q-109 0 -192 20.5t-139 71t-85 134.5t-29 211zM367 1434l133 245h176l133 -245h-109l-112 141l-113 -141h-108z" />
<glyph unicode="&#xdc;" horiz-adv-x="1177" d="M143 414v917h164v-921q0 -162 65.5 -225.5t215.5 -63.5t216 63.5t66 225.5v921h164v-917q0 -127 -28.5 -211t-85 -134.5t-140.5 -71t-192 -20.5q-109 0 -192 20.5t-139 71t-85 134.5t-29 211zM346 1470v168h168v-168h-168zM662 1470v168h167v-168h-167z" />
<glyph unicode="&#xdd;" horiz-adv-x="1044" d="M51 1331h182l287 -649h4l287 649h182l-389 -813v-518h-164v518zM492 1434l67 245h184l-161 -245h-90z" />
<glyph unicode="&#xde;" horiz-adv-x="1112" d="M143 0v1331h164v-239h258q117 0 202 -18.5t141.5 -65.5t84 -128t27.5 -206q0 -127 -27.5 -209t-84 -128t-141.5 -63.5t-202 -17.5h-258v-256h-164zM307 399h260q76 0 129.5 10.5t87 41t50 84t16.5 139.5t-16.5 139t-50 84t-87 41t-129.5 10h-260v-549z" />
<glyph unicode="&#xdf;" horiz-adv-x="1128" d="M133 0v1038q0 180 94.5 267.5t296.5 87.5q207 0 299 -87t92 -259q0 -117 -49 -189t-139 -102q70 -10 127 -34t98 -67t62.5 -107.5t21.5 -158.5v-14q0 -117 -32.5 -194t-90 -121t-136.5 -62t-173 -18q-53 0 -108.5 5t-102.5 15v139q53 -14 102.5 -19t102.5 -5 q137 0 208 55t71 205v14q0 88 -20.5 143.5t-59.5 87t-92.5 43t-120.5 11.5h-119v135h61q68 0 112 16.5t70.5 46t37 71.5t10.5 93q0 117 -56.5 169t-175.5 52q-68 0 -111.5 -15t-70.5 -44t-38 -68.5t-11 -91.5v-1038h-160z" />
<glyph unicode="&#xe0;" horiz-adv-x="1026" d="M82 270q0 133 80 208t246 85l346 23v123q0 53 -10.5 91t-37 62.5t-72.5 35.5t-116 11q-129 0 -182 -43t-53 -147h-160q0 92 26.5 154.5t76.5 100.5t124 54t168 16q109 0 183.5 -18t121.5 -58t68.5 -103.5t21.5 -155.5v-709h-106l-37 100q-76 -59 -152.5 -91t-177.5 -32 q-176 0 -267 74t-91 219zM244 279q0 -86 53.5 -126t155.5 -40q98 0 165.5 28.5t135.5 87.5v252l-330 -35q-92 -10 -136 -50t-44 -117zM342 1372h184l68 -246h-90z" />
<glyph unicode="&#xe1;" horiz-adv-x="1026" d="M82 270q0 133 80 208t246 85l346 23v123q0 53 -10.5 91t-37 62.5t-72.5 35.5t-116 11q-129 0 -182 -43t-53 -147h-160q0 92 26.5 154.5t76.5 100.5t124 54t168 16q109 0 183.5 -18t121.5 -58t68.5 -103.5t21.5 -155.5v-709h-106l-37 100q-76 -59 -152.5 -91t-177.5 -32 q-176 0 -267 74t-91 219zM244 279q0 -86 53.5 -126t155.5 -40q98 0 165.5 28.5t135.5 87.5v252l-330 -35q-92 -10 -136 -50t-44 -117zM479 1126l68 246h184l-162 -246h-90z" />
<glyph unicode="&#xe2;" horiz-adv-x="1026" d="M82 270q0 133 80 208t246 85l346 23v123q0 53 -10.5 91t-37 62.5t-72.5 35.5t-116 11q-129 0 -182 -43t-53 -147h-160q0 92 26.5 154.5t76.5 100.5t124 54t168 16q109 0 183.5 -18t121.5 -58t68.5 -103.5t21.5 -155.5v-709h-106l-37 100q-76 -59 -152.5 -91t-177.5 -32 q-176 0 -267 74t-91 219zM244 279q0 -86 53.5 -126t155.5 -40q98 0 165.5 28.5t135.5 87.5v252l-330 -35q-92 -10 -136 -50t-44 -117zM291 1126l133 246h176l133 -246h-108l-113 142l-113 -142h-108z" />
<glyph unicode="&#xe4;" horiz-adv-x="1026" d="M82 270q0 133 80 208t246 85l346 23v123q0 53 -10.5 91t-37 62.5t-72.5 35.5t-116 11q-129 0 -182 -43t-53 -147h-160q0 92 26.5 154.5t76.5 100.5t124 54t168 16q109 0 183.5 -18t121.5 -58t68.5 -103.5t21.5 -155.5v-709h-106l-37 100q-76 -59 -152.5 -91t-177.5 -32 q-176 0 -267 74t-91 219zM244 279q0 -86 53.5 -126t155.5 -40q98 0 165.5 28.5t135.5 87.5v252l-330 -35q-92 -10 -136 -50t-44 -117zM270 1163v168h168v-168h-168zM586 1163v168h168v-168h-168z" />
<glyph unicode="&#xe5;" horiz-adv-x="1026" d="M82 270q0 133 80 208t246 85l346 23v123q0 53 -10.5 91t-37 62.5t-72.5 35.5t-116 11q-129 0 -182 -43t-53 -147h-160q0 92 26.5 154.5t76.5 100.5t124 54t168 16q109 0 183.5 -18t121.5 -58t68.5 -103.5t21.5 -155.5v-709h-106l-37 100q-76 -59 -152.5 -91t-177.5 -32 q-176 0 -267 74t-91 219zM244 279q0 -86 53.5 -126t155.5 -40q98 0 165.5 28.5t135.5 87.5v252l-330 -35q-92 -10 -136 -50t-44 -117zM311 1288q0 86 52.5 130t150.5 44q96 0 148.5 -44t52.5 -130t-52.5 -130t-148.5 -44q-98 0 -150.5 44t-52.5 130zM420 1288 q0 -41 21.5 -61.5t72.5 -20.5q49 0 70.5 20.5t21.5 61.5t-21.5 61.5t-70.5 20.5q-51 0 -72.5 -20.5t-21.5 -61.5z" />
<glyph unicode="&#xe6;" horiz-adv-x="1687" d="M82 274q0 152 94 224.5t254 72.5h324v138q0 53 -10.5 91t-37 62.5t-72.5 35.5t-116 11q-129 0 -182 -43t-53 -147h-160q0 92 26.5 154.5t76.5 100.5t124 54t168 16q135 0 215 -28.5t117 -93.5q49 68 131 95t201 27q104 0 181 -21.5t129 -76.5t77.5 -147t25.5 -234v-114 h-682q0 -100 12.5 -166t45.5 -104t86 -53t137 -15q111 0 193.5 11t160.5 28v-136q-72 -16 -160 -26t-196 -10q-135 0 -223 31.5t-135 117.5q-49 -86 -139.5 -117.5t-237.5 -31.5q-180 0 -277.5 72.5t-97.5 221.5zM244 283q0 -90 53 -130t164 -40q88 0 144.5 14t89 52 t46 103.5t13.5 168.5h-310q-88 0 -144 -37t-56 -131zM913 571h523q0 96 -10.5 162t-38 105t-76.5 55t-129 16q-78 0 -130.5 -16t-83 -54t-43 -103.5t-12.5 -164.5z" />
<glyph unicode="&#xe7;" horiz-adv-x="1036" d="M102 457v110q0 141 27 233.5t80 146.5t135 75.5t191 21.5q203 0 301 -76.5t98 -262.5h-160q0 55 -12 94t-40 63.5t-72.5 35.5t-114.5 11q-76 0 -128.5 -14t-84 -53t-46 -104.5t-14.5 -170.5v-110q0 -104 14.5 -171t46 -106t84 -53t128.5 -14q70 0 114.5 11t72.5 35.5 t40 63.5t12 96h160q0 -182 -90 -258.5t-277 -80.5l-20 -74q68 -4 104.5 -37t36.5 -105q0 -84 -50 -120.5t-157 -36.5h-135v98h131q51 0 67.5 15.5t16.5 43.5q0 31 -16.5 45.5t-67.5 14.5h-55l49 156q-94 6 -163.5 32.5t-115 82t-68 143.5t-22.5 219z" />
<glyph unicode="&#xe8;" horiz-adv-x="1036" d="M102 457v110q0 141 27 233.5t81 146.5t134 75.5t186 21.5q104 0 181 -21.5t129.5 -74.5t78 -145t25.5 -234v-118h-682q0 -100 13.5 -166t46 -104t87 -53t134.5 -15q111 0 193.5 11t160.5 28v-136q-72 -16 -160 -26t-196 -10q-111 0 -193 20t-136 73.5t-82 145.5t-28 238z M262 571h522q0 94 -10 159t-37.5 104.5t-77 57t-129.5 17.5q-78 0 -130 -16t-82.5 -56t-43 -104.5t-12.5 -161.5zM391 1372h184l68 -246h-90z" />
<glyph unicode="&#xe9;" horiz-adv-x="1036" d="M102 457v110q0 141 27 233.5t81 146.5t134 75.5t186 21.5q104 0 181 -21.5t129.5 -74.5t78 -145t25.5 -234v-118h-682q0 -100 13.5 -166t46 -104t87 -53t134.5 -15q111 0 193.5 11t160.5 28v-136q-72 -16 -160 -26t-196 -10q-111 0 -193 20t-136 73.5t-82 145.5t-28 238z M262 571h522q0 94 -10 159t-37.5 104.5t-77 57t-129.5 17.5q-78 0 -130 -16t-82.5 -56t-43 -104.5t-12.5 -161.5zM502 1126l67 246h185l-162 -246h-90z" />
<glyph unicode="&#xea;" horiz-adv-x="1036" d="M102 457v110q0 141 27 233.5t81 146.5t134 75.5t186 21.5q104 0 181 -21.5t129.5 -74.5t78 -145t25.5 -234v-118h-682q0 -100 13.5 -166t46 -104t87 -53t134.5 -15q111 0 193.5 11t160.5 28v-136q-72 -16 -160 -26t-196 -10q-111 0 -193 20t-136 73.5t-82 145.5t-28 238z M262 571h522q0 94 -10 159t-37.5 104.5t-77 57t-129.5 17.5q-78 0 -130 -16t-82.5 -56t-43 -104.5t-12.5 -161.5zM297 1126l133 246h176l133 -246h-108l-113 142l-112 -142h-109z" />
<glyph unicode="&#xeb;" horiz-adv-x="1036" d="M102 457v110q0 141 27 233.5t81 146.5t134 75.5t186 21.5q104 0 181 -21.5t129.5 -74.5t78 -145t25.5 -234v-118h-682q0 -100 13.5 -166t46 -104t87 -53t134.5 -15q111 0 193.5 11t160.5 28v-136q-72 -16 -160 -26t-196 -10q-111 0 -193 20t-136 73.5t-82 145.5t-28 238z M262 571h522q0 94 -10 159t-37.5 104.5t-77 57t-129.5 17.5q-78 0 -130 -16t-82.5 -56t-43 -104.5t-12.5 -161.5zM287 1163v168h168v-168h-168zM602 1163v168h168v-168h-168z" />
<glyph unicode="&#xec;" horiz-adv-x="436" d="M92 1372h184l68 -246h-90zM137 0v1024h160v-1024h-160z" />
<glyph unicode="&#xed;" horiz-adv-x="436" d="M137 0v1024h160v-1024h-160zM182 1126l68 246h184l-162 -246h-90z" />
<glyph unicode="&#xee;" horiz-adv-x="436" d="M-2 1126l133 246h176l133 -246h-108l-113 142l-113 -142h-108zM137 0v1024h160v-1024h-160z" />
<glyph unicode="&#xef;" horiz-adv-x="436" d="M-23 1163v168h168v-168h-168zM137 0v1024h160v-1024h-160zM293 1163v168h168v-168h-168z" />
<glyph unicode="&#xf0;" horiz-adv-x="1083" d="M102 436q0 203 88.5 314.5t294.5 111.5q86 0 166 -23.5t150 -64.5v178q0 68 -7.5 117t-23.5 84l-135 -117l-68 78l133 115q-55 29 -163 28q-92 0 -181 -36v139q37 16 84 24.5t95 8.5q184 0 282 -66l135 117l68 -78l-129 -111q70 -102 70 -301v-505q0 -123 -24 -212.5 t-76 -146.5t-134 -83.5t-201 -26.5q-229 0 -326.5 118.5t-97.5 337.5zM262 432q0 -160 58.5 -237.5t207.5 -77.5q76 0 128.5 17.5t84 56t46 103t14.5 159.5v202q-66 41 -135.5 63.5t-147.5 22.5q-147 0 -201.5 -79.5t-54.5 -229.5z" />
<glyph unicode="&#xf1;" horiz-adv-x="1081" d="M133 0v1024h107l36 -100q78 59 157 89.5t181 30.5q88 0 151.5 -18t103.5 -60t59.5 -112t19.5 -172v-682h-160v682q0 68 -13 112t-38.5 69.5t-66.5 35.5t-97 10q-74 0 -146.5 -26.5t-133.5 -75.5v-807h-160zM250 1139q0 102 37 155.5t127 53.5q45 0 75.5 -16.5t57 -37 t51.5 -37t57 -16.5q45 0 59.5 24.5t14.5 61.5h102q0 -102 -36.5 -155.5t-126.5 -53.5q-45 0 -77 16.5t-57.5 37t-50 37t-57.5 16.5q-45 0 -59.5 -24.5t-14.5 -61.5h-102z" />
<glyph unicode="&#xf2;" horiz-adv-x="1046" d="M92 457v110q0 137 25.5 229.5t78 147.5t134.5 77.5t192 22.5q113 0 194 -22.5t134 -77.5t78.5 -147t25.5 -230v-110q0 -139 -25.5 -231.5t-77.5 -147.5t-134 -78t-195 -23t-194.5 23t-134 78t-77 147t-24.5 232zM252 457q0 -104 13.5 -171t44 -105t82.5 -53t130 -15 t130.5 15t84 53t45 104.5t13.5 171.5v110q0 102 -13.5 169t-45 105t-84 53t-130.5 15t-130 -15t-82.5 -53t-44 -104.5t-13.5 -169.5v-110zM397 1372h185l67 -246h-90z" />
<glyph unicode="&#xf3;" horiz-adv-x="1046" d="M92 457v110q0 137 25.5 229.5t78 147.5t134.5 77.5t192 22.5q113 0 194 -22.5t134 -77.5t78.5 -147t25.5 -230v-110q0 -139 -25.5 -231.5t-77.5 -147.5t-134 -78t-195 -23t-194.5 23t-134 78t-77 147t-24.5 232zM252 457q0 -104 13.5 -171t44 -105t82.5 -53t130 -15 t130.5 15t84 53t45 104.5t13.5 171.5v110q0 102 -13.5 169t-45 105t-84 53t-130.5 15t-130 -15t-82.5 -53t-44 -104.5t-13.5 -169.5v-110zM492 1126l67 246h184l-161 -246h-90z" />
<glyph unicode="&#xf4;" horiz-adv-x="1046" d="M92 457v110q0 137 25.5 229.5t78 147.5t134.5 77.5t192 22.5q113 0 194 -22.5t134 -77.5t78.5 -147t25.5 -230v-110q0 -139 -25.5 -231.5t-77.5 -147.5t-134 -78t-195 -23t-194.5 23t-134 78t-77 147t-24.5 232zM252 457q0 -104 13.5 -171t44 -105t82.5 -53t130 -15 t130.5 15t84 53t45 104.5t13.5 171.5v110q0 102 -13.5 169t-45 105t-84 53t-130.5 15t-130 -15t-82.5 -53t-44 -104.5t-13.5 -169.5v-110zM301 1126l133 246h176l133 -246h-108l-113 142l-112 -142h-109z" />
<glyph unicode="&#xf5;" horiz-adv-x="1046" d="M92 457v110q0 137 25.5 229.5t78 147.5t134.5 77.5t192 22.5q113 0 194 -22.5t134 -77.5t78.5 -147t25.5 -230v-110q0 -139 -25.5 -231.5t-77.5 -147.5t-134 -78t-195 -23t-194.5 23t-134 78t-77 147t-24.5 232zM231 1139q0 102 37 155.5t127 53.5q45 0 76 -16.5 t57.5 -37t51 -37t57.5 -16.5q45 0 59.5 24.5t14.5 61.5h102q0 -102 -37 -155.5t-127 -53.5q-45 0 -76.5 16.5t-57.5 37t-50.5 37t-56.5 16.5q-45 0 -59.5 -24.5t-14.5 -61.5h-103zM252 457q0 -104 13.5 -171t44 -105t82.5 -53t130 -15t130.5 15t84 53t45 104.5t13.5 171.5 v110q0 102 -13.5 169t-45 105t-84 53t-130.5 15t-130 -15t-82.5 -53t-44 -104.5t-13.5 -169.5v-110z" />
<glyph unicode="&#xf6;" horiz-adv-x="1046" d="M92 457v110q0 137 25.5 229.5t78 147.5t134.5 77.5t192 22.5q113 0 194 -22.5t134 -77.5t78.5 -147t25.5 -230v-110q0 -139 -25.5 -231.5t-77.5 -147.5t-134 -78t-195 -23t-194.5 23t-134 78t-77 147t-24.5 232zM252 457q0 -104 13.5 -171t44 -105t82.5 -53t130 -15 t130.5 15t84 53t45 104.5t13.5 171.5v110q0 102 -13.5 169t-45 105t-84 53t-130.5 15t-130 -15t-82.5 -53t-44 -104.5t-13.5 -169.5v-110zM281 1163v168h168v-168h-168zM596 1163v168h168v-168h-168z" />
<glyph unicode="&#xf7;" horiz-adv-x="1058" d="M113 500v127h833v-127h-833zM440 156v170h178v-170h-178zM440 799v170h178v-170h-178z" />
<glyph unicode="&#xf8;" horiz-adv-x="1046" d="M61 -41l107 152q-41 55 -58.5 140t-17.5 206v110q0 137 25.5 229.5t78 147.5t134.5 77.5t192 22.5q84 0 149.5 -12t116.5 -41l52 74h135l-105 -147q84 -109 84 -351v-110q0 -139 -25.5 -231.5t-77.5 -147.5t-134 -78t-195 -23q-88 0 -154.5 13.5t-117.5 44.5l-53 -76 h-136zM252 457q0 -63 4 -112.5t14 -86.5l432 612q-31 23 -75.5 31t-104.5 8q-78 0 -130 -15t-82.5 -53t-44 -104.5t-13.5 -169.5v-110zM334 156q33 -25 78 -34t110 -9q78 0 130.5 15t84 53t45 104.5t13.5 171.5v110q0 133 -25 207z" />
<glyph unicode="&#xf9;" horiz-adv-x="1081" d="M133 340v684h160v-684q0 -68 13 -112t39 -69.5t67 -35.5t96 -10q74 0 146.5 27.5t133.5 76.5v807h160v-1024h-106l-37 100q-82 -61 -159 -90.5t-179 -29.5q-88 0 -151.5 18t-103.5 60t-59.5 111t-19.5 171zM385 1372h184l68 -246h-90z" />
<glyph unicode="&#xfa;" horiz-adv-x="1081" d="M133 340v684h160v-684q0 -68 13 -112t39 -69.5t67 -35.5t96 -10q74 0 146.5 27.5t133.5 76.5v807h160v-1024h-106l-37 100q-82 -61 -159 -90.5t-179 -29.5q-88 0 -151.5 18t-103.5 60t-59.5 111t-19.5 171zM498 1126l67 246h185l-162 -246h-90z" />
<glyph unicode="&#xfb;" horiz-adv-x="1081" d="M133 340v684h160v-684q0 -68 13 -112t39 -69.5t67 -35.5t96 -10q74 0 146.5 27.5t133.5 76.5v807h160v-1024h-106l-37 100q-82 -61 -159 -90.5t-179 -29.5q-88 0 -151.5 18t-103.5 60t-59.5 111t-19.5 171zM319 1126l134 246h176l133 -246h-109l-112 142l-113 -142h-109z " />
<glyph unicode="&#xfc;" horiz-adv-x="1081" d="M133 340v684h160v-684q0 -68 13 -112t39 -69.5t67 -35.5t96 -10q74 0 146.5 27.5t133.5 76.5v807h160v-1024h-106l-37 100q-82 -61 -159 -90.5t-179 -29.5q-88 0 -151.5 18t-103.5 60t-59.5 111t-19.5 171zM299 1163v168h168v-168h-168zM614 1163v168h168v-168h-168z" />
<glyph unicode="&#xfd;" horiz-adv-x="1013" d="M51 1024h174l281 -827h4l281 827h172l-422 -1163q-25 -66 -53.5 -110t-66.5 -70.5t-89 -38t-119 -11.5q-63 0 -115 19v135q51 -18 115 -18q72 0 110.5 29.5t71.5 115.5l33 88zM481 1126l68 246h184l-162 -246h-90z" />
<glyph unicode="&#xfe;" horiz-adv-x="1091" d="M133 -348v1720h160v-438q70 49 149.5 81t159.5 32q90 0 162 -19.5t122 -71t76.5 -141.5t26.5 -231v-146q0 -141 -26.5 -230t-76.5 -140.5t-122 -71t-162 -19.5q-80 0 -160 32t-149 81v-438h-160zM293 229q59 -53 138 -84.5t151 -31.5q63 0 110 15t78 52t45 101.5 t14 162.5v136q0 98 -14 162.5t-45 101.5t-78 52t-110 15q-72 0 -151 -32.5t-138 -90.5v-559z" />
<glyph unicode="&#xff;" horiz-adv-x="1013" d="M51 1024h174l281 -827h4l281 827h172l-422 -1163q-25 -66 -53.5 -110t-66.5 -70.5t-89 -38t-119 -11.5q-63 0 -115 19v135q51 -18 115 -18q72 0 110.5 29.5t71.5 115.5l33 88zM268 1163v168h168v-168h-168zM584 1163v168h168v-168h-168z" />
<glyph unicode="&#x152;" horiz-adv-x="1710" d="M113 461v407q0 131 29.5 220.5t88 142.5t145.5 76.5t204 23.5h1022v-143h-594v-443h520v-139h-520v-463h594v-143h-1022q-117 0 -204 23.5t-145.5 77t-88 142.5t-29.5 218zM276 461q0 -96 19.5 -157.5t57.5 -96.5t95.5 -49.5t131.5 -14.5h264v1045h-264 q-78 0 -134.5 -14.5t-94.5 -50.5t-56.5 -97t-18.5 -156v-409z" />
<glyph unicode="&#x153;" horiz-adv-x="1728" d="M92 457v110q0 137 25.5 229.5t78 147.5t134.5 77.5t192 22.5q135 0 220 -32.5t132 -116.5q47 84 133.5 116.5t215.5 32.5q104 0 181 -21.5t129 -76.5t77.5 -147t25.5 -234v-114h-682q0 -102 13.5 -168t46.5 -104t87 -52t134 -14q111 0 193.5 11t160.5 28v-136 q-72 -16 -160 -26t-196 -10q-135 0 -223 30.5t-136 116.5q-47 -84 -132 -117t-220 -33q-113 0 -194.5 23t-134 78t-77 147t-24.5 232zM252 457q0 -104 13.5 -171t44 -105t82.5 -53t130 -15t130.5 15t84 53t45 104.5t13.5 171.5v110q0 102 -13.5 169t-45 105t-84 53 t-130.5 15t-130 -15t-82.5 -53t-44 -104.5t-13.5 -169.5v-110zM954 571h523q0 94 -10.5 159t-38 104.5t-76.5 57t-129 17.5q-78 0 -130.5 -16t-83 -54t-43 -103.5t-12.5 -164.5z" />
<glyph unicode="&#x178;" horiz-adv-x="1044" d="M51 1331h182l287 -649h4l287 649h182l-389 -813v-518h-164v518zM281 1470v168h168v-168h-168zM596 1470v168h168v-168h-168z" />
<glyph unicode="&#x2c6;" horiz-adv-x="688" d="M123 1126l133 246h176l133 -246h-108l-113 142l-113 -142h-108z" />
<glyph unicode="&#x2dc;" horiz-adv-x="827" d="M123 1139q0 102 37 155.5t127 53.5q45 0 75.5 -16.5t57 -37t51.5 -37t57 -16.5q45 0 59.5 24.5t14.5 61.5h103q0 -102 -37 -155.5t-127 -53.5q-45 0 -77 16.5t-57.5 37t-50 37t-57.5 16.5q-45 0 -59.5 -24.5t-14.5 -61.5h-102z" />
<glyph unicode="&#x2000;" horiz-adv-x="884" />
<glyph unicode="&#x2001;" horiz-adv-x="1769" />
<glyph unicode="&#x2002;" horiz-adv-x="884" />
<glyph unicode="&#x2003;" horiz-adv-x="1769" />
<glyph unicode="&#x2004;" horiz-adv-x="589" />
<glyph unicode="&#x2005;" horiz-adv-x="442" />
<glyph unicode="&#x2006;" horiz-adv-x="294" />
<glyph unicode="&#x2007;" horiz-adv-x="294" />
<glyph unicode="&#x2008;" horiz-adv-x="221" />
<glyph unicode="&#x2009;" horiz-adv-x="353" />
<glyph unicode="&#x200a;" horiz-adv-x="98" />
<glyph unicode="&#x2010;" horiz-adv-x="716" d="M102 512v135h512v-135h-512z" />
<glyph unicode="&#x2011;" horiz-adv-x="716" d="M102 512v135h512v-135h-512z" />
<glyph unicode="&#x2012;" horiz-adv-x="716" d="M102 512v135h512v-135h-512z" />
<glyph unicode="&#x2013;" horiz-adv-x="972" d="M102 512v135h768v-135h-768z" />
<glyph unicode="&#x2014;" horiz-adv-x="1413" d="M123 512v135h1167v-135h-1167z" />
<glyph unicode="&#x2018;" horiz-adv-x="370" d="M102 1331h185v-430h-103z" />
<glyph unicode="&#x2019;" horiz-adv-x="370" d="M102 901v430h185l-82 -430h-103z" />
<glyph unicode="&#x201a;" horiz-adv-x="411" d="M102 205h185l-82 -430h-103v430z" />
<glyph unicode="&#x201c;" horiz-adv-x="626" d="M82 1331h184v-430h-102zM340 1331h184v-430h-102z" />
<glyph unicode="&#x201d;" horiz-adv-x="626" d="M102 901v430h185l-82 -430h-103zM360 901v430h185l-82 -430h-103z" />
<glyph unicode="&#x201e;" horiz-adv-x="671" d="M102 205h185l-82 -430h-103v430zM360 205h185l-82 -430h-103v430z" />
<glyph unicode="&#x2022;" horiz-adv-x="903" d="M117 623v86q0 98 19.5 161.5t60.5 100.5t104.5 50t149.5 13t149.5 -13t104 -50t60 -100.5t19.5 -161.5v-86q0 -98 -19.5 -162t-60 -100.5t-104 -50t-149.5 -13.5t-149.5 13.5t-104.5 50t-60.5 100t-19.5 162.5z" />
<glyph unicode="&#x202f;" horiz-adv-x="353" />
<glyph unicode="&#x2039;" horiz-adv-x="675" d="M123 512l283 369h147l-285 -369l285 -369h-147z" />
<glyph unicode="&#x203a;" horiz-adv-x="675" d="M123 143l285 369l-285 369h147l283 -369l-283 -369h-147z" />
<glyph unicode="&#x205f;" horiz-adv-x="442" />
<glyph unicode="&#x20ac;" horiz-adv-x="1224" d="M92 496v98h129v141h-129v99h129v38q0 131 25.5 222.5t81 148.5t141.5 83t207 26q223 0 329.5 -91.5t106.5 -306.5h-164q0 143 -63.5 198.5t-208.5 55.5q-80 0 -135.5 -15t-90 -52t-50 -99.5t-15.5 -156.5v-51h424l-16 -99h-408v-141h383l-16 -98h-367v-50 q0 -94 15.5 -156.5t49 -100t90 -53t136.5 -15.5q143 0 207.5 55t64.5 201h164q0 -215 -106.5 -307.5t-329.5 -92.5q-119 0 -205 25t-141.5 81t-82 148.5t-26.5 227.5v37h-129z" />
<glyph unicode="&#x2122;" horiz-adv-x="1171" d="M90 1262v69h359v-69h-140v-474h-80v474h-139zM522 788v543h117l145 -442l148 442h117v-543h-80v439l-148 -439h-71l-150 439v-439h-78z" />
<glyph unicode="&#x25fc;" horiz-adv-x="1024" d="M0 0v1024h1024v-1024h-1024z" />
</font>
</defs>
</svg>
