<svg xmlns="http://www.w3.org/2000/svg" width="380" height="380" viewBox="0 0 380 380"><path fill="#022a5e" d="M185 365h10v15h-10v-15zm0-365h10v15h-10v-15zm-185 185h15v10h-15v-10zm365 0h15v10h-15v-10zm-267.737 154.807l8.909 5.161-6.968 12.027-8.909-5.162 6.968-12.026zm183.503-316.792l8.909 5.161-6.967 12.027-8.909-5.161 6.967-12.027zm-252.593 67.296l12.028 6.966-5.161 8.909-12.027-6.966 5.16-8.909zm316.782 183.491l12.027 6.966-5.161 8.909-12.026-6.967 5.16-8.908zm-310.029-.209l5.148 8.916-12.037 6.95-5.148-8.916 12.037-6.95zm317.045-183.062l5.147 8.916-12.036 6.95-5.148-8.916 12.037-6.95zm-252.516-67.65l6.95 12.037-8.916 5.148-6.95-12.037 8.916-5.148zm183.058 317.042l6.95 12.036-8.916 5.147-6.95-12.035 8.916-5.148z"/><path fill="#E5E5E5" d="M210.905 372.755l.612 5.684-2.559.275-.612-5.684 2.559-.275zm-40.487-370.351l.625 5.73-2.559.278-.625-5.73 2.559-.278zm58.018 367.464l1.161 5.597-2.521.522-1.161-5.599 2.521-.52zm-76.138-364.719l1.179 5.643-2.521.527-1.177-5.644 2.519-.526zm95.376 359.447l1.761 5.44-2.45.792-1.761-5.438 2.45-.794zm-115.288-354.29l1.782 5.48-2.449.796-1.781-5.481 2.448-.795zm131.876 347.865l2.279 5.242-2.359 1.025-2.279-5.242 2.359-1.025zm-149.055-341.48l2.305 5.282-2.359 1.029-2.305-5.282 2.359-1.029zm-.093 341.478l2.357 1.034-2.294 5.234-2.358-1.034 2.295-5.234zm149.085-341.448l2.358 1.031-2.309 5.282-2.358-1.031 2.309-5.282zm-132.498 347.849l2.446.799-1.777 5.435-2.447-.802 1.778-5.432zm115.303-354.248l2.447.797-1.785 5.479-2.448-.797 1.786-5.479zm-96.095 359.542l2.519.529-1.179 5.595-2.519-.53 1.179-5.594zm76.189-364.698l2.52.526-1.18 5.642-2.521-.527 1.181-5.641zm-58.653 367.613l2.557.285-.632 5.682-2.557-.284.632-5.683zm40.526-370.367l2.559.28-.628 5.729-2.558-.281.627-5.728zm-167.929 295.662l1.52 2.077-4.614 3.376-1.521-2.077 4.615-3.376zm300.377-220.46l1.523 2.077-4.649 3.409-1.521-2.075 4.647-3.411zm-289.266 234.32l1.713 1.921-4.265 3.806-1.714-1.921 4.266-3.806zm277.618-248.457l1.715 1.918-4.295 3.843-1.717-1.918 4.297-3.843zm-263.619 262.68l1.912 1.724-3.827 4.246-1.912-1.725 3.827-4.245zm248.985-277.145l1.914 1.719-3.852 4.287-1.915-1.719 3.853-4.287zm-235.285 288.468l2.071 1.529-3.399 4.598-2.07-1.53 3.398-4.597zm220.995-299.945l2.072 1.527-3.419 4.641-2.072-1.528 3.419-4.64zm-293.568 172.362l.285 2.559-5.681.635-.286-2.559 5.682-.635zm370.2-41.863l.288 2.558-5.729.646-.288-2.559 5.729-.645zm-367.471 59.437l.532 2.519-5.594 1.181-.532-2.519 5.594-1.181zm364.397-77.503l.534 2.518-5.638 1.198-.535-2.518 5.639-1.198zm-359.345 96.796l.802 2.445-5.433 1.781-.802-2.446 5.433-1.78zm353.839-116.611l.806 2.445-5.475 1.803-.806-2.443 5.475-1.805zm-347.579 133.254l1.035 2.357-5.235 2.297-1.034-2.356 5.234-2.298zm340.917-150.304l1.038 2.355-5.274 2.326-1.038-2.354 5.274-2.327zm-354.958 96.794l.285 2.559-5.681.635-.286-2.559 5.682-.635zm370.2-41.863l.288 2.558-5.729.646-.288-2.559 5.729-.645zm-367.471 59.437l.532 2.519-5.594 1.181-.532-2.519 5.594-1.181zm364.397-77.503l.534 2.518-5.638 1.198-.535-2.518 5.639-1.198zm-359.345 96.796l.802 2.445-5.433 1.781-.802-2.446 5.433-1.78zm353.839-116.611l.806 2.445-5.475 1.803-.806-2.443 5.475-1.805zm-347.579 133.254l1.035 2.357-5.235 2.297-1.034-2.356 5.234-2.298zm340.917-150.304l1.038 2.355-5.274 2.326-1.038-2.354 5.274-2.327zm-283.008-76.085l3.364 4.624-2.083 1.514-3.362-4.623 2.081-1.515zm219.575 300.917l3.395 4.657-2.078 1.517-3.397-4.656 2.08-1.518zm-233.922-289.503l3.795 4.277-1.926 1.708-3.795-4.276 1.926-1.709zm247.674 278.246l3.832 4.306-1.923 1.711-3.832-4.306 1.923-1.711zm-262.357-263.863l4.238 3.839-1.729 1.907-4.236-3.839 1.727-1.907zm276.404 249.728l4.276 3.864-1.726 1.909-4.276-3.863 1.726-1.91zm-288.117-235.622l4.588 3.411-1.536 2.065-4.587-3.412 1.535-2.064zm299.29 221.785l4.632 3.432-1.533 2.068-4.631-3.433 1.532-2.067zm-320.726-185.435l5.229 2.31-1.039 2.354-5.23-2.309 1.04-2.355zm341.018 149.906l5.275 2.319-1.035 2.356-5.277-2.32 1.037-2.355zm-347.695-132.822l5.43 1.792-.806 2.445-5.43-1.792.806-2.445zm353.96 116.177l5.478 1.8-.803 2.444-5.477-1.798.802-2.446zm-359.436-96.37l5.592 1.192-.536 2.518-5.592-1.192.536-2.518zm364.439 77.102l5.64 1.194-.534 2.519-5.639-1.194.533-2.519zm-367.472-59.022l5.68.645-.291 2.558-5.68-.645.291-2.558zm370.205 41.459l5.728.642-.286 2.559-5.729-.642.287-2.559z"/></svg>